<?xml version="1.0" encoding="utf-8"?>
<!-- Generator: Adobe Illustrator 25.2.0, SVG Export Plug-In . SVG Version: 6.00 Build 0)  -->
<svg version="1.1" id="Слой_1" xmlns="http://www.w3.org/2000/svg" xmlns:xlink="http://www.w3.org/1999/xlink" x="0px" y="0px"
	 viewBox="0 0 340.8 290.9" style="enable-background:new 0 0 340.8 290.9;" xml:space="preserve">
<style type="text/css">
	.st0{fill:none;stroke:#999999;stroke-width:2;}
	.st1{fill:none;stroke:#808080;stroke-width:2;}
	.st2{fill:none;stroke:#1A1A19;stroke-width:2;}
	.st3{fill:none;stroke:#F7B382;stroke-width:2;}
	.st4{fill:#333332;}
	.st5{fill:#FFFFFF;}
	.st6{fill:#EF6705;}
</style>
<g>
	<g>
		<path vector-effect="non-scaling-stroke" class="st0" d="M147.7,5c3.5,2.5,5.9,5.9,7.1,10c0.1,0.2,0.2,0.3,0.5,0.3l12.3-1.8
			c0.2,0,0.4-0.2,0.4-0.4L168,1.5c0-0.3-0.2-0.5-0.5-0.5c-6.7,0.4-13.3,1.6-19.7,3.7C147.7,4.8,147.7,4.9,147.7,5
			C147.7,5,147.7,5,147.7,5"/>
		<path vector-effect="non-scaling-stroke" class="st0" d="M173,1c-0.3,0-0.5,0.1-0.5,0.5l-0.1,11.7c0,0.3,0.1,0.4,0.4,0.4l12.1,1.7
			c0.3,0,0.6-0.1,0.7-0.4c1.2-3.9,3.5-7.1,6.8-9.6c0.4-0.3,0.3-0.5-0.1-0.6C186,2.6,179.6,1.4,173,1"/>
		<path vector-effect="non-scaling-stroke" class="st0" d="M150.4,16.3c-1-3-5.8-10.4-9.9-8.3c-16.5,8.2-28,21-34.6,38.3
			c-0.2,0.4-0.1,0.5,0.2,0.2c12.6-12.8,27.2-22.6,43.9-29.4C150.4,16.9,150.5,16.6,150.4,16.3"/>
		<path vector-effect="non-scaling-stroke" class="st0" d="M197.9,7.3c-3.4,1.7-6.8,5.1-7.8,8.9c-0.1,0.4,0,0.7,0.4,0.8
			c16.5,6.7,31.1,16.4,43.6,29.1c0.3,0.3,0.3,0.2,0.2-0.1c-6.7-17.6-18.6-30.5-35.5-38.7C198.5,7.2,198.2,7.2,197.9,7.3"/>
		<path vector-effect="non-scaling-stroke" class="st1" d="M122.5,99.2c-1.9,11.3,5.9,23.7,14.7,29.2c9.2,5.8,18.6,8.2,30.3,8.9
			c0.4,0,0.6-0.2,0.6-0.6l-0.1-11.9"/>
		<path vector-effect="non-scaling-stroke" class="st0" d="M168,124.9V18.7c0-0.3-0.2-0.6-0.6-0.6c0,0-0.1,0-0.1,0L156,19.8
			c-0.5,0.1-0.7,0.3-0.7,0.8c-1.3,21.3-16.2,42.1-26.6,60c-3.2,5.5-5.3,11.7-6.2,18.7"/>
		<path vector-effect="non-scaling-stroke" class="st2" d="M168,124.9c-18.3-2.7-33.4-11.3-45.5-25.7"/>
		<path vector-effect="non-scaling-stroke" class="st1" d="M172.5,125.4l0,11.4c0,0.4,0.2,0.5,0.5,0.5c16.8-0.6,34.2-7,42.3-22.9"/>
		<path vector-effect="non-scaling-stroke" class="st0" d="M215.4,114.5c5.5-12.1,1.7-25.4-5.2-36.7c-10.2-16.8-23.8-37.2-25-57.3
			c0-0.3-0.3-0.6-0.6-0.6l-11.3-1.7c-0.5-0.1-0.7,0.1-0.7,0.6l-0.1,106.6"/>
		<path vector-effect="non-scaling-stroke" class="st2" d="M215.4,114.5c-13.3,8.1-27.6,11.7-42.9,10.9"/>
		<path vector-effect="non-scaling-stroke" class="st1" d="M107.1,51.8c-2.2,2.3-4.1,4.1-4.5,7.5c-2.6,21.5,3.2,40.3,17.4,56.4
			c0.3,0.3,0.3,0.3,0.2-0.1c-2.6-7.7-3.1-15.1-1.5-22.1"/>
		<path vector-effect="non-scaling-stroke" class="st0" d="M118.7,93.4c7.9-25.3,28.3-44.2,31.9-71.4c0.1-0.4-0.1-0.5-0.5-0.4
			c-16.7,7.1-31,17.1-43.1,30.1"/>
		<path vector-effect="non-scaling-stroke" class="st2" d="M118.7,93.4c-8.5-12.4-12.4-26.3-11.6-41.6"/>
		<path vector-effect="non-scaling-stroke" class="st1" d="M222.4,108.7l-2,6.2c-0.2,0.5-0.1,0.6,0.3,0.2c3.4-3.5,6.3-7.5,8.7-12"/>
		<path vector-effect="non-scaling-stroke" class="st0" d="M229.3,103.1c7.9-13.8,10.6-28.7,8.1-44.8c-0.4-2.4-1.4-3.5-3-5.2
			c-12.6-13.8-27.3-24.2-44.2-31.4c-0.3-0.1-0.5,0-0.4,0.3c1.9,19.1,15.2,38.2,24.9,54.7c4.4,7.5,7,15.5,7.8,24.1
			c0.2,2.4-0.4,5.1-0.3,7.9"/>
		<path vector-effect="non-scaling-stroke" class="st2" d="M229.3,103.1l-7,5.6"/>
		<path vector-effect="non-scaling-stroke" class="st0" d="M2.5,235.7c2.6,8,8.7,15.4,17.2,17.6c41.4,10.9,82.8,21.7,124.1,32.5
			c12.9,3.4,22.4,4.8,34.5,3.7c4.4-0.4,10.9-1.7,19.6-4c40.9-10.7,81.8-21.4,122.7-32.3c9.5-2.5,16.2-11.2,18.2-20.4
			c0.5-2.4,0.8-8.5,0.9-18.1c0.1-46,0.1-75.2,0-87.6c-0.1-11.9-6.8-25.1-19.2-28.3c-22.9-6-45.7-11.9-68.6-17.9
			c-0.3-0.1-0.5,0-0.6,0.4l-1.6,8c-0.1,0.3,0.1,0.5,0.3,0.5c19.8,5,39.7,10,59.6,14.9c4,1,7,2.1,9.1,3.5
			c9.6,6.2,12.9,16.2,12.4,27.5c-0.2,3.5-0.2,6.2-0.2,8.1c0.2,25.4,0.2,50.8,0,76.2c-0.1,13.7-8.1,24-21.2,27.3
			c-38.7,9.6-77.3,19.3-116,28.9c-17.2,4.3-30.2,4.1-48.2-0.4c-37.3-9.3-74.7-18.6-112-27.9c-5.1-1.3-8.9-2.7-11.4-4.2
			c-8.4-5.2-12.6-13.1-12.6-23.7c0-29.2,0-58.4,0-87.6c0-12.6,6.4-24,19.3-27.3c20.5-5.3,41-10.4,61.6-15.5c0.2,0,0.3-0.2,0.2-0.4
			l-1.6-8.1c-0.1-0.3-0.2-0.4-0.5-0.3c-22.4,5.9-44.8,11.7-67.3,17.6c-9.6,2.5-15.9,9-18.9,18.3C1.5,119.7,1,124,1,129.9
			c0,30.7,0,61.5,0,92.2C1,228.2,1.5,232.8,2.5,235.7"/>
		<path vector-effect="non-scaling-stroke" class="st0" d="M248.8,92.7c-25.7,77.2-131.8,78-157,0.1c-0.1-0.2-0.3-0.3-0.5-0.3
			c-19.3,4.8-38.6,9.6-57.9,14.4c-5,1.2-8.4,2.5-10.4,3.8c-7.3,4.7-11,13.4-11,22.1C12,160.4,12,188,12,215.7
			c0,6.3,0.5,10.8,1.5,13.7c3.4,9.8,10.1,13.6,20.2,16.1c37.5,9.3,74.9,18.7,112.4,28.1c17.2,4.3,30.4,4.3,48.3-0.1
			c37.5-9.2,75.1-18.5,112.6-27.8c19.1-4.8,22.1-16.8,21.7-34.9c-0.6-24.4-0.2-49-0.3-73.4c0-6.6-0.5-11.3-1.4-14
			c-2.7-8.2-8.3-13.2-16.7-15.6c-20.1-5.7-40.6-10.3-60.9-15.4C249.1,92.3,248.9,92.4,248.8,92.7"/>
		<path vector-effect="non-scaling-stroke" class="st0" d="M109.7,185.2l-0.5-1.5c-0.1-0.3-0.3-0.5-0.7-0.5l-9.8,0.1
			c-0.3,0-0.5,0.2-0.5,0.5c0.8,12.5,19.7,15.4,25.2,5.5c5.8-10.5-5.7-14-13-17c-0.7-0.3-1.1-1.1-0.8-1.9c0.2-0.4,0.5-0.7,1-0.9
			c0.6-0.1,1.1,0,1.6,0.4c0.3,0.2,0.5,0.5,0.6,0.9l0.4,1c0.1,0.3,0.3,0.4,0.6,0.4l10.1,0c0.3,0,0.5-0.2,0.4-0.5
			c-1.2-15.2-26.6-14.6-25.9,0.2c0.4,7.6,8.6,9.5,14.3,11.5c0.7,0.3,1.1,1.1,0.9,1.8c-0.1,0.2-0.2,0.4-0.4,0.6
			c-0.9,0.9-1.9,0.9-3.1,0.1C110,185.8,109.8,185.5,109.7,185.2"/>
		<path vector-effect="non-scaling-stroke" class="st0" d="M170.9,182l9.4,0c0.3,0,0.5-0.2,0.5-0.5l-0.1-7.5c0-0.3-0.2-0.5-0.5-0.5
			h-8.8c-0.4,0-0.6-0.2-0.6-0.6l-0.3-2.4c0-0.3,0.2-0.5,0.4-0.6c0,0,0,0,0.1,0l10.5,0c0.3,0,0.5-0.2,0.5-0.5v-7.6
			c0-0.4-0.2-0.6-0.6-0.6l-20.9,0c-0.3,0-0.5,0.2-0.5,0.5v32.4c0,0.4,0.2,0.6,0.6,0.6h20.9c0.3,0,0.5-0.2,0.5-0.5v-7.8
			c0-0.3-0.2-0.5-0.5-0.5h-10.3c-0.7,0-0.9-0.3-0.7-0.9c0.3-0.8,0.2-1.5-0.1-2.3c-0.1-0.3,0-0.6,0.3-0.7
			C170.8,182.1,170.9,182,170.9,182"/>
		<path vector-effect="non-scaling-stroke" class="st0" d="M236.3,177.1c2.4-2.2,3.5-4.8,3.1-7.8c-1.2-10.9-19.5-8.1-26.7-8.1
			c-0.4,0-0.5,0.2-0.5,0.5v32.5c0,0.3,0.2,0.5,0.5,0.5c7.5,0.1,13.2,0.1,17.2,0c9.6-0.3,14.1-10,6.4-16.9
			C236.1,177.6,236.1,177.4,236.3,177.1"/>
		<path vector-effect="non-scaling-stroke" class="st0" d="M58.6,177.1c2.4-2.2,3.5-4.7,3.2-7.6c-1.1-11-19.6-8.3-26.8-8.2
			c-0.3,0-0.5,0.2-0.5,0.5v32.5c0,0.3,0.2,0.5,0.5,0.5c5.7,0.1,11.5,0,17.2-0.1c9.6-0.2,14.3-10.2,6.4-16.7
			C58.3,177.7,58.3,177.4,58.6,177.1"/>
		<path vector-effect="non-scaling-stroke" class="st0" d="M85,189.5c0.2,0,0.3,0.1,0.4,0.3l1.5,4.7c0.1,0.2,0.2,0.3,0.4,0.3h10.3
			c0.2,0,0.4-0.2,0.4-0.4c0,0,0-0.1,0-0.1l-11.9-32.7c-0.1-0.2-0.2-0.3-0.4-0.3H74.9c-0.2,0-0.3,0.1-0.4,0.3l-11.9,32.7
			c-0.1,0.2,0,0.4,0.2,0.5c0,0,0.1,0,0.1,0h10.3c0.2,0,0.3-0.1,0.4-0.3l1.5-4.7c0.1-0.2,0.2-0.3,0.4-0.3H85"/>
		<path vector-effect="non-scaling-stroke" class="st0" d="M137.5,194.8c0.2,0,0.3-0.1,0.3-0.3v-10.9c0-0.2,0.1-0.3,0.3-0.3
			c0.1,0,0.2,0,0.2,0.1l8,11.2c0.1,0.1,0.1,0.1,0.2,0.1h12c0.2,0,0.3-0.1,0.3-0.3c0-0.1,0-0.1-0.1-0.2l-12.3-16.5
			c-0.1-0.1-0.1-0.3,0-0.4l11.8-15.7c0.1-0.1,0.1-0.3-0.1-0.4c-0.1,0-0.1-0.1-0.2-0.1h-11.6c-0.1,0-0.2,0.1-0.2,0.1l-8,11.1
			c-0.1,0.1-0.3,0.2-0.4,0.1c-0.1-0.1-0.1-0.1-0.1-0.2v-10.8c0-0.2-0.1-0.3-0.3-0.3h-9.9c-0.2,0-0.3,0.1-0.3,0.3v32.9
			c0,0.2,0.1,0.3,0.3,0.3H137.5"/>
		<path vector-effect="non-scaling-stroke" class="st0" d="M191.4,170c0.2,0,0.4,0.2,0.4,0.4v0v24c0,0.2,0.2,0.4,0.4,0.4h0h9.5
			c0.2,0,0.4-0.2,0.4-0.4l0-24c0-0.2,0.2-0.4,0.4-0.4h0h7.9c0.2,0,0.4-0.2,0.4-0.4c0,0,0,0,0,0l-0.1-8c0-0.2-0.2-0.4-0.4-0.4h-26.5
			c-0.2,0-0.4,0.2-0.4,0.4v0v8c0,0.2,0.2,0.4,0.4,0.4h0H191.4"/>
		<path vector-effect="non-scaling-stroke" class="st0" d="M262.8,189.5c0.2,0,0.3,0.1,0.4,0.2l1.6,4.8c0.1,0.1,0.2,0.2,0.3,0.2
			l10.4,0c0.2,0,0.4-0.2,0.4-0.4c0,0,0-0.1,0-0.1l-11.9-32.8c-0.1-0.1-0.2-0.2-0.4-0.2h-10.9c-0.2,0-0.3,0.1-0.4,0.2l-11.9,32.8
			c-0.1,0.2,0,0.4,0.2,0.5c0,0,0.1,0,0.1,0H251c0.2,0,0.3-0.1,0.4-0.2l1.6-4.8c0.1-0.1,0.2-0.2,0.4-0.2H262.8"/>
		<path vector-effect="non-scaling-stroke" class="st0" d="M288,186.5c-0.3,0-0.5-0.2-0.5-0.5v-24.2c0-0.3-0.2-0.5-0.5-0.5h-9.5
			c-0.3,0-0.5,0.2-0.5,0.5v32.5c0,0.3,0.2,0.5,0.5,0.5h19.3c0.3,0,0.5-0.2,0.5-0.5l0-7.3c0-0.3-0.2-0.5-0.5-0.5L288,186.5"/>
		<path vector-effect="non-scaling-stroke" class="st0" d="M310.1,186.5c-0.2,0-0.4-0.2-0.4-0.4l0,0v-24.5c0-0.2-0.2-0.4-0.4-0.4
			l0,0h-9.7c-0.2,0-0.4,0.2-0.4,0.4l0,0v32.7c0,0.2,0.2,0.4,0.4,0.4l0,0h19.5c0.2,0,0.4-0.2,0.4-0.4l0,0v-7.5c0-0.2-0.2-0.4-0.4-0.4
			l0,0H310.1"/>
		<path vector-effect="non-scaling-stroke" class="st0" d="M133.1,219.6l-2.5-6c-0.1-0.3-0.3-0.6-0.6-0.9l-0.3-0.3
			c-0.2-0.2-0.4-0.2-0.6,0c-0.1,0.1-0.1,0.3-0.1,0.4l3.4,8.6c0.2,0.5,0.8,0.8,1.4,0.6c0.3-0.1,0.5-0.3,0.6-0.6l3.4-8.3
			c0.1-0.2,0-0.3-0.1-0.4l-0.2-0.2c-0.2-0.2-0.5-0.2-0.7,0c0,0-0.1,0.1-0.1,0.2l-2.8,7.1C133.5,220.2,133.3,220.2,133.1,219.6"/>
		<path vector-effect="non-scaling-stroke" class="st0" d="M142,213.1c0-0.4-0.3-0.7-0.7-0.7l0,0l-0.1,0c-0.4,0-0.7,0.3-0.7,0.7l0,0
			l0,8.2c0,0.4,0.3,0.7,0.7,0.7l0,0l0.1,0c0.4,0,0.7-0.3,0.7-0.7L142,213.1"/>
		<path vector-effect="non-scaling-stroke" class="st0" d="M151.5,219.7l-4.5-7.1c-0.3-0.4-0.8-0.5-1.2-0.3
			c-0.2,0.2-0.4,0.4-0.4,0.7l-0.3,8.4c0,0.3,0.2,0.6,0.6,0.6c1.3,0.1,0.9-6.4,0.8-7.4c0-0.1,0.1-0.2,0.2-0.2c0.1,0,0.1,0,0.2,0.1
			l4.4,7.1c0.3,0.5,0.9,0.6,1.4,0.3c0.3-0.2,0.5-0.5,0.5-0.9c0-1,0.4-8.3-0.6-8.8c-0.2-0.1-0.5,0-0.6,0.2c0,0.1-0.1,0.1,0,0.2v6.8
			c0,0.1-0.1,0.3-0.2,0.3C151.7,219.8,151.6,219.8,151.5,219.7"/>
		<path vector-effect="non-scaling-stroke" class="st0" d="M157.8,215.3c0-0.2,0.1-0.4,0.3-0.4c0.1,0,0.2,0,0.3,0.1l4.3,6.7
			c0.3,0.4,0.9,0.6,1.3,0.3c0.3-0.2,0.4-0.5,0.4-0.8l0-8.7c0-0.2-0.2-0.4-0.4-0.4c-0.1,0-0.2,0-0.3,0.1l-0.3,0.3
			c-0.2,0.2-0.3,0.4-0.3,0.7l0,5.9c0,0.2-0.2,0.4-0.4,0.4c-0.1,0-0.3-0.1-0.3-0.2l-4.3-7c-0.3-0.4-0.9-0.6-1.3-0.3
			c-0.3,0.2-0.4,0.5-0.4,0.8l0,8.4c0,0.4,0.3,0.7,0.6,0.7C158.7,222.1,157.9,216.2,157.8,215.3"/>
		<path vector-effect="non-scaling-stroke" class="st0" d="M171.1,216.2c-0.7-0.8-2.3-3.9-3.2-3.9c-0.5,0-0.6,0.2-0.4,0.6
			c1.7,3.4,3.6,4.3,3.3,8.6c0,0.3,0.1,0.4,0.4,0.5l0.3,0c0.4,0.1,0.6-0.1,0.6-0.5c0-3.3,1.1-6,3.4-8.4c0,0,0.1-0.7,0-0.8
			c-0.2-0.3-0.6-0.3-0.9-0.1c0,0-0.1,0.1-0.1,0.1l-2.7,3.8C171.6,216.5,171.3,216.5,171.1,216.2"/>
		<path vector-effect="non-scaling-stroke" class="st0" d="M180.8,214.1v7.4c0,0.3,0.2,0.5,0.5,0.5l0.4,0c0.4,0,0.6-0.2,0.6-0.6V214
			c0-0.3,0.3-0.6,0.6-0.6c0,0,0.1,0,0.1,0c1,0.2,2,0.1,2.9-0.4c0.2-0.1,0.3-0.3,0.2-0.5c-0.1-0.1-0.2-0.2-0.3-0.2
			c-2.8-0.1-5.7-0.1-8.6,0.1c-0.2,0-0.3,0.2-0.3,0.4c0,0.1,0.1,0.3,0.2,0.3c1,0.3,2.1,0.4,3.1,0.3
			C180.4,213.4,180.7,213.7,180.8,214.1C180.8,214,180.8,214,180.8,214.1"/>
		<path vector-effect="non-scaling-stroke" class="st0" d="M188.4,213.8c-1.3,3.3,3,3.9,4.9,4.5c0.7,0.2,1.1,0.9,0.9,1.6
			c-0.1,0.4-0.4,0.7-0.7,0.8c-2,0.8-3.6,0.4-4.8-1.3c-0.1-0.2-0.4-0.2-0.5-0.1c0,0-0.1,0.1-0.1,0.1l-0.2,0.4
			c-0.1,0.3-0.1,0.6,0.2,0.8c2.4,2.1,9.7,1.8,7.4-2.4c-1.1-2-5.5-1.6-5.9-3.2c-0.1-0.5,0.1-1,0.5-1.2c1.6-0.9,3-0.6,4.1,0.8
			c0.2,0.2,0.5,0.2,0.7,0.1c0,0,0,0,0,0l0.2-0.2c0.2-0.2,0.2-0.5,0-0.7c0,0,0,0,0,0c-1.9-1.7-3.9-1.9-6.1-0.7
			C188.7,213.2,188.5,213.5,188.4,213.8"/>
		<path vector-effect="non-scaling-stroke" class="st0" d="M200.1,213c0-0.4-0.3-0.7-0.7-0.7l0,0l-0.1,0c-0.4,0-0.7,0.3-0.7,0.7
			l0.1,8.3c0,0.4,0.3,0.7,0.7,0.7l0.1,0c0.4,0,0.7-0.3,0.7-0.7L200.1,213"/>
		<path vector-effect="non-scaling-stroke" class="st0" d="M209.6,219.9c0.2,0.9,0.6,1.6,1.3,2.1c0.2,0.2,0.5,0.1,0.7-0.1
			c0.1-0.1,0.1-0.3,0.1-0.5l-3.6-8.7c-0.2-0.5-0.8-0.7-1.2-0.5c-0.2,0.1-0.4,0.3-0.5,0.5l-3.6,8.5c-0.1,0.3,0,0.6,0.3,0.8
			c0.2,0.1,0.4,0,0.6-0.1c0.6-0.6,1-1.3,1-2.2c0-0.3,0.3-0.5,0.5-0.5h3.6C209.2,219.3,209.5,219.6,209.6,219.9"/>
		<path vector-effect="non-scaling-stroke" class="st0" d="M124.1,217.8c0.2-1-0.5-2-1.6-2.3c0,0,0,0,0,0c-1.1-0.2-2.1,0.4-2.4,1.4
			c-0.2,1,0.5,2,1.6,2.3c0,0,0,0,0,0C122.8,219.5,123.9,218.9,124.1,217.8"/>
		<path vector-effect="non-scaling-stroke" class="st0" d="M218.5,216.8c-0.3-1-1.4-1.5-2.4-1.2c-1,0.3-1.6,1.4-1.3,2.3v0
			c0.3,1,1.4,1.5,2.4,1.2C218.2,218.8,218.8,217.8,218.5,216.8L218.5,216.8"/>
		<path vector-effect="non-scaling-stroke" class="st0" d="M128.1,235.7c-6.6,8.6,6.1,17.9,12.4,8.5c0.1-0.2,0.1-0.5-0.1-0.6
			c0,0-0.1,0-0.1,0c-1.8-0.7-3.1-0.4-3.9,1c-0.2,0.3-0.5,0.5-0.8,0.6c-5.7,1.5-8-5.4-4.7-8.3c3.9-3.4,5.5,1.7,9.3,0.8
			c0.3-0.1,0.4-0.3,0.3-0.6C138.2,232.2,131,231.9,128.1,235.7"/>
		<path vector-effect="non-scaling-stroke" class="st0" d="M162.3,233.5l0,14.2c0,0.2,0.1,0.3,0.3,0.3l5.1,0c4.1,0,7.4-3,7.4-6.7
			c0,0,0,0,0,0V240c0-3.7-3.3-6.8-7.4-6.8l-5.1,0C162.4,233.2,162.3,233.3,162.3,233.5C162.3,233.5,162.3,233.5,162.3,233.5"/>
		<path vector-effect="non-scaling-stroke" class="st0" d="M113.8,245.3h5c0.4,0,0.7,0.2,0.7,0.6l0.3,1.4c0.1,0.5,0.4,0.7,0.8,0.7
			l2,0c0.5,0,0.7-0.2,0.5-0.7l-4.5-12.8c-0.4-1.3-1.8-1.9-3.1-1.5c-0.7,0.2-1.2,0.8-1.5,1.5l-4.6,12.7c-0.2,0.5,0,0.7,0.5,0.7h2
			c0.3,0,0.5-0.2,0.6-0.4l0.6-1.9C113.3,245.4,113.5,245.3,113.8,245.3"/>
		<path vector-effect="non-scaling-stroke" class="st0" d="M148.7,245.3h5.1c0.3,0,0.6,0.2,0.7,0.6l0.3,1.6c0.1,0.3,0.4,0.6,0.7,0.6
			h2.1c0.5,0,0.7-0.2,0.5-0.7l-4.6-12.7c-0.5-1.2-1.8-1.9-3.1-1.4c-0.7,0.2-1.2,0.8-1.4,1.4l-4.6,12.8c-0.1,0.4,0,0.6,0.4,0.6h2
			c0.4,0,0.7-0.3,0.8-0.6l0.4-1.7C148.2,245.4,148.4,245.3,148.7,245.3"/>
		<path vector-effect="non-scaling-stroke" class="st0" d="M182.6,245.5c-0.2,0-0.4-0.2-0.4-0.4v-3.1c0-0.2,0.2-0.4,0.4-0.4
			c0,0,0,0,0,0l4.2,0.1c0.2,0,0.4-0.2,0.4-0.4c0,0,0,0,0,0l0-1.8c0-0.2-0.2-0.4-0.4-0.4c0,0,0,0,0,0h-4.3c-0.2,0-0.4-0.2-0.4-0.4
			V236c0-0.2,0.2-0.4,0.4-0.4c0,0,0,0,0,0l4.7,0.2c0.2,0,0.4-0.1,0.4-0.3c0,0,0,0,0,0v-1.8c0-0.2-0.2-0.4-0.4-0.4h-7.8
			c-0.2,0-0.4,0.2-0.4,0.4v14c0,0.2,0.2,0.4,0.4,0.4h7.8c0.2,0,0.4-0.2,0.4-0.4v-1.8c0-0.2-0.2-0.4-0.4-0.4H182.6"/>
		<path vector-effect="non-scaling-stroke" class="st0" d="M195.7,239.5l3.1,7.6c0.4,0.8,1.3,1.2,2.2,0.9c0.4-0.2,0.7-0.5,0.9-0.9
			l3-7.4c0.1-0.2,0.2-0.2,0.4-0.2c0.1,0,0.2,0.2,0.2,0.3l0.1,7.7c0,0.4,0.2,0.6,0.6,0.6h1.6c0.4,0,0.7-0.3,0.7-0.7c0,0,0,0,0,0
			l-0.2-12.5c0-1-0.9-1.9-1.9-1.8c-0.7,0-1.4,0.5-1.7,1.1l-3.9,9.3c-0.2,0.5-0.5,0.5-0.7,0l-4.1-9.4c-0.2-0.4-0.5-0.7-1-0.7h-2.1
			c-0.3,0-0.5,0.2-0.5,0.5v13.6c0,0.4,0.2,0.6,0.6,0.6h1.8c0.4,0,0.6-0.2,0.6-0.6v-7.8C195.3,238.9,195.4,238.8,195.7,239.5"/>
		<path vector-effect="non-scaling-stroke" class="st0" d="M218,239.2c-0.9-1.7-1.8-3.5-2.6-5.3c-0.2-0.4-0.5-0.6-0.9-0.6h-2
			c-0.5,0-0.7,0.2-0.4,0.7c1.3,2.5,2.6,5,3.9,7.6c1,2,0.8,3.8,0.7,5.9c0,0.3,0.2,0.6,0.6,0.6c0,0,0,0,0,0h1.9c0.4,0,0.6-0.2,0.6-0.6
			c0-2.2-0.3-3.9,0.7-5.9c1.3-2.5,2.6-5,3.9-7.6c0.2-0.5,0.1-0.7-0.4-0.7h-2.1c-0.3,0-0.6,0.1-0.7,0.5l-2.6,5.5
			C218.4,239.6,218.2,239.6,218,239.2"/>
		<path vector-effect="non-scaling-stroke" class="st3" d="M112.5,181.6c7.2,2.7-1.2,10.9-4.7,3.6c-0.2-0.3-0.4-0.5-0.8-0.5l-6.4,0
			c-0.3,0-0.5,0.2-0.4,0.5c1.2,8.4,12.8,9.7,18.8,6.2c4.4-2.6,5.6-8.7,1.8-12.4c-2.8-2.6-8.1-3.6-11.1-5.4c-4.2-2.5-0.3-8.2,4.2-4.8
			c0.3,0.2,0.4,0.5,0.5,0.8c0.5,1.8,6.1,1.1,7.5,1.1c0.7,0,0.9-0.4,0.8-1c-3.5-11.6-25.7-8.4-22.1,3.9
			C101.7,178.1,107.4,179.7,112.5,181.6"/>
		<path vector-effect="non-scaling-stroke" class="st3" d="M169.5,187.8c-0.3,0-0.5-0.2-0.5-0.5l-0.1-6.5c0-0.3,0.2-0.5,0.5-0.5h9
			c0.3,0,0.5-0.2,0.5-0.5v-3.9c0-0.3-0.2-0.5-0.5-0.5l0,0l-9,0c-0.3,0-0.5-0.2-0.5-0.5l0,0V169c0-0.3,0.2-0.5,0.5-0.5h10.4
			c0.3,0,0.5-0.2,0.5-0.5l0.1-4.8c0-0.3-0.2-0.5-0.5-0.5c0,0,0,0,0,0h-17.6c-0.3,0-0.5,0.2-0.5,0.5l-0.3,29.6c0,0.3,0.2,0.5,0.5,0.5
			c0,0,0,0,0,0l17.9-0.1c0.3,0,0.5-0.2,0.5-0.5l0-4.5c0-0.3-0.2-0.5-0.5-0.5l0,0H169.5"/>
		<path vector-effect="non-scaling-stroke" class="st3" d="M234,176.3c2.6-0.8,3.9-3.3,3.8-6c-0.1-9.7-17.4-7.9-23.7-7.4
			c-0.2,0-0.3,0.1-0.3,0.4v29.2c0,0.3,0.3,0.6,0.6,0.6c5.1,0.3,16.9,1.1,21.1-1.7c4.4-3,4.2-11.1-1.5-12.6c-0.7-0.2-1.1-0.9-0.9-1.6
			C233.2,176.8,233.6,176.5,234,176.3"/>
		<path vector-effect="non-scaling-stroke" class="st3" d="M55.5,177.1l2.9-2.1c0.3-0.2,0.5-0.4,0.6-0.7c2.5-4.5,0.7-8.8-4.1-10.5
			c-5-1.8-12.9-1-18.2-1c-0.4,0-0.7,0.3-0.7,0.8V192c0,0.5,0.4,0.8,0.8,0.9c5.2,0.3,18.5,1.5,21.9-2.3c3.9-4.3,2.2-10-3.1-12.2
			c-0.4-0.2-0.6-0.6-0.4-1C55.3,177.3,55.4,177.1,55.5,177.1"/>
		<path vector-effect="non-scaling-stroke" class="st3" d="M73.9,188.4c0.1-0.2,0.3-0.4,0.6-0.4h11.8c0.3,0,0.5,0.2,0.6,0.4l1.4,4.4
			c0.1,0.2,0.3,0.4,0.6,0.4l6.3,0c0.3,0,0.6-0.3,0.6-0.6c0-0.1,0-0.1,0-0.2L85,163.1c-0.1-0.2-0.3-0.4-0.6-0.4l-8.1,0
			c-0.2,0-0.5,0.2-0.6,0.4l-10.6,29.2c-0.1,0.3,0,0.6,0.3,0.8c0.1,0,0.1,0,0.2,0l6.3,0c0.3,0,0.5-0.2,0.6-0.4L73.9,188.4"/>
		<path vector-effect="non-scaling-stroke" class="st3" d="M136.3,163.5c0-0.4-0.3-0.7-0.7-0.7h-6.1c-0.4,0-0.7,0.3-0.7,0.7v29
			c0,0.4,0.3,0.7,0.7,0.7h6.1c0.4,0,0.7-0.3,0.7-0.7V163.5"/>
		<path vector-effect="non-scaling-stroke" class="st3" d="M148.1,193.3h7.1c0.2,0,0.4-0.2,0.4-0.4c0-0.1,0-0.2-0.1-0.3l-10.8-14.3
			c-0.3-0.4-0.3-0.9,0-1.3l10.2-13.5c0.1-0.2,0.1-0.5-0.1-0.6c-0.1-0.1-0.2-0.1-0.2-0.1l-6.3,0c-0.6,0-1.1,0.3-1.5,0.8l-9.7,13.5
			c-0.4,0.5-0.4,1.2,0,1.8l10,13.9C147.3,193.1,147.7,193.3,148.1,193.3"/>
		<path vector-effect="non-scaling-stroke" class="st3" d="M200.6,168.9c0-0.4,0.3-0.6,0.6-0.6h7c0.4,0,0.7-0.3,0.7-0.6c0,0,0,0,0,0
			l-0.1-4.2c0-0.4-0.3-0.6-0.6-0.6h-22.8c-0.4,0-0.7,0.3-0.7,0.6c0,0,0,0,0,0l0.1,4.2c0,0.4,0.3,0.6,0.6,0.6h7.1
			c0.4,0,0.6,0.3,0.6,0.6v23.7c0,0.4,0.3,0.6,0.6,0.6l5.7,0c0.4,0,0.6-0.3,0.6-0.6L200.6,168.9"/>
		<path vector-effect="non-scaling-stroke" class="st3" d="M244.9,193.2c1.6,0.2,3.1,0.2,4.7,0c0.4,0,0.6-0.2,0.7-0.6
			c0.4-1.4,0.8-2.7,1.3-4c0.1-0.3,0.4-0.5,0.8-0.5l11.4,0c0.4,0,0.7,0.2,0.8,0.6c0.4,1.3,0.8,2.7,1.3,4c0.1,0.4,0.5,0.7,0.9,0.7h6.1
			c0.3,0,0.5-0.2,0.5-0.5c0-0.1,0-0.1,0-0.2l-10.6-29.3c-0.1-0.3-0.4-0.5-0.7-0.5l-8,0c-0.3,0-0.5,0.2-0.6,0.4l-10.6,29.2
			c-0.2,0.4,0,0.7,0.5,0.8c0.2,0,0.4,0,0.7,0C244.3,193.2,244.6,193.2,244.9,193.2"/>
		<path vector-effect="non-scaling-stroke" class="st3" d="M286.8,188c-0.4,0-0.8-0.3-0.8-0.8l-0.1-23.7c0-0.4-0.3-0.8-0.8-0.8h0
			l-5.8,0c-0.4,0-0.8,0.3-0.8,0.8v28.9c0,0.4,0.3,0.8,0.8,0.8h15.6c0.4,0,0.8-0.3,0.8-0.8l0.1-3.7c0-0.4-0.3-0.8-0.8-0.8
			c0,0,0,0,0,0H286.8"/>
		<path vector-effect="non-scaling-stroke" class="st3" d="M300.8,192.6c0,0.4,0.3,0.7,0.7,0.7h0l15.7-0.1c0.4,0,0.7-0.3,0.7-0.7
			l0.1-3.8c0-0.4-0.3-0.7-0.7-0.7c0,0,0,0,0,0H309c-0.4,0-0.7-0.3-0.7-0.7v0v-23.8c0-0.4-0.3-0.7-0.7-0.7h0h-6.1
			c-0.4,0-0.7,0.3-0.7,0.7v0V192.6"/>
		<path vector-effect="non-scaling-stroke" class="st3" d="M43.5,168.6l0,6.7c0,0.2,0.1,0.3,0.3,0.3l5.4,0c2,0,3.6-1.5,3.6-3.4
			c0,0,0,0,0,0v-0.5c0-1.9-1.6-3.3-3.6-3.3l-5.4,0C43.6,168.3,43.5,168.4,43.5,168.6"/>
		<path vector-effect="non-scaling-stroke" class="st3" d="M43.5,180.8l0,6.3c0,0.3,0.2,0.5,0.5,0.5h0l6,0c1.9,0,3.5-1.5,3.5-3.4
			v-0.4c0-1.9-1.6-3.4-3.5-3.4c0,0,0,0,0,0l-6,0C43.7,180.3,43.5,180.5,43.5,180.8L43.5,180.8"/>
		<path vector-effect="non-scaling-stroke" class="st3" d="M76,182.4c-0.1,0.2,0,0.4,0.2,0.4c0,0,0.1,0,0.1,0l8.2,0
			c0.2,0,0.3-0.1,0.3-0.3c0,0,0-0.1,0-0.1l-4.2-12.5c-0.1-0.2-0.3-0.3-0.4-0.2c-0.1,0-0.2,0.1-0.2,0.2L76,182.4"/>
		<path vector-effect="non-scaling-stroke" class="st3" d="M221.2,168.8l0,6.3c0,0.3,0.2,0.5,0.5,0.5l5.2,0c2,0,3.5-1.5,3.5-3.4
			c0,0,0,0,0,0v-0.4c0-1.9-1.6-3.4-3.5-3.4l-5.2,0C221.5,168.3,221.2,168.5,221.2,168.8C221.2,168.8,221.2,168.8,221.2,168.8"/>
		<path vector-effect="non-scaling-stroke" class="st3" d="M221.3,180.8l0,6.3c0,0.3,0.2,0.5,0.5,0.5c0,0,0,0,0,0l6.1,0
			c1.9,0,3.4-1.5,3.4-3.5v-0.3c0-1.9-1.5-3.5-3.4-3.5c0,0,0,0,0,0l-6.1,0C221.5,180.3,221.3,180.5,221.3,180.8"/>
		<path vector-effect="non-scaling-stroke" class="st3" d="M253.7,182.4c-0.1,0.2,0,0.4,0.2,0.4c0,0,0.1,0,0.1,0l8.1-0.1
			c0.2,0,0.3-0.2,0.3-0.3c0,0,0-0.1,0-0.1l-4.2-12.5c-0.1-0.2-0.2-0.3-0.4-0.2c-0.1,0-0.2,0.1-0.2,0.2L253.7,182.4"/>
		<path vector-effect="non-scaling-stroke" class="st0" d="M45,170.7v2.6c0,0.4,0.3,0.7,0.7,0.7l2.7,0c1.5,0,2.6-0.8,2.6-1.7
			c0,0,0,0,0,0v-0.6c0-0.9-1.2-1.7-2.6-1.7l-2.7,0C45.3,170,45,170.3,45,170.7C45,170.7,45,170.7,45,170.7"/>
		<path vector-effect="non-scaling-stroke" class="st0" d="M222.7,170.9l0.1,2.5c0,0.4,0.4,0.7,0.8,0.7c0,0,0,0,0,0l3-0.1
			c1.2-0.1,2.2-0.9,2.1-1.9l0-0.3c0-1-1.1-1.8-2.3-1.7l-3,0.1C223,170.1,222.7,170.5,222.7,170.9
			C222.7,170.9,222.7,170.9,222.7,170.9"/>
		<path vector-effect="non-scaling-stroke" class="st0" d="M80.7,175.1c-0.1-0.2-0.2-0.3-0.4-0.2c-0.1,0-0.2,0.1-0.2,0.2l-1.9,5.7
			c-0.1,0.2,0,0.3,0.2,0.4c0,0,0.1,0,0.1,0l3.7,0c0.2,0,0.3-0.1,0.3-0.3c0,0,0-0.1,0-0.1L80.7,175.1"/>
		<path vector-effect="non-scaling-stroke" class="st0" d="M256,180.9c-0.1,0.2,0,0.3,0.2,0.4c0,0,0.1,0,0.1,0h3.7
			c0.2,0,0.3-0.1,0.3-0.3c0,0,0-0.1,0-0.1l-1.8-5.7c0-0.2-0.2-0.3-0.4-0.2c-0.1,0-0.2,0.1-0.2,0.2L256,180.9"/>
		<path vector-effect="non-scaling-stroke" class="st0" d="M45,182.3l0,3.1c0,0.3,0.3,0.6,0.6,0.6l2.8,0c1.8,0,3.3-0.9,3.3-1.9
			c0,0,0,0,0,0v-0.4c0-1.1-1.5-2-3.3-2l-2.8,0C45.3,181.7,45,182,45,182.3"/>
		<path vector-effect="non-scaling-stroke" class="st0" d="M222.8,182.5l0,2.7c0,0.4,0.3,0.8,0.8,0.8l2.8,0c1.8,0,3.2-0.8,3.2-1.9
			c0,0,0,0,0,0v-0.5c0-1-1.4-1.9-3.2-1.9l-2.8,0C223.1,181.8,222.8,182.1,222.8,182.5"/>
		<path vector-effect="non-scaling-stroke" class="st0" d="M205.6,217.5c-0.1,0.2,0,0.4,0.2,0.5c0,0,0.1,0,0.1,0h2.4
			c0.2,0,0.4-0.2,0.4-0.3c0,0,0-0.1,0-0.1l-1.2-3c-0.1-0.2-0.3-0.3-0.5-0.2c-0.1,0-0.1,0.1-0.2,0.2L205.6,217.5"/>
		<path vector-effect="non-scaling-stroke" class="st0" d="M165.2,236.4l0,8.4c0,0.3,0.3,0.6,0.6,0.6h1.5c2.5,0,4.6-2,4.6-4.6v-0.6
			c0-2.5-2.1-4.5-4.6-4.5c0,0,0,0,0,0h-1.5C165.5,235.8,165.2,236,165.2,236.4C165.2,236.4,165.2,236.4,165.2,236.4"/>
		<path vector-effect="non-scaling-stroke" class="st0" d="M116.1,237.3l-1.6,4.9c-0.1,0.2,0.1,0.5,0.3,0.6c0,0,0.1,0,0.1,0h2.9
			c0.4,0,0.5-0.2,0.4-0.5l-1.7-4.9C116.4,236.9,116.3,236.9,116.1,237.3"/>
		<path vector-effect="non-scaling-stroke" class="st0" d="M151.1,237.7l-1.6,4.3c-0.2,0.5,0,0.7,0.5,0.7h2.7c0.5,0,0.6-0.2,0.5-0.7
			l-1.5-4.4C151.5,237.1,151.3,237.1,151.1,237.7"/>
	</g>
	<path class="st4" d="M147.7,5c-0.1-0.1-0.1-0.1,0-0.2c0,0,0,0,0.1,0c6.4-2.1,13-3.3,19.7-3.7c0.3,0,0.5,0.1,0.5,0.5l0.1,11.6
		c0,0.2-0.1,0.4-0.4,0.4l-12.3,1.8c-0.3,0-0.4-0.1-0.5-0.3C153.7,10.9,151.3,7.5,147.7,5z"/>
	<path class="st4" d="M173,1c6.6,0.4,13,1.6,19.2,3.6c0.4,0.1,0.5,0.3,0.1,0.6c-3.3,2.5-5.5,5.7-6.8,9.6c-0.1,0.3-0.3,0.5-0.7,0.4
		l-12.1-1.7c-0.3,0-0.4-0.2-0.4-0.4l0.1-11.7C172.5,1.1,172.7,1,173,1z"/>
	<path class="st4" d="M140.6,7.9c4.1-2.1,8.9,5.3,9.9,8.3c0.1,0.3-0.1,0.7-0.4,0.8c-16.7,6.7-31.3,16.5-43.9,29.4
		c-0.3,0.3-0.4,0.3-0.2-0.2C112.5,28.9,124.1,16.1,140.6,7.9z"/>
	<path class="st4" d="M190.1,16.3c1-3.8,4.3-7.3,7.8-8.9c0.3-0.1,0.6-0.1,0.9,0c17,8.2,28.8,21.1,35.5,38.7c0.1,0.3,0.1,0.4-0.2,0.1
		c-12.5-12.7-27.1-22.3-43.6-29.1C190.1,16.9,190,16.7,190.1,16.3z"/>
	<path class="st4" d="M168,124.9c-18.3-2.7-33.4-11.3-45.5-25.7c0.9-7,3-13.2,6.2-18.7c10.4-17.9,25.2-38.7,26.6-60
		c0-0.5,0.3-0.7,0.7-0.8l11.3-1.6c0.3,0,0.6,0.2,0.6,0.5c0,0,0,0.1,0,0.1V124.9z"/>
	<path class="st4" d="M215.4,114.5c-13.3,8.1-27.6,11.7-42.9,10.9l0.1-106.6c0-0.5,0.2-0.7,0.7-0.6l11.3,1.7c0.3,0,0.5,0.3,0.6,0.6
		c1.2,20.1,14.8,40.5,25,57.3C217.1,89.1,220.9,102.3,215.4,114.5z"/>
	<path class="st4" d="M118.7,93.4c-8.5-12.4-12.4-26.3-11.6-41.6c12-13,26.4-23.1,43.1-30.1c0.4-0.2,0.5,0,0.5,0.4
		C147,49.2,126.6,68.1,118.7,93.4z"/>
	<path class="st4" d="M229.3,103.1l-7,5.6c-0.1-2.8,0.5-5.5,0.3-7.9c-0.8-8.6-3.4-16.6-7.8-24.1c-9.7-16.5-23-35.6-24.9-54.7
		c0-0.4,0.1-0.5,0.4-0.3c16.9,7.1,31.6,17.6,44.2,31.4c1.6,1.8,2.6,2.8,3,5.2C239.9,74.4,237.2,89.3,229.3,103.1z"/>
	<path d="M107.1,51.8c-0.8,15.3,3.1,29.2,11.6,41.6c-1.6,7-1.1,14.4,1.5,22.1c0.1,0.4,0.1,0.4-0.2,0.1c-14.2-16.1-20-34.9-17.4-56.4
		C103,55.9,104.9,54.1,107.1,51.8z"/>
	<path class="st4" d="M19.7,253.3c-8.5-2.2-14.6-9.6-17.2-17.6c-1-2.9-1.4-7.5-1.5-13.7c0-30.7,0-61.4,0-92.2
		c0-5.8,0.5-10.2,1.4-13.1c3-9.3,9.3-15.8,18.9-18.3c22.4-5.9,44.8-11.7,67.3-17.6c0.3-0.1,0.5,0,0.5,0.3l1.6,8.1
		c0,0.2-0.1,0.3-0.2,0.4c-20.6,5.1-41.2,10.2-61.6,15.5C16,108.5,9.6,119.8,9.5,132.4c0,29.2-0.1,58.4,0,87.6
		c0,10.6,4.2,18.5,12.6,23.7c2.5,1.6,6.3,3,11.4,4.2c37.3,9.3,74.7,18.6,112,27.9c18,4.5,30.9,4.7,48.2,0.4
		c38.7-9.7,77.3-19.3,116-28.9c13.1-3.3,21.2-13.6,21.2-27.3c0.1-25.4,0.1-50.8,0-76.2c0-1.9,0.1-4.6,0.2-8.1
		c0.5-11.4-2.8-21.3-12.4-27.5c-2.1-1.4-5.2-2.6-9.1-3.5c-19.9-4.9-39.7-9.8-59.6-14.9c-0.3-0.1-0.4-0.3-0.3-0.5l1.6-8
		c0.1-0.3,0.3-0.5,0.6-0.4c22.9,6,45.7,12,68.6,17.9c12.4,3.2,19,16.4,19.2,28.3c0.1,12.4,0.2,41.6,0,87.6c0,9.7-0.3,15.7-0.9,18.1
		c-2.1,9.2-8.7,17.9-18.2,20.4c-40.9,10.9-81.8,21.6-122.7,32.3c-8.6,2.3-15.2,3.6-19.6,4c-12.1,1.1-21.7-0.3-34.5-3.7
		C102.4,275,61.1,264.2,19.7,253.3z"/>
	<path class="st4" d="M91.8,92.8c25.2,78,131.3,77.2,157-0.1c0.1-0.3,0.3-0.4,0.7-0.4c20.3,5,40.8,9.7,60.9,15.4
		c8.5,2.4,14,7.4,16.7,15.6c0.9,2.7,1.4,7.4,1.4,14c0,24.4-0.4,49,0.3,73.4c0.5,18.1-2.6,30.1-21.7,34.9
		c-37.5,9.3-75.1,18.6-112.6,27.8c-17.9,4.4-31.1,4.4-48.3,0.1c-37.5-9.4-74.9-18.7-112.4-28.1c-10.2-2.5-16.8-6.3-20.2-16.1
		c-1-2.8-1.5-7.4-1.5-13.7C12,188,12,160.4,12,132.8c0-8.7,3.6-17.4,11-22.1c2-1.3,5.4-2.5,10.4-3.8c19.3-4.8,38.6-9.7,57.9-14.4
		C91.5,92.4,91.7,92.6,91.8,92.8z M109.7,185.2l-0.5-1.5c-0.1-0.3-0.3-0.5-0.7-0.5l-9.8,0.1c-0.3,0-0.5,0.2-0.5,0.5
		c0.8,12.5,19.7,15.4,25.2,5.5c5.8-10.5-5.7-14-13-17c-0.7-0.3-1.1-1.1-0.8-1.9c0.2-0.4,0.5-0.7,1-0.9c0.6-0.1,1.1,0,1.6,0.4
		c0.3,0.2,0.5,0.5,0.6,0.9l0.4,1c0.1,0.3,0.3,0.4,0.6,0.4l10.1,0c0.3,0,0.5-0.2,0.4-0.5c-1.2-15.2-26.6-14.6-25.9,0.2
		c0.4,7.6,8.6,9.5,14.3,11.5c0.7,0.3,1.1,1.1,0.9,1.8c-0.1,0.2-0.2,0.4-0.4,0.6c-0.9,0.9-1.9,0.9-3.1,0.1
		C110,185.8,109.8,185.5,109.7,185.2z M170.9,182l9.4,0c0.3,0,0.5-0.2,0.5-0.5l-0.1-7.5c0-0.3-0.2-0.5-0.5-0.5h-8.8
		c-0.4,0-0.6-0.2-0.6-0.6l-0.3-2.4c0-0.3,0.2-0.5,0.4-0.6c0,0,0,0,0.1,0l10.5,0c0.3,0,0.5-0.2,0.5-0.5v-7.6c0-0.4-0.2-0.6-0.6-0.6
		l-20.9,0c-0.3,0-0.5,0.2-0.5,0.5v32.4c0,0.4,0.2,0.6,0.6,0.6h20.9c0.3,0,0.5-0.2,0.5-0.5v-7.8c0-0.3-0.2-0.5-0.5-0.5h-10.3
		c-0.7,0-0.9-0.3-0.7-0.9c0.3-0.8,0.2-1.5-0.1-2.3c-0.1-0.3,0-0.6,0.3-0.7C170.8,182.1,170.9,182,170.9,182z M236.3,177.1
		c2.4-2.2,3.5-4.8,3.1-7.8c-1.2-10.9-19.5-8.1-26.7-8.1c-0.4,0-0.5,0.2-0.5,0.5v32.5c0,0.3,0.2,0.5,0.5,0.5c7.5,0.1,13.2,0.1,17.2,0
		c9.6-0.3,14.1-10,6.4-16.9C236.1,177.6,236.1,177.4,236.3,177.1z M58.6,177.1c2.4-2.2,3.5-4.7,3.2-7.6c-1.1-11-19.6-8.3-26.8-8.2
		c-0.3,0-0.5,0.2-0.5,0.5v32.5c0,0.3,0.2,0.5,0.5,0.5c5.7,0.1,11.5,0,17.2-0.1c9.6-0.2,14.3-10.2,6.4-16.7
		C58.3,177.7,58.3,177.4,58.6,177.1z M85,189.5c0.2,0,0.3,0.1,0.4,0.3l1.5,4.7c0.1,0.2,0.2,0.3,0.4,0.3h10.3c0.2,0,0.4-0.2,0.4-0.4
		c0,0,0-0.1,0-0.1l-11.9-32.7c-0.1-0.2-0.2-0.3-0.4-0.3H74.9c-0.2,0-0.3,0.1-0.4,0.3l-11.9,32.7c-0.1,0.2,0,0.4,0.2,0.5
		c0,0,0.1,0,0.1,0h10.3c0.2,0,0.3-0.1,0.4-0.3l1.5-4.7c0.1-0.2,0.2-0.3,0.4-0.3H85z M137.5,194.8c0.2,0,0.3-0.1,0.3-0.3v-10.9
		c0-0.2,0.1-0.3,0.3-0.3c0.1,0,0.2,0,0.2,0.1l8,11.2c0.1,0.1,0.1,0.1,0.2,0.1h12c0.2,0,0.3-0.1,0.3-0.3c0-0.1,0-0.1-0.1-0.2
		l-12.3-16.5c-0.1-0.1-0.1-0.3,0-0.4l11.8-15.7c0.1-0.1,0.1-0.3-0.1-0.4c-0.1,0-0.1-0.1-0.2-0.1h-11.6c-0.1,0-0.2,0.1-0.2,0.1
		l-8,11.1c-0.1,0.1-0.3,0.2-0.4,0.1c-0.1-0.1-0.1-0.1-0.1-0.2v-10.8c0-0.2-0.1-0.3-0.3-0.3h-9.9c-0.2,0-0.3,0.1-0.3,0.3v32.9
		c0,0.2,0.1,0.3,0.3,0.3H137.5z M191.4,170c0.2,0,0.4,0.2,0.4,0.4v0v24c0,0.2,0.2,0.4,0.4,0.4h0h9.5c0.2,0,0.4-0.2,0.4-0.4l0-24
		c0-0.2,0.2-0.4,0.4-0.4h0h7.9c0.2,0,0.4-0.2,0.4-0.4c0,0,0,0,0,0l-0.1-8c0-0.2-0.2-0.4-0.4-0.4h-26.5c-0.2,0-0.4,0.2-0.4,0.4v0v8
		c0,0.2,0.2,0.4,0.4,0.4h0H191.4z M262.8,189.5c0.2,0,0.3,0.1,0.4,0.2l1.6,4.8c0.1,0.1,0.2,0.2,0.3,0.2l10.4,0
		c0.2,0,0.4-0.2,0.4-0.4c0,0,0-0.1,0-0.1l-11.9-32.8c-0.1-0.1-0.2-0.2-0.4-0.2h-10.9c-0.2,0-0.3,0.1-0.4,0.2l-11.9,32.8
		c-0.1,0.2,0,0.4,0.2,0.5c0,0,0.1,0,0.1,0H251c0.2,0,0.3-0.1,0.4-0.2l1.6-4.8c0.1-0.1,0.2-0.2,0.4-0.2H262.8z M288,186.5
		c-0.3,0-0.5-0.2-0.5-0.5v-24.2c0-0.3-0.2-0.5-0.5-0.5h-9.5c-0.3,0-0.5,0.2-0.5,0.5v32.5c0,0.3,0.2,0.5,0.5,0.5h19.3
		c0.3,0,0.5-0.2,0.5-0.5l0-7.3c0-0.3-0.2-0.5-0.5-0.5L288,186.5z M310.1,186.5c-0.2,0-0.4-0.2-0.4-0.4l0,0v-24.5
		c0-0.2-0.2-0.4-0.4-0.4l0,0h-9.7c-0.2,0-0.4,0.2-0.4,0.4l0,0v32.7c0,0.2,0.2,0.4,0.4,0.4l0,0h19.5c0.2,0,0.4-0.2,0.4-0.4l0,0v-7.5
		c0-0.2-0.2-0.4-0.4-0.4l0,0H310.1z M133.1,219.6l-2.5-6c-0.1-0.3-0.3-0.6-0.6-0.9l-0.3-0.3c-0.2-0.2-0.4-0.2-0.6,0
		c-0.1,0.1-0.1,0.3-0.1,0.4l3.4,8.6c0.2,0.5,0.8,0.8,1.4,0.6c0.3-0.1,0.5-0.3,0.6-0.6l3.4-8.3c0.1-0.2,0-0.3-0.1-0.4l-0.2-0.2
		c-0.2-0.2-0.5-0.2-0.7,0c0,0-0.1,0.1-0.1,0.2l-2.8,7.1C133.5,220.2,133.3,220.2,133.1,219.6z M142,213.1c0-0.4-0.3-0.7-0.7-0.7l0,0
		l-0.1,0c-0.4,0-0.7,0.3-0.7,0.7l0,0l0,8.2c0,0.4,0.3,0.7,0.7,0.7l0,0l0.1,0c0.4,0,0.7-0.3,0.7-0.7L142,213.1z M151.5,219.7
		l-4.5-7.1c-0.3-0.4-0.8-0.5-1.2-0.3c-0.2,0.2-0.4,0.4-0.4,0.7l-0.3,8.4c0,0.3,0.2,0.6,0.6,0.6c1.3,0.1,0.9-6.4,0.8-7.4
		c0-0.1,0.1-0.2,0.2-0.2c0.1,0,0.1,0,0.2,0.1l4.4,7.1c0.3,0.5,0.9,0.6,1.4,0.3c0.3-0.2,0.5-0.5,0.5-0.9c0-1,0.4-8.3-0.6-8.8
		c-0.2-0.1-0.5,0-0.6,0.2c0,0.1-0.1,0.1,0,0.2v6.8c0,0.1-0.1,0.3-0.2,0.3C151.7,219.8,151.6,219.8,151.5,219.7z M157.8,215.3
		c0-0.2,0.1-0.4,0.3-0.4c0.1,0,0.2,0,0.3,0.1l4.3,6.7c0.3,0.4,0.9,0.6,1.3,0.3c0.3-0.2,0.4-0.5,0.4-0.8l0-8.7c0-0.2-0.2-0.4-0.4-0.4
		c-0.1,0-0.2,0-0.3,0.1l-0.3,0.3c-0.2,0.2-0.3,0.4-0.3,0.7l0,5.9c0,0.2-0.2,0.4-0.4,0.4c-0.1,0-0.3-0.1-0.3-0.2l-4.3-7
		c-0.3-0.4-0.9-0.6-1.3-0.3c-0.3,0.2-0.4,0.5-0.4,0.8l0,8.4c0,0.4,0.3,0.7,0.6,0.7C158.7,222.1,157.9,216.2,157.8,215.3z
		 M171.1,216.2c-0.7-0.8-2.3-3.9-3.2-3.9c-0.5,0-0.6,0.2-0.4,0.6c1.7,3.4,3.6,4.3,3.3,8.6c0,0.3,0.1,0.4,0.4,0.5l0.3,0
		c0.4,0.1,0.6-0.1,0.6-0.5c0-3.3,1.1-6,3.4-8.4c0,0,0.1-0.7,0-0.8c-0.2-0.3-0.6-0.3-0.9-0.1c0,0-0.1,0.1-0.1,0.1l-2.7,3.8
		C171.6,216.5,171.3,216.5,171.1,216.2z M180.8,214.1v7.4c0,0.3,0.2,0.5,0.5,0.5l0.4,0c0.4,0,0.6-0.2,0.6-0.6V214
		c0-0.3,0.3-0.6,0.6-0.6c0,0,0.1,0,0.1,0c1,0.2,2,0.1,2.9-0.4c0.2-0.1,0.3-0.3,0.2-0.5c-0.1-0.1-0.2-0.2-0.3-0.2
		c-2.8-0.1-5.7-0.1-8.6,0.1c-0.2,0-0.3,0.2-0.3,0.4c0,0.1,0.1,0.3,0.2,0.3c1,0.3,2.1,0.4,3.1,0.3
		C180.4,213.4,180.7,213.7,180.8,214.1C180.8,214,180.8,214,180.8,214.1z M188.4,213.8c-1.3,3.3,3,3.9,4.9,4.5
		c0.7,0.2,1.1,0.9,0.9,1.6c-0.1,0.4-0.4,0.7-0.7,0.8c-2,0.8-3.6,0.4-4.8-1.3c-0.1-0.2-0.4-0.2-0.5-0.1c0,0-0.1,0.1-0.1,0.1l-0.2,0.4
		c-0.1,0.3-0.1,0.6,0.2,0.8c2.4,2.1,9.7,1.8,7.4-2.4c-1.1-2-5.5-1.6-5.9-3.2c-0.1-0.5,0.1-1,0.5-1.2c1.6-0.9,3-0.6,4.1,0.8
		c0.2,0.2,0.5,0.2,0.7,0.1c0,0,0,0,0,0l0.2-0.2c0.2-0.2,0.2-0.5,0-0.7c0,0,0,0,0,0c-1.9-1.7-3.9-1.9-6.1-0.7
		C188.7,213.2,188.5,213.5,188.4,213.8z M200.1,213c0-0.4-0.3-0.7-0.7-0.7l0,0l-0.1,0c-0.4,0-0.7,0.3-0.7,0.7l0.1,8.3
		c0,0.4,0.3,0.7,0.7,0.7l0.1,0c0.4,0,0.7-0.3,0.7-0.7L200.1,213z M209.6,219.9c0.2,0.9,0.6,1.6,1.3,2.1c0.2,0.2,0.5,0.1,0.7-0.1
		c0.1-0.1,0.1-0.3,0.1-0.5l-3.6-8.7c-0.2-0.5-0.8-0.7-1.2-0.5c-0.2,0.1-0.4,0.3-0.5,0.5l-3.6,8.5c-0.1,0.3,0,0.6,0.3,0.8
		c0.2,0.1,0.4,0,0.6-0.1c0.6-0.6,1-1.3,1-2.2c0-0.3,0.3-0.5,0.5-0.5h3.6C209.2,219.3,209.5,219.6,209.6,219.9z M124.1,217.8
		c0.2-1-0.5-2-1.6-2.3c0,0,0,0,0,0c-1.1-0.2-2.1,0.4-2.4,1.4c-0.2,1,0.5,2,1.6,2.3c0,0,0,0,0,0C122.8,219.5,123.9,218.9,124.1,217.8
		z M218.5,216.8c-0.3-1-1.4-1.5-2.4-1.2c-1,0.3-1.6,1.4-1.3,2.3v0c0.3,1,1.4,1.5,2.4,1.2C218.2,218.8,218.8,217.8,218.5,216.8
		L218.5,216.8z M128.1,235.7c-6.6,8.6,6.1,17.9,12.4,8.5c0.1-0.2,0.1-0.5-0.1-0.6c0,0-0.1,0-0.1,0c-1.8-0.7-3.1-0.4-3.9,1
		c-0.2,0.3-0.5,0.5-0.8,0.6c-5.7,1.5-8-5.4-4.7-8.3c3.9-3.4,5.5,1.7,9.3,0.8c0.3-0.1,0.4-0.3,0.3-0.6
		C138.2,232.2,131,231.9,128.1,235.7z M162.3,233.5l0,14.2c0,0.2,0.1,0.3,0.3,0.3l5.1,0c4.1,0,7.4-3,7.4-6.7c0,0,0,0,0,0V240
		c0-3.7-3.3-6.8-7.4-6.8l-5.1,0C162.4,233.2,162.3,233.3,162.3,233.5C162.3,233.5,162.3,233.5,162.3,233.5z M113.8,245.3h5
		c0.4,0,0.7,0.2,0.7,0.6l0.3,1.4c0.1,0.5,0.4,0.7,0.8,0.7l2,0c0.5,0,0.7-0.2,0.5-0.7l-4.5-12.8c-0.4-1.3-1.8-1.9-3.1-1.5
		c-0.7,0.2-1.2,0.8-1.5,1.5l-4.6,12.7c-0.2,0.5,0,0.7,0.5,0.7h2c0.3,0,0.5-0.2,0.6-0.4l0.6-1.9C113.3,245.4,113.5,245.3,113.8,245.3
		z M148.7,245.3h5.1c0.3,0,0.6,0.2,0.7,0.6l0.3,1.6c0.1,0.3,0.4,0.6,0.7,0.6h2.1c0.5,0,0.7-0.2,0.5-0.7l-4.6-12.7
		c-0.5-1.2-1.8-1.9-3.1-1.4c-0.7,0.2-1.2,0.8-1.4,1.4l-4.6,12.8c-0.1,0.4,0,0.6,0.4,0.6h2c0.4,0,0.7-0.3,0.8-0.6l0.4-1.7
		C148.2,245.4,148.4,245.3,148.7,245.3z M182.6,245.5c-0.2,0-0.4-0.2-0.4-0.4v-3.1c0-0.2,0.2-0.4,0.4-0.4c0,0,0,0,0,0l4.2,0.1
		c0.2,0,0.4-0.2,0.4-0.4c0,0,0,0,0,0l0-1.8c0-0.2-0.2-0.4-0.4-0.4c0,0,0,0,0,0h-4.3c-0.2,0-0.4-0.2-0.4-0.4V236
		c0-0.2,0.2-0.4,0.4-0.4c0,0,0,0,0,0l4.7,0.2c0.2,0,0.4-0.1,0.4-0.3c0,0,0,0,0,0v-1.8c0-0.2-0.2-0.4-0.4-0.4h-7.8
		c-0.2,0-0.4,0.2-0.4,0.4v14c0,0.2,0.2,0.4,0.4,0.4h7.8c0.2,0,0.4-0.2,0.4-0.4v-1.8c0-0.2-0.2-0.4-0.4-0.4H182.6z M195.7,239.5
		l3.1,7.6c0.4,0.8,1.3,1.2,2.2,0.9c0.4-0.2,0.7-0.5,0.9-0.9l3-7.4c0.1-0.2,0.2-0.2,0.4-0.2c0.1,0,0.2,0.2,0.2,0.3l0.1,7.7
		c0,0.4,0.2,0.6,0.6,0.6h1.6c0.4,0,0.7-0.3,0.7-0.7c0,0,0,0,0,0l-0.2-12.5c0-1-0.9-1.9-1.9-1.8c-0.7,0-1.4,0.5-1.7,1.1l-3.9,9.3
		c-0.2,0.5-0.5,0.5-0.7,0l-4.1-9.4c-0.2-0.4-0.5-0.7-1-0.7h-2.1c-0.3,0-0.5,0.2-0.5,0.5v13.6c0,0.4,0.2,0.6,0.6,0.6h1.8
		c0.4,0,0.6-0.2,0.6-0.6v-7.8C195.3,238.9,195.4,238.8,195.7,239.5z M218,239.2c-0.9-1.7-1.8-3.5-2.6-5.3c-0.2-0.4-0.5-0.6-0.9-0.6
		h-2c-0.5,0-0.7,0.2-0.4,0.7c1.3,2.5,2.6,5,3.9,7.6c1,2,0.8,3.8,0.7,5.9c0,0.3,0.2,0.6,0.6,0.6c0,0,0,0,0,0h1.9
		c0.4,0,0.6-0.2,0.6-0.6c0-2.2-0.3-3.9,0.7-5.9c1.3-2.5,2.6-5,3.9-7.6c0.2-0.5,0.1-0.7-0.4-0.7h-2.1c-0.3,0-0.6,0.1-0.7,0.5
		l-2.6,5.5C218.4,239.6,218.2,239.6,218,239.2z"/>
	<path d="M122.5,99.2c12,14.4,27.2,23,45.5,25.7l0.1,11.9c0,0.4-0.2,0.6-0.6,0.6c-11.6-0.8-21.1-3.2-30.3-8.9
		C128.4,122.8,120.7,110.5,122.5,99.2z"/>
	<path d="M229.3,103.1c-2.4,4.6-5.3,8.6-8.7,12c-0.4,0.4-0.5,0.3-0.3-0.2l2-6.2L229.3,103.1z"/>
	<path d="M215.4,114.5c-8.2,15.9-25.5,22.3-42.3,22.9c-0.4,0-0.5-0.2-0.5-0.5l0-11.4C187.8,126.2,202.1,122.6,215.4,114.5z"/>
	<path class="st5" d="M110.3,186c1.1,0.8,2.2,0.7,3.1-0.1c0.6-0.5,0.6-1.4,0.1-2c-0.2-0.2-0.4-0.3-0.6-0.4
		c-5.6-1.9-13.9-3.9-14.3-11.5c-0.7-14.8,24.6-15.4,25.9-0.2c0,0.3-0.1,0.5-0.4,0.5l-10.1,0c-0.3,0-0.5-0.1-0.6-0.4l-0.4-1
		c-0.1-0.3-0.4-0.6-0.6-0.9c-0.5-0.4-1.1-0.5-1.6-0.4c-0.8,0.2-1.2,1-1.1,1.7c0.1,0.4,0.4,0.8,0.9,1c7.3,2.9,18.8,6.5,13,17
		c-5.4,9.9-24.4,7-25.2-5.5c0-0.3,0.1-0.5,0.5-0.5l9.8-0.1c0.3,0,0.6,0.2,0.7,0.5l0.5,1.5C109.8,185.5,110,185.8,110.3,186z
		 M112.5,181.6c7.2,2.7-1.2,10.9-4.7,3.6c-0.2-0.3-0.4-0.5-0.8-0.5l-6.4,0c-0.3,0-0.5,0.2-0.4,0.5c1.2,8.4,12.8,9.7,18.8,6.2
		c4.4-2.6,5.6-8.7,1.8-12.4c-2.8-2.6-8.1-3.6-11.1-5.4c-4.2-2.5-0.3-8.2,4.2-4.8c0.3,0.2,0.4,0.5,0.5,0.8c0.5,1.8,6.1,1.1,7.5,1.1
		c0.7,0,0.9-0.4,0.8-1c-3.5-11.6-25.7-8.4-22.1,3.9C101.7,178.1,107.4,179.7,112.5,181.6z"/>
	<path class="st5" d="M170.4,182.8c0.3,0.8,0.4,1.5,0.1,2.3c-0.2,0.6,0,0.9,0.7,0.9h10.3c0.3,0,0.5,0.2,0.5,0.5v7.8
		c0,0.3-0.2,0.5-0.5,0.5h-20.9c-0.4,0-0.6-0.2-0.6-0.6v-32.4c0-0.3,0.2-0.5,0.5-0.5l20.9,0c0.4,0,0.6,0.2,0.6,0.6v7.6
		c0,0.3-0.2,0.5-0.5,0.5l-10.5,0c-0.3,0-0.5,0.2-0.5,0.5c0,0,0,0,0,0.1l0.3,2.4c0,0.4,0.3,0.6,0.6,0.6h8.8c0.3,0,0.5,0.2,0.5,0.5
		l0.1,7.5c0,0.3-0.2,0.5-0.5,0.5l-9.4,0c-0.3,0-0.5,0.3-0.5,0.6C170.4,182.7,170.4,182.8,170.4,182.8z M169.5,187.8
		c-0.3,0-0.5-0.2-0.5-0.5l-0.1-6.5c0-0.3,0.2-0.5,0.5-0.5h9c0.3,0,0.5-0.2,0.5-0.5v-3.9c0-0.3-0.2-0.5-0.5-0.5l0,0l-9,0
		c-0.3,0-0.5-0.2-0.5-0.5l0,0V169c0-0.3,0.2-0.5,0.5-0.5h10.4c0.3,0,0.5-0.2,0.5-0.5l0.1-4.8c0-0.3-0.2-0.5-0.5-0.5c0,0,0,0,0,0
		h-17.6c-0.3,0-0.5,0.2-0.5,0.5l-0.3,29.6c0,0.3,0.2,0.5,0.5,0.5c0,0,0,0,0,0l17.9-0.1c0.3,0,0.5-0.2,0.5-0.5l0-4.5
		c0-0.3-0.2-0.5-0.5-0.5l0,0H169.5z"/>
	<path class="st5" d="M236.3,177.9c7.7,6.9,3.3,16.6-6.4,16.9c-4,0.1-9.7,0.1-17.2,0c-0.3,0-0.5-0.2-0.5-0.5v-32.5
		c0-0.4,0.2-0.5,0.5-0.5c7.2,0,25.5-2.8,26.7,8.1c0.3,2.9-0.7,5.5-3.1,7.8C236.1,177.4,236.1,177.6,236.3,177.9z M234,176.3
		c2.6-0.8,3.9-3.3,3.8-6c-0.1-9.7-17.4-7.9-23.7-7.4c-0.2,0-0.3,0.1-0.3,0.4v29.2c0,0.3,0.3,0.6,0.6,0.6c5.1,0.3,16.9,1.1,21.1-1.7
		c4.4-3,4.2-11.1-1.5-12.6c-0.7-0.2-1.1-0.9-0.9-1.6C233.2,176.8,233.6,176.5,234,176.3z"/>
	<path class="st5" d="M58.6,177.9c7.9,6.5,3.2,16.5-6.4,16.7c-5.7,0.1-11.5,0.2-17.2,0.1c-0.3,0-0.5-0.2-0.5-0.5v-32.5
		c0-0.3,0.2-0.5,0.5-0.5c7.2-0.1,25.8-2.8,26.8,8.2c0.3,2.9-0.8,5.4-3.2,7.6C58.3,177.4,58.3,177.7,58.6,177.9z M55.5,177.1l2.9-2.1
		c0.3-0.2,0.5-0.4,0.6-0.7c2.5-4.5,0.7-8.8-4.1-10.5c-5-1.8-12.9-1-18.2-1c-0.4,0-0.7,0.3-0.7,0.8V192c0,0.5,0.4,0.8,0.8,0.9
		c5.2,0.3,18.5,1.5,21.9-2.3c3.9-4.3,2.2-10-3.1-12.2c-0.4-0.2-0.6-0.6-0.4-1C55.3,177.3,55.4,177.1,55.5,177.1z"/>
	<path class="st5" d="M85,189.5h-9.4c-0.2,0-0.3,0.1-0.4,0.3l-1.5,4.7c-0.1,0.2-0.2,0.3-0.4,0.3H63c-0.2,0-0.4-0.2-0.4-0.4
		c0,0,0-0.1,0-0.1l11.9-32.7c0.1-0.2,0.2-0.3,0.4-0.3h10.9c0.2,0,0.3,0.1,0.4,0.3L98,194.3c0.1,0.2,0,0.4-0.2,0.5c0,0-0.1,0-0.1,0
		H87.3c-0.2,0-0.3-0.1-0.4-0.3l-1.5-4.7C85.4,189.6,85.2,189.5,85,189.5z M73.9,188.4c0.1-0.2,0.3-0.4,0.6-0.4h11.8
		c0.3,0,0.5,0.2,0.6,0.4l1.4,4.4c0.1,0.2,0.3,0.4,0.6,0.4l6.3,0c0.3,0,0.6-0.3,0.6-0.6c0-0.1,0-0.1,0-0.2L85,163.1
		c-0.1-0.2-0.3-0.4-0.6-0.4l-8.1,0c-0.2,0-0.5,0.2-0.6,0.4l-10.6,29.2c-0.1,0.3,0,0.6,0.3,0.8c0.1,0,0.1,0,0.2,0l6.3,0
		c0.3,0,0.5-0.2,0.6-0.4L73.9,188.4z"/>
	<path class="st5" d="M137.5,194.8h-9.9c-0.2,0-0.3-0.1-0.3-0.3v-32.9c0-0.2,0.1-0.3,0.3-0.3h9.9c0.2,0,0.3,0.1,0.3,0.3v10.8
		c0,0.2,0.1,0.3,0.3,0.3c0.1,0,0.2,0,0.2-0.1l8-11.1c0.1-0.1,0.1-0.1,0.2-0.1h11.6c0.2,0,0.3,0.1,0.3,0.3c0,0.1,0,0.1-0.1,0.2
		l-11.8,15.7c-0.1,0.1-0.1,0.3,0,0.4l12.3,16.5c0.1,0.1,0.1,0.3-0.1,0.4c-0.1,0-0.1,0.1-0.2,0.1h-12c-0.1,0-0.2-0.1-0.2-0.1l-8-11.2
		c-0.1-0.1-0.3-0.2-0.4-0.1c-0.1,0.1-0.1,0.1-0.1,0.2v10.9C137.8,194.6,137.6,194.8,137.5,194.8z M136.3,163.5
		c0-0.4-0.3-0.7-0.7-0.7h-6.1c-0.4,0-0.7,0.3-0.7,0.7v29c0,0.4,0.3,0.7,0.7,0.7h6.1c0.4,0,0.7-0.3,0.7-0.7V163.5z M148.1,193.3h7.1
		c0.2,0,0.4-0.2,0.4-0.4c0-0.1,0-0.2-0.1-0.3l-10.8-14.3c-0.3-0.4-0.3-0.9,0-1.3l10.2-13.5c0.1-0.2,0.1-0.5-0.1-0.6
		c-0.1-0.1-0.2-0.1-0.2-0.1l-6.3,0c-0.6,0-1.1,0.3-1.5,0.8l-9.7,13.5c-0.4,0.5-0.4,1.2,0,1.8l10,13.9
		C147.3,193.1,147.7,193.3,148.1,193.3z"/>
	<path class="st5" d="M191.4,170h-7.7c-0.2,0-0.4-0.2-0.4-0.4v0v-8c0-0.2,0.2-0.4,0.4-0.4h0h26.5c0.2,0,0.4,0.2,0.4,0.4l0.1,8
		c0,0.2-0.2,0.4-0.4,0.4c0,0,0,0,0,0h-7.9c-0.2,0-0.4,0.2-0.4,0.4v0l0,24c0,0.2-0.2,0.4-0.4,0.4h-9.5c-0.2,0-0.4-0.2-0.4-0.4v0v-24
		C191.8,170.2,191.6,170,191.4,170L191.4,170z M200.6,168.9c0-0.4,0.3-0.6,0.6-0.6h7c0.4,0,0.7-0.3,0.7-0.6c0,0,0,0,0,0l-0.1-4.2
		c0-0.4-0.3-0.6-0.6-0.6h-22.8c-0.4,0-0.7,0.3-0.7,0.6c0,0,0,0,0,0l0.1,4.2c0,0.4,0.3,0.6,0.6,0.6h7.1c0.4,0,0.6,0.3,0.6,0.6v23.7
		c0,0.4,0.3,0.6,0.6,0.6l5.7,0c0.4,0,0.6-0.3,0.6-0.6L200.6,168.9z"/>
	<path class="st5" d="M262.8,189.5h-9.4c-0.2,0-0.3,0.1-0.4,0.2l-1.6,4.8c-0.1,0.1-0.2,0.2-0.4,0.2h-10.3c-0.2,0-0.4-0.2-0.4-0.4
		c0,0,0-0.1,0-0.1l11.9-32.8c0.1-0.1,0.2-0.2,0.4-0.2h10.9c0.2,0,0.3,0.1,0.4,0.2l11.9,32.8c0.1,0.2,0,0.4-0.2,0.5c0,0-0.1,0-0.1,0
		l-10.4,0c-0.2,0-0.3-0.1-0.3-0.2l-1.6-4.8C263.1,189.6,262.9,189.5,262.8,189.5z M244.9,193.2c1.6,0.2,3.1,0.2,4.7,0
		c0.4,0,0.6-0.2,0.7-0.6c0.4-1.4,0.8-2.7,1.3-4c0.1-0.3,0.4-0.5,0.8-0.5l11.4,0c0.4,0,0.7,0.2,0.8,0.6c0.4,1.3,0.8,2.7,1.3,4
		c0.1,0.4,0.5,0.7,0.9,0.7h6.1c0.3,0,0.5-0.2,0.5-0.5c0-0.1,0-0.1,0-0.2l-10.6-29.3c-0.1-0.3-0.4-0.5-0.7-0.5l-8,0
		c-0.3,0-0.5,0.2-0.6,0.4l-10.6,29.2c-0.2,0.4,0,0.7,0.5,0.8c0.2,0,0.4,0,0.7,0C244.3,193.2,244.6,193.2,244.9,193.2z"/>
	<path class="st5" d="M288,186.5l8.7,0c0.3,0,0.5,0.2,0.5,0.5l0,7.3c0,0.3-0.2,0.5-0.5,0.5h-19.3c-0.3,0-0.5-0.2-0.5-0.5v-32.5
		c0-0.3,0.2-0.5,0.5-0.5h9.5c0.3,0,0.5,0.2,0.5,0.5V186C287.5,186.3,287.7,186.5,288,186.5z M286.8,188c-0.4,0-0.8-0.3-0.8-0.8
		l-0.1-23.7c0-0.4-0.3-0.8-0.8-0.8h0l-5.8,0c-0.4,0-0.8,0.3-0.8,0.8v28.9c0,0.4,0.3,0.8,0.8,0.8h15.6c0.4,0,0.8-0.3,0.8-0.8l0.1-3.7
		c0-0.4-0.3-0.8-0.8-0.8c0,0,0,0,0,0H286.8z"/>
	<path class="st5" d="M310.1,186.5h9c0.2,0,0.4,0.2,0.4,0.4l0,0v7.5c0,0.2-0.2,0.4-0.4,0.4l0,0h-19.5c-0.2,0-0.4-0.2-0.4-0.4l0,0
		v-32.7c0-0.2,0.2-0.4,0.4-0.4l0,0h9.7c0.2,0,0.4,0.2,0.4,0.4l0,0v24.5C309.8,186.4,309.9,186.5,310.1,186.5L310.1,186.5z
		 M300.8,192.6c0,0.4,0.3,0.7,0.7,0.7h0l15.7-0.1c0.4,0,0.7-0.3,0.7-0.7l0.1-3.8c0-0.4-0.3-0.7-0.7-0.7c0,0,0,0,0,0H309
		c-0.4,0-0.7-0.3-0.7-0.7v0v-23.8c0-0.4-0.3-0.7-0.7-0.7h0h-6.1c-0.4,0-0.7,0.3-0.7,0.7v0V192.6z"/>
	<path class="st6" d="M107.8,185.3c3.5,7.2,12-1,4.7-3.6c-5.1-1.9-10.8-3.5-12.1-8c-3.6-12.3,18.6-15.5,22.1-3.9
		c0.2,0.7-0.1,1-0.8,1c-1.4,0-7,0.6-7.5-1.1c-0.1-0.3-0.3-0.6-0.5-0.8c-4.5-3.4-8.3,2.3-4.2,4.8c3,1.8,8.4,2.8,11.1,5.4
		c3.9,3.6,2.7,9.8-1.8,12.4c-6.1,3.5-17.6,2.2-18.8-6.2c-0.1-0.3,0.1-0.5,0.4-0.5l6.4,0C107.3,184.8,107.6,184.9,107.8,185.3z"/>
	<path class="st6" d="M55.5,177.1c-0.4,0.3-0.4,0.8-0.2,1.1c0.1,0.1,0.2,0.2,0.3,0.3c5.3,2.2,6.9,7.9,3.1,12.2
		c-3.4,3.8-16.7,2.6-21.9,2.3c-0.5,0-0.8-0.4-0.8-0.9v-28.5c0-0.4,0.3-0.7,0.7-0.8c5.3-0.1,13.1-0.8,18.2,1c4.8,1.7,6.6,6,4.1,10.5
		c-0.2,0.3-0.4,0.5-0.6,0.7L55.5,177.1z M43.5,168.6l0,6.7c0,0.2,0.1,0.3,0.3,0.3l5.4,0c2,0,3.6-1.5,3.6-3.4c0,0,0,0,0,0v-0.5
		c0-1.9-1.6-3.3-3.6-3.3l-5.4,0C43.6,168.3,43.5,168.4,43.5,168.6z M43.5,180.8l0,6.3c0,0.3,0.2,0.5,0.5,0.5h0l6,0
		c1.9,0,3.5-1.5,3.5-3.4v-0.4c0-1.9-1.6-3.4-3.5-3.4c0,0,0,0,0,0l-6,0C43.7,180.3,43.5,180.5,43.5,180.8L43.5,180.8z"/>
	<path class="st6" d="M73.9,188.4l-1.4,4.4c-0.1,0.2-0.3,0.4-0.6,0.4l-6.3,0c-0.3,0-0.6-0.3-0.6-0.6c0-0.1,0-0.1,0-0.2l10.6-29.2
		c0.1-0.2,0.3-0.4,0.6-0.4l8.1,0c0.3,0,0.5,0.2,0.6,0.4l10.6,29.3c0.1,0.3,0,0.6-0.4,0.8c-0.1,0-0.1,0-0.2,0l-6.3,0
		c-0.3,0-0.5-0.2-0.6-0.4l-1.4-4.4c-0.1-0.2-0.3-0.4-0.6-0.4H74.5C74.2,188,74,188.2,73.9,188.4z M76,182.4c-0.1,0.2,0,0.4,0.2,0.4
		c0,0,0.1,0,0.1,0l8.2,0c0.2,0,0.3-0.1,0.3-0.3c0,0,0-0.1,0-0.1l-4.2-12.5c-0.1-0.2-0.3-0.3-0.4-0.2c-0.1,0-0.2,0.1-0.2,0.2
		L76,182.4z"/>
	<path class="st6" d="M129.5,162.8h6.1c0.4,0,0.7,0.3,0.7,0.7v29c0,0.4-0.3,0.7-0.7,0.7h-6.1c-0.4,0-0.7-0.3-0.7-0.7v-29
		C128.8,163.1,129.1,162.8,129.5,162.8z"/>
	<path class="st6" d="M147.1,192.7l-10-13.9c-0.4-0.5-0.4-1.2,0-1.8l9.7-13.5c0.3-0.5,0.9-0.8,1.5-0.8l6.3,0c0.2,0,0.4,0.2,0.4,0.4
		c0,0.1,0,0.2-0.1,0.2L144.8,177c-0.3,0.4-0.3,0.9,0,1.3l10.8,14.3c0.1,0.2,0.1,0.5-0.1,0.6c-0.1,0.1-0.2,0.1-0.3,0.1h-7.1
		C147.7,193.3,147.3,193.1,147.1,192.7z"/>
	<path class="st6" d="M169.5,187.8h10.4c0.3,0,0.5,0.2,0.5,0.5l0,0l0,4.5c0,0.3-0.2,0.5-0.5,0.5l-17.9,0.1c-0.3,0-0.5-0.2-0.5-0.5
		c0,0,0,0,0,0l0.3-29.6c0-0.3,0.2-0.5,0.5-0.5h17.6c0.3,0,0.5,0.2,0.5,0.5c0,0,0,0,0,0l-0.1,4.8c0,0.3-0.2,0.5-0.5,0.5h-10.4
		c-0.3,0-0.5,0.2-0.5,0.5v5.9c0,0.3,0.2,0.5,0.5,0.5c0,0,0,0,0,0l9,0c0.3,0,0.5,0.2,0.5,0.5l0,0v3.9c0,0.3-0.2,0.5-0.5,0.5h-9
		c-0.3,0-0.5,0.2-0.5,0.5l0.1,6.5C169,187.6,169.2,187.8,169.5,187.8z"/>
	<path class="st6" d="M200.6,168.9l-0.3,23.7c0,0.4-0.3,0.6-0.6,0.6l-5.7,0c-0.4,0-0.6-0.3-0.6-0.6v-23.7c0-0.4-0.3-0.6-0.6-0.6
		h-7.1c-0.4,0-0.6-0.3-0.6-0.6l-0.1-4.2c0-0.4,0.3-0.7,0.6-0.7c0,0,0,0,0,0h22.8c0.4,0,0.6,0.3,0.6,0.6l0.1,4.2
		c0,0.4-0.3,0.7-0.6,0.7c0,0,0,0,0,0h-7C200.9,168.3,200.6,168.6,200.6,168.9z"/>
	<path class="st6" d="M234,176.3c-0.7,0.2-1.1,0.9-0.9,1.6c0.1,0.4,0.5,0.8,0.9,0.9c5.7,1.6,5.9,9.7,1.5,12.6
		c-4.3,2.9-16,2-21.1,1.7c-0.3,0-0.6-0.3-0.6-0.6v-29.2c0-0.2,0.1-0.3,0.3-0.4c6.3-0.5,23.6-2.4,23.7,7.4
		C237.8,173,236.6,175.5,234,176.3z M221.2,168.8l0,6.3c0,0.3,0.2,0.5,0.5,0.5l5.2,0c2,0,3.5-1.5,3.5-3.4c0,0,0,0,0,0v-0.4
		c0-1.9-1.6-3.4-3.5-3.4l-5.2,0C221.5,168.3,221.2,168.5,221.2,168.8C221.2,168.8,221.2,168.8,221.2,168.8z M221.3,180.8l0,6.3
		c0,0.3,0.2,0.5,0.5,0.5c0,0,0,0,0,0l6.1,0c1.9,0,3.4-1.5,3.4-3.5v-0.3c0-1.9-1.5-3.5-3.4-3.5c0,0,0,0,0,0l-6.1,0
		C221.5,180.3,221.3,180.5,221.3,180.8z"/>
	<path class="st6" d="M244,193.2c-0.3,0.1-0.5,0.1-0.7,0c-0.5-0.1-0.6-0.4-0.5-0.8l10.6-29.2c0.1-0.3,0.3-0.4,0.6-0.4l8,0
		c0.4,0,0.6,0.2,0.7,0.5l10.6,29.3c0.1,0.3,0,0.6-0.3,0.7c-0.1,0-0.1,0-0.2,0h-6.1c-0.4,0-0.8-0.3-0.9-0.7c-0.5-1.3-0.9-2.6-1.3-4
		c-0.1-0.4-0.4-0.6-0.8-0.6l-11.4,0c-0.4,0-0.6,0.2-0.8,0.5c-0.5,1.3-1,2.7-1.3,4c-0.1,0.4-0.3,0.6-0.7,0.6c-1.6,0.2-3.2,0.2-4.7,0
		C244.6,193.2,244.3,193.2,244,193.2z M253.7,182.4c-0.1,0.2,0,0.4,0.2,0.4c0,0,0.1,0,0.1,0l8.1-0.1c0.2,0,0.3-0.2,0.3-0.3
		c0,0,0-0.1,0-0.1l-4.2-12.5c-0.1-0.2-0.2-0.3-0.4-0.2c-0.1,0-0.2,0.1-0.2,0.2L253.7,182.4z"/>
	<path class="st6" d="M286.8,188h8.2c0.4,0,0.8,0.3,0.8,0.8c0,0,0,0,0,0l-0.1,3.7c0,0.4-0.4,0.8-0.8,0.8h-15.6
		c-0.4,0-0.8-0.3-0.8-0.8v-28.9c0-0.4,0.3-0.8,0.8-0.8l5.8,0c0.4,0,0.8,0.3,0.8,0.8v0l0.1,23.7C286,187.7,286.4,188,286.8,188z"/>
	<path class="st6" d="M300.8,192.6v-29.1c0-0.4,0.3-0.7,0.7-0.7h0h6.1c0.4,0,0.7,0.3,0.7,0.7v0v23.8c0,0.4,0.3,0.7,0.7,0.7h0h8.3
		c0.4,0,0.7,0.3,0.7,0.7c0,0,0,0,0,0l-0.1,3.8c0,0.4-0.3,0.7-0.7,0.7l-15.7,0.1C301.1,193.3,300.8,193,300.8,192.6L300.8,192.6z"/>
	<path class="st5" d="M43.5,168.6c0-0.2,0.1-0.3,0.3-0.3l5.4,0c2,0,3.6,1.5,3.6,3.3v0.5c0,1.9-1.6,3.4-3.6,3.4c0,0,0,0,0,0l-5.4,0
		c-0.2,0-0.3-0.1-0.3-0.3L43.5,168.6z M45,170.7v2.6c0,0.4,0.3,0.7,0.7,0.7l2.7,0c1.5,0,2.6-0.8,2.6-1.7c0,0,0,0,0,0v-0.6
		c0-0.9-1.2-1.7-2.6-1.7l-2.7,0C45.3,170,45,170.3,45,170.7C45,170.7,45,170.7,45,170.7z"/>
	<path class="st5" d="M221.2,168.8c0-0.3,0.2-0.5,0.5-0.5c0,0,0,0,0,0l5.2,0c2,0,3.5,1.5,3.5,3.4v0.4c0,1.9-1.6,3.4-3.5,3.4
		c0,0,0,0,0,0l-5.2,0c-0.3,0-0.5-0.2-0.5-0.5L221.2,168.8z M222.7,170.9l0.1,2.5c0,0.4,0.4,0.7,0.8,0.7c0,0,0,0,0,0l3-0.1
		c1.2-0.1,2.2-0.9,2.1-1.9l0-0.3c0-1-1.1-1.8-2.3-1.7l-3,0.1C223,170.1,222.7,170.5,222.7,170.9
		C222.7,170.9,222.7,170.9,222.7,170.9z"/>
	<path class="st5" d="M76,182.4l4.1-12.6c0.1-0.2,0.3-0.3,0.4-0.2c0.1,0,0.2,0.1,0.2,0.2l4.2,12.5c0.1,0.2,0,0.4-0.2,0.4
		c0,0-0.1,0-0.1,0l-8.2,0c-0.2,0-0.3-0.1-0.3-0.3C75.9,182.4,75.9,182.4,76,182.4z M80.7,175.1c-0.1-0.2-0.2-0.3-0.4-0.2
		c-0.1,0-0.2,0.1-0.2,0.2l-1.9,5.7c-0.1,0.2,0,0.3,0.2,0.4c0,0,0.1,0,0.1,0l3.7,0c0.2,0,0.3-0.1,0.3-0.3c0,0,0-0.1,0-0.1L80.7,175.1
		z"/>
	<path class="st5" d="M253.7,182.4l4-12.5c0.1-0.2,0.2-0.3,0.4-0.2c0.1,0,0.2,0.1,0.2,0.2l4.2,12.5c0.1,0.2,0,0.4-0.2,0.4
		c0,0-0.1,0-0.1,0l-8.1,0.1c-0.2,0-0.3-0.1-0.3-0.3C253.7,182.4,253.7,182.4,253.7,182.4z M256,180.9c-0.1,0.2,0,0.3,0.2,0.4
		c0,0,0.1,0,0.1,0h3.7c0.2,0,0.3-0.1,0.3-0.3c0,0,0-0.1,0-0.1l-1.8-5.7c0-0.2-0.2-0.3-0.4-0.2c-0.1,0-0.2,0.1-0.2,0.2L256,180.9z"/>
	<path class="st4" d="M45,170.7c0-0.4,0.3-0.7,0.7-0.7c0,0,0,0,0,0l2.7,0c1.5,0,2.6,0.8,2.6,1.7v0.6c0,0.9-1.2,1.7-2.6,1.7
		c0,0,0,0,0,0l-2.7,0c-0.4,0-0.7-0.3-0.7-0.7V170.7z"/>
	<path class="st4" d="M222.7,170.9c0-0.4,0.3-0.7,0.7-0.7c0,0,0,0,0,0l3-0.1c1.2-0.1,2.3,0.7,2.3,1.7l0,0.3c0,1-0.9,1.9-2.1,1.9
		l-3,0.1c-0.4,0-0.7-0.3-0.8-0.7c0,0,0,0,0,0L222.7,170.9z"/>
	<path class="st4" d="M80.7,175.1l1.8,5.7c0,0.2,0,0.3-0.2,0.4c0,0-0.1,0-0.1,0l-3.7,0c-0.2,0-0.3-0.1-0.3-0.3c0,0,0-0.1,0-0.1
		l1.9-5.7c0.1-0.2,0.2-0.3,0.4-0.2C80.6,175,80.6,175,80.7,175.1z"/>
	<path class="st4" d="M256,180.9l1.8-5.7c0-0.2,0.2-0.3,0.4-0.2c0.1,0,0.2,0.1,0.2,0.2l1.8,5.7c0.1,0.2,0,0.3-0.2,0.4
		c0,0-0.1,0-0.1,0h-3.7C256.1,181.3,255.9,181.1,256,180.9C255.9,180.9,256,180.9,256,180.9z"/>
	<path class="st5" d="M43.5,180.8c0-0.3,0.2-0.5,0.5-0.5c0,0,0,0,0,0l6,0c1.9,0,3.5,1.5,3.5,3.4c0,0,0,0,0,0v0.4
		c0,1.9-1.5,3.4-3.5,3.4l-6,0c-0.3,0-0.5-0.2-0.5-0.5l0,0L43.5,180.8z M45,182.3l0,3.1c0,0.3,0.3,0.6,0.6,0.6l2.8,0
		c1.8,0,3.3-0.9,3.3-1.9c0,0,0,0,0,0v-0.4c0-1.1-1.5-2-3.3-2l-2.8,0C45.3,181.7,45,182,45,182.3z"/>
	<path class="st5" d="M221.3,180.8c0-0.3,0.2-0.5,0.5-0.5l6.1,0c1.9,0,3.4,1.6,3.4,3.5c0,0,0,0,0,0v0.3c0,1.9-1.5,3.5-3.4,3.5
		l-6.1,0c-0.3,0-0.5-0.2-0.5-0.5c0,0,0,0,0,0L221.3,180.8z M222.8,182.5l0,2.7c0,0.4,0.3,0.8,0.8,0.8l2.8,0c1.8,0,3.2-0.8,3.2-1.9
		c0,0,0,0,0,0v-0.5c0-1-1.4-1.9-3.2-1.9l-2.8,0C223.1,181.8,222.8,182.1,222.8,182.5z"/>
	<path class="st4" d="M45,182.3c0-0.3,0.3-0.6,0.6-0.6l2.8,0c1.8,0,3.3,0.9,3.3,2v0.4c0,1.1-1.5,2-3.3,2c0,0,0,0,0,0l-2.8,0
		c-0.3,0-0.6-0.3-0.6-0.6L45,182.3z"/>
	<path class="st4" d="M222.8,182.5c0-0.4,0.3-0.8,0.8-0.8l2.8,0c1.8,0,3.2,0.9,3.2,1.9v0.5c0,1-1.4,1.9-3.2,1.9c0,0,0,0,0,0l-2.8,0
		c-0.4,0-0.8-0.3-0.8-0.8L222.8,182.5z"/>
	<path class="st5" d="M133.8,219.6l2.8-7.1c0.1-0.3,0.4-0.4,0.7-0.3c0.1,0,0.1,0.1,0.2,0.1l0.2,0.2c0.1,0.1,0.2,0.3,0.1,0.4
		l-3.4,8.3c-0.2,0.5-0.8,0.8-1.4,0.6c-0.3-0.1-0.5-0.3-0.6-0.6l-3.4-8.6c-0.1-0.2,0-0.5,0.3-0.6c0.2-0.1,0.3,0,0.4,0.1l0.3,0.3
		c0.3,0.3,0.5,0.6,0.6,0.9l2.5,6C133.3,220.2,133.5,220.2,133.8,219.6z"/>
	<path class="st5" d="M141.2,212.4l0.1,0c0.4,0,0.7,0.3,0.7,0.7l0,8.2c0,0.4-0.3,0.7-0.7,0.7l-0.1,0c-0.4,0-0.7-0.3-0.7-0.7l0-8.2
		C140.5,212.7,140.8,212.4,141.2,212.4z"/>
	<path class="st5" d="M151.5,219.7c0.1,0.1,0.2,0.1,0.3,0.1c0.1,0,0.1-0.1,0.1-0.2v-6.8c0-0.3,0.2-0.5,0.5-0.5c0.1,0,0.1,0,0.2,0.1
		c0.9,0.5,0.6,7.7,0.6,8.8c0,0.6-0.5,1-1,1c-0.4,0-0.7-0.2-0.9-0.5l-4.4-7.1c-0.1-0.1-0.2-0.1-0.3-0.1c-0.1,0-0.1,0.1-0.1,0.2
		c0,1,0.5,7.4-0.8,7.4c-0.3,0-0.6-0.3-0.6-0.6l0.3-8.4c0-0.5,0.4-0.9,0.9-0.9c0.3,0,0.6,0.2,0.7,0.4L151.5,219.7z"/>
	<path class="st5" d="M157.8,215.3c0.1,0.9,0.9,6.8-0.7,6.7c-0.4,0-0.7-0.3-0.6-0.7l0-8.4c0-0.5,0.4-0.9,1-0.9
		c0.3,0,0.6,0.2,0.8,0.4l4.3,7c0.1,0.2,0.3,0.2,0.5,0.1c0.1-0.1,0.2-0.2,0.2-0.3l0-5.9c0-0.3,0.1-0.5,0.3-0.7l0.3-0.3
		c0.1-0.2,0.4-0.2,0.6,0c0.1,0.1,0.1,0.2,0.1,0.3l0,8.7c0,0.5-0.4,0.9-1,0.9c-0.3,0-0.6-0.2-0.8-0.4l-4.3-6.7
		c-0.1-0.2-0.3-0.2-0.5-0.1C157.9,215.1,157.8,215.2,157.8,215.3z"/>
	<path class="st5" d="M171.8,216.2l2.7-3.8c0.2-0.3,0.6-0.3,0.9-0.1c0,0,0.1,0.1,0.1,0.1c0.1,0.1,0,0.8,0,0.8
		c-2.3,2.3-3.5,5.1-3.4,8.4c0,0.4-0.2,0.5-0.6,0.5l-0.3,0c-0.3,0-0.4-0.2-0.4-0.5c0.3-4.2-1.6-5.2-3.3-8.6c-0.2-0.4-0.1-0.6,0.4-0.6
		c0.9,0,2.5,3.1,3.2,3.9C171.3,216.5,171.6,216.5,171.8,216.2z"/>
	<path class="st5" d="M180.1,213.5c-1.1,0.1-2.1,0-3.1-0.3c-0.2-0.1-0.3-0.3-0.2-0.4c0-0.1,0.2-0.2,0.3-0.2c2.9-0.2,5.7-0.2,8.6-0.1
		c0.2,0,0.4,0.2,0.4,0.4c0,0.1-0.1,0.3-0.2,0.3c-0.9,0.4-1.8,0.6-2.9,0.4c-0.3-0.1-0.6,0.1-0.7,0.4c0,0,0,0.1,0,0.1v7.4
		c0,0.4-0.2,0.6-0.6,0.6l-0.4,0c-0.3,0-0.5-0.2-0.5-0.5v-7.4C180.8,213.7,180.5,213.5,180.1,213.5
		C180.2,213.5,180.1,213.5,180.1,213.5z"/>
	<path class="st5" d="M193.3,218.3c-2-0.6-6.2-1.1-4.9-4.5c0.1-0.3,0.4-0.6,0.6-0.8c2.2-1.3,4.3-1,6.1,0.7c0.2,0.2,0.2,0.5,0,0.7
		c0,0,0,0,0,0l-0.2,0.2c-0.2,0.2-0.5,0.2-0.7,0c0,0,0,0,0,0c-1.1-1.4-2.5-1.7-4.1-0.8c-0.4,0.2-0.7,0.7-0.5,1.2
		c0.4,1.6,4.8,1.2,5.9,3.2c2.3,4.2-5,4.5-7.4,2.4c-0.2-0.2-0.3-0.5-0.2-0.8l0.2-0.4c0.1-0.2,0.3-0.3,0.5-0.2c0.1,0,0.1,0.1,0.1,0.1
		c1.2,1.7,2.8,2.1,4.8,1.3c0.7-0.3,1-1,0.7-1.7C194,218.7,193.7,218.4,193.3,218.3z"/>
	<path class="st5" d="M199.3,212.3L199.3,212.3c0.5,0,0.8,0.3,0.8,0.7l0.1,8.3c0,0.4-0.3,0.7-0.7,0.7l-0.1,0c-0.4,0-0.7-0.3-0.7-0.7
		l-0.1-8.3C198.7,212.6,199,212.3,199.3,212.3z"/>
	<path class="st5" d="M208.8,219.3h-3.6c-0.3,0-0.5,0.2-0.5,0.5c-0.1,0.9-0.4,1.6-1,2.2c-0.2,0.2-0.6,0.2-0.8-0.1
		c-0.1-0.2-0.2-0.4-0.1-0.6l3.6-8.5c0.2-0.5,0.8-0.7,1.3-0.5c0.2,0.1,0.4,0.3,0.5,0.5l3.6,8.7c0.1,0.3,0,0.5-0.3,0.6
		c-0.2,0.1-0.3,0-0.5-0.1c-0.7-0.5-1.2-1.2-1.3-2.1C209.5,219.6,209.2,219.3,208.8,219.3z M205.6,217.5c-0.1,0.2,0,0.4,0.2,0.5
		c0,0,0.1,0,0.1,0h2.4c0.2,0,0.4-0.2,0.4-0.3c0,0,0-0.1,0-0.1l-1.2-3c-0.1-0.2-0.3-0.3-0.5-0.2c-0.1,0-0.1,0.1-0.2,0.2L205.6,217.5z
		"/>
	<path class="st4" d="M205.6,217.5l1.2-3c0.1-0.2,0.3-0.3,0.5-0.2c0.1,0,0.1,0.1,0.2,0.2l1.2,3c0.1,0.2,0,0.4-0.2,0.5
		c0,0-0.1,0-0.1,0h-2.4c-0.2,0-0.4-0.2-0.4-0.3C205.6,217.6,205.6,217.6,205.6,217.5z"/>
	<ellipse transform="matrix(0.2181 -0.9759 0.9759 0.2181 -116.6887 289.152)" class="st5" cx="122.1" cy="217.4" rx="1.9" ry="2"/>
	
		<ellipse transform="matrix(0.9548 -0.2974 0.2974 0.9548 -54.8446 74.2686)" class="st5" cx="216.7" cy="217.4" rx="1.9" ry="1.9"/>
	<path class="st5" d="M140.4,244.2c-6.3,9.5-19,0.1-12.4-8.5c2.9-3.8,10.1-3.5,12.3,1.4c0.1,0.3,0,0.5-0.3,0.6
		c-3.8,0.9-5.4-4.3-9.3-0.8c-3.3,2.9-1,9.8,4.7,8.3c0.4-0.1,0.6-0.3,0.8-0.6c0.8-1.4,2.1-1.7,3.9-1
		C140.5,243.6,140.6,243.9,140.4,244.2C140.5,244.1,140.5,244.1,140.4,244.2z"/>
	<path class="st5" d="M162.3,233.5c0-0.2,0.1-0.3,0.3-0.3c0,0,0,0,0,0l5.1,0c4.1,0,7.4,3,7.4,6.8v1.3c0,3.7-3.3,6.7-7.4,6.7
		c0,0,0,0,0,0l-5.1,0c-0.2,0-0.3-0.1-0.3-0.3L162.3,233.5z M165.2,236.4l0,8.4c0,0.3,0.3,0.6,0.6,0.6h1.5c2.5,0,4.6-2,4.6-4.6v-0.6
		c0-2.5-2.1-4.5-4.6-4.5c0,0,0,0,0,0h-1.5C165.5,235.8,165.2,236,165.2,236.4C165.2,236.4,165.2,236.4,165.2,236.4z"/>
	<path class="st5" d="M113.2,245.7l-0.6,1.9c-0.1,0.2-0.3,0.4-0.6,0.4h-2c-0.5,0-0.7-0.2-0.5-0.7l4.6-12.7c0.4-1.3,1.8-1.9,3.1-1.5
		c0.7,0.2,1.2,0.8,1.5,1.5l4.5,12.8c0.2,0.5,0,0.7-0.5,0.7l-2,0c-0.5,0-0.7-0.3-0.8-0.7l-0.3-1.4c-0.1-0.4-0.3-0.6-0.7-0.6h-5
		C113.5,245.3,113.3,245.4,113.2,245.7z M116.1,237.3l-1.6,4.9c-0.1,0.2,0.1,0.5,0.3,0.6c0,0,0.1,0,0.1,0h2.9c0.4,0,0.5-0.2,0.4-0.5
		l-1.7-4.9C116.4,236.9,116.3,236.9,116.1,237.3z"/>
	<path class="st5" d="M148.1,245.7l-0.4,1.7c-0.1,0.4-0.4,0.6-0.8,0.6h-2c-0.4,0-0.6-0.2-0.4-0.6l4.6-12.8c0.5-1.2,1.8-1.9,3.1-1.4
		c0.7,0.2,1.2,0.8,1.4,1.4l4.6,12.7c0.2,0.5,0,0.7-0.5,0.7h-2.1c-0.3,0-0.6-0.2-0.7-0.6l-0.3-1.6c-0.1-0.3-0.4-0.6-0.7-0.6h-5.1
		C148.4,245.3,148.2,245.4,148.1,245.7z M151.1,237.7l-1.6,4.3c-0.2,0.5,0,0.7,0.5,0.7h2.7c0.5,0,0.6-0.2,0.5-0.7l-1.5-4.4
		C151.5,237.1,151.3,237.1,151.1,237.7z"/>
	<path class="st5" d="M182.6,245.5h4.8c0.2,0,0.4,0.2,0.4,0.4v1.8c0,0.2-0.2,0.4-0.4,0.4h-7.8c-0.2,0-0.4-0.2-0.4-0.4v-14
		c0-0.2,0.2-0.4,0.4-0.4h7.8c0.2,0,0.4,0.2,0.4,0.4v1.8c0,0.2-0.2,0.4-0.4,0.4c0,0,0,0,0,0l-4.7-0.2c-0.2,0-0.4,0.1-0.4,0.3
		c0,0,0,0,0,0v2.9c0,0.2,0.2,0.4,0.4,0.4h4.3c0.2,0,0.4,0.2,0.4,0.4c0,0,0,0,0,0l0,1.8c0,0.2-0.2,0.4-0.4,0.4c0,0,0,0,0,0l-4.2-0.1
		c-0.2,0-0.4,0.2-0.4,0.4c0,0,0,0,0,0v3.1C182.3,245.4,182.4,245.5,182.6,245.5z"/>
	<path class="st5" d="M195.3,239.6v7.8c0,0.4-0.2,0.6-0.6,0.6h-1.8c-0.4,0-0.6-0.2-0.6-0.6v-13.6c0-0.3,0.2-0.5,0.5-0.5h2.1
		c0.5,0,0.8,0.2,1,0.7l4.1,9.4c0.2,0.5,0.5,0.5,0.7,0l3.9-9.3c0.4-1,1.5-1.4,2.5-1c0.7,0.3,1.1,1,1.1,1.7l0.2,12.5
		c0,0.4-0.3,0.7-0.7,0.7c0,0,0,0,0,0h-1.6c-0.4,0-0.6-0.2-0.6-0.6l-0.1-7.7c0-0.2-0.1-0.3-0.3-0.3c-0.1,0-0.2,0.1-0.3,0.2l-3,7.4
		c-0.3,0.8-1.3,1.3-2.2,0.9c-0.4-0.2-0.7-0.5-0.9-0.9l-3.1-7.6C195.4,238.8,195.3,238.9,195.3,239.6z"/>
	<path class="st5" d="M218.6,239.2l2.6-5.5c0.1-0.3,0.4-0.5,0.7-0.5h2.1c0.5,0,0.7,0.2,0.4,0.7c-1.3,2.5-2.6,5.1-3.9,7.6
		c-1,2-0.7,3.8-0.7,5.9c0,0.4-0.2,0.6-0.6,0.6h-1.9c-0.3,0-0.6-0.3-0.6-0.6c0,0,0,0,0,0c0.1-2.2,0.3-3.9-0.7-5.9
		c-1.3-2.5-2.6-5.1-3.9-7.6c-0.2-0.5-0.1-0.7,0.4-0.7h2c0.4,0,0.7,0.2,0.9,0.6c0.8,1.8,1.6,3.6,2.6,5.3
		C218.2,239.6,218.4,239.6,218.6,239.2z"/>
	<path class="st4" d="M165.2,236.4c0-0.4,0.3-0.6,0.6-0.6c0,0,0,0,0,0h1.5c2.5,0,4.6,2,4.6,4.5c0,0,0,0,0,0v0.6c0,2.5-2,4.5-4.6,4.6
		h-1.5c-0.3,0-0.6-0.3-0.6-0.6L165.2,236.4z"/>
	<path class="st4" d="M116.1,237.3c0.1-0.4,0.3-0.4,0.4,0l1.7,4.9c0.1,0.4,0,0.5-0.4,0.5h-2.9c-0.2,0-0.5-0.2-0.5-0.4
		c0,0,0-0.1,0-0.1L116.1,237.3z"/>
	<path class="st4" d="M151.1,237.7c0.2-0.6,0.4-0.6,0.6,0l1.5,4.4c0.2,0.5,0,0.7-0.5,0.7H150c-0.5,0-0.7-0.2-0.5-0.7L151.1,237.7z"
		/>
</g>
</svg>
