<?xml version="1.0" encoding="utf-8"?>
<!-- Generator: Adobe Illustrator 24.1.1, SVG Export Plug-In . SVG Version: 6.00 Build 0)  -->
<svg version="1.1" id="Layer_1" xmlns="http://www.w3.org/2000/svg" xmlns:xlink="http://www.w3.org/1999/xlink" x="0px" y="0px"
	 viewBox="0 0 512 512" style="enable-background:new 0 0 512 512;" xml:space="preserve">
<style type="text/css">
	.st0{fill-rule:evenodd;clip-rule:evenodd;}
</style>
<g>
	<path class="st0" d="M102.9,52.1C154,41.8,221.3,40.5,267.3,86.4c3,3,4.7,7.1,4.7,11.3v352c0,8.9-7.1,16-16,16
		c-4.3,0-8.3-1.7-11.4-4.7c-27-27-67.7-33.9-111-29.4c-43,4.5-85.1,19.8-110.5,32.4c-7.9,4-17.5,0.8-21.5-7.1L0,449.8v-352
		c0-6,3.4-11.6,8.8-14.3L16,97.8L8.8,83.5l0.1,0L9,83.4l0.4-0.2l7-3.3C44.2,67.5,73.1,58.1,102.9,52.1L102.9,52.1z M32,108v317.1
		c27.1-11,62.2-21.5,98.4-25.2c36.6-3.8,76.4-0.7,109.6,17.9v-313C206,75,155.8,74.1,109.1,83.5C82.6,88.9,56.8,97.1,32,108z"/>
	<path class="st0" d="M409.1,52.1C358,41.8,290.7,40.5,244.7,86.4c-3,3-4.7,7.1-4.7,11.3v352c0,8.9,7.1,16,16,16
		c4.2,0,8.3-1.7,11.4-4.7c27-27,67.7-33.9,111-29.4c43,4.5,85.1,19.8,110.5,32.4c7.9,4,17.5,0.8,21.5-7.1l1.7-7.2v-352
		c0-6-3.4-11.6-8.8-14.3L496,97.8l7.2-14.3l-0.1,0l-0.1-0.1l-0.4-0.2l-1.5-0.7c-8.4-3.9-16.9-7.6-25.6-10.9
		C454,63.2,431.8,56.7,409.1,52.1z M480,108v317.1c-27.1-11-62.2-21.5-98.4-25.2c-36.6-3.8-76.4-0.7-109.6,17.9v-313
		c34-29.7,84.2-30.6,130.9-21.3C429.4,88.9,455.2,97.1,480,108z"/>
</g>
</svg>
