<?xml version="1.0" encoding="utf-8"?>
<!-- Generator: Adobe Illustrator 19.0.0, SVG Export Plug-In . SVG Version: 6.00 Build 0)  -->
<svg version="1.1" id="Layer_1" xmlns="http://www.w3.org/2000/svg" xmlns:xlink="http://www.w3.org/1999/xlink" x="0px" y="0px"
	 viewBox="0 0 512 512" style="enable-background:new 0 0 512 512;" xml:space="preserve">
<g id="XMLID_13_">
	<path id="XMLID_25_" d="M256,0C114.7,0,0,114.7,0,256s114.7,256,256,256s256-114.7,256-256S397.3,0,256,0z M433.3,153.6h-75.9
		c-8.5-32.2-19.9-62.6-35.1-91C369.8,78.7,408.7,110.9,433.3,153.6z M256,52.1c20.9,30.3,37.9,64.5,49.3,101.5h-98.6
		C218.1,116.6,235.1,82.5,256,52.1z M57.8,307.2C54,291.1,51.2,274,51.2,256s2.8-35.1,6.6-51.2h86.3c-1.9,17.1-3.8,34.1-3.8,51.2
		c0,17.1,1.9,34.1,3.8,51.2H57.8z M78.7,358.4h75.9c8.5,32.2,19.9,62.6,35.1,91C142.2,433.3,103.3,401.1,78.7,358.4z M154.5,153.6
		H78.7c24.7-42.7,63.5-74.9,110.9-91C174.5,91,162.1,121.4,154.5,153.6z M256,459.9c-20.9-30.3-37.9-64.5-49.3-101.5h97.7
		C293.9,395.4,276.9,429.5,256,459.9z M315.7,307.2H196.3c-1.9-17.1-3.8-34.1-3.8-51.2s1.9-34.1,3.8-51.2h119.5
		c1.9,17.1,3.8,34.1,3.8,51.2C319.5,273.1,318.6,290.1,315.7,307.2z M322.4,449.4c15.2-28.4,27.5-58.8,35.1-91h75.9
		C408.7,401.1,369.8,433.3,322.4,449.4z M367.9,307.2c1.9-17.1,3.8-34.1,3.8-51.2s-1.9-34.1-3.8-51.2h86.3
		c3.8,16.1,6.6,33.2,6.6,51.2s-2.8,35.1-6.6,51.2H367.9z"/>
</g>
</svg>
