<svg width="1421" height="153" viewBox="0 0 1421 153" fill="none" xmlns="http://www.w3.org/2000/svg">
<path opacity="0.08" d="M0.892865 150V2.99999H29.0329L91.6129 106.74H76.7029L138.233 2.99999H166.373L166.583 150H134.663L134.453 51.93H140.543L91.1929 134.46H76.0729L25.6729 51.93H32.8129V150H0.892865ZM256.65 152.52C245.03 152.52 234.25 150.63 224.31 146.85C214.51 143.07 205.97 137.75 198.69 130.89C191.55 124.03 185.95 115.98 181.89 106.74C177.97 97.5 176.01 87.42 176.01 76.5C176.01 65.58 177.97 55.5 181.89 46.26C185.95 37.02 191.62 28.97 198.9 22.11C206.18 15.25 214.72 9.92999 224.52 6.14999C234.32 2.36999 244.96 0.479997 256.44 0.479997C268.06 0.479997 278.7 2.36999 288.36 6.14999C298.16 9.92999 306.63 15.25 313.77 22.11C321.05 28.97 326.72 37.02 330.78 46.26C334.84 55.36 336.87 65.44 336.87 76.5C336.87 87.42 334.84 97.57 330.78 106.95C326.72 116.19 321.05 124.24 313.77 131.1C306.63 137.82 298.16 143.07 288.36 146.85C278.7 150.63 268.13 152.52 256.65 152.52ZM256.44 123.54C263.02 123.54 269.04 122.42 274.5 120.18C280.1 117.94 285 114.72 289.2 110.52C293.4 106.32 296.62 101.35 298.86 95.61C301.24 89.87 302.43 83.5 302.43 76.5C302.43 69.5 301.24 63.13 298.86 57.39C296.62 51.65 293.4 46.68 289.2 42.48C285.14 38.28 280.31 35.06 274.71 32.82C269.11 30.58 263.02 29.46 256.44 29.46C249.86 29.46 243.77 30.58 238.17 32.82C232.71 35.06 227.88 38.28 223.68 42.48C219.48 46.68 216.19 51.65 213.81 57.39C211.57 63.13 210.45 69.5 210.45 76.5C210.45 83.36 211.57 89.73 213.81 95.61C216.19 101.35 219.41 106.32 223.47 110.52C227.67 114.72 232.57 117.94 238.17 120.18C243.77 122.42 249.86 123.54 256.44 123.54ZM375.936 150V22.95L383.706 30.72H329.106V2.99999H456.576V30.72H401.976L409.536 22.95V150H375.936ZM529.437 152.52C517.817 152.52 507.037 150.63 497.097 146.85C487.297 143.07 478.757 137.75 471.477 130.89C464.337 124.03 458.737 115.98 454.677 106.74C450.757 97.5 448.797 87.42 448.797 76.5C448.797 65.58 450.757 55.5 454.677 46.26C458.737 37.02 464.407 28.97 471.687 22.11C478.967 15.25 487.507 9.92999 497.307 6.14999C507.107 2.36999 517.747 0.479997 529.227 0.479997C540.847 0.479997 551.487 2.36999 561.147 6.14999C570.947 9.92999 579.417 15.25 586.557 22.11C593.837 28.97 599.507 37.02 603.567 46.26C607.627 55.36 609.657 65.44 609.657 76.5C609.657 87.42 607.627 97.57 603.567 106.95C599.507 116.19 593.837 124.24 586.557 131.1C579.417 137.82 570.947 143.07 561.147 146.85C551.487 150.63 540.917 152.52 529.437 152.52ZM529.227 123.54C535.807 123.54 541.827 122.42 547.287 120.18C552.887 117.94 557.787 114.72 561.987 110.52C566.187 106.32 569.407 101.35 571.647 95.61C574.027 89.87 575.217 83.5 575.217 76.5C575.217 69.5 574.027 63.13 571.647 57.39C569.407 51.65 566.187 46.68 561.987 42.48C557.927 38.28 553.097 35.06 547.497 32.82C541.897 30.58 535.807 29.46 529.227 29.46C522.647 29.46 516.557 30.58 510.957 32.82C505.497 35.06 500.667 38.28 496.467 42.48C492.267 46.68 488.977 51.65 486.597 57.39C484.357 63.13 483.237 69.5 483.237 76.5C483.237 83.36 484.357 89.73 486.597 95.61C488.977 101.35 492.197 106.32 496.257 110.52C500.457 114.72 505.357 117.94 510.957 120.18C516.557 122.42 522.647 123.54 529.227 123.54ZM706.844 122.28L699.284 130.05V2.99999H733.094V130.05L725.114 122.28H787.274L779.294 130.05V2.99999H813.104V150H619.064V2.99999H652.874V130.05L645.104 122.28H706.844ZM927.902 150L882.122 79.23L909.632 62.64L966.542 150H927.902ZM832.352 150V2.99999H866.162V150H832.352ZM856.292 90.78V62.43H907.532V90.78H856.292ZM912.782 80.28L881.492 76.5L929.162 2.99999H965.072L912.782 80.28ZM1035.41 152.52C1023.79 152.52 1013.01 150.63 1003.07 146.85C993.274 143.07 984.734 137.75 977.454 130.89C970.314 124.03 964.714 115.98 960.654 106.74C956.734 97.5 954.774 87.42 954.774 76.5C954.774 65.58 956.734 55.5 960.654 46.26C964.714 37.02 970.384 28.97 977.664 22.11C984.944 15.25 993.484 9.92999 1003.28 6.14999C1013.08 2.36999 1023.72 0.479997 1035.2 0.479997C1046.82 0.479997 1057.46 2.36999 1067.12 6.14999C1076.92 9.92999 1085.39 15.25 1092.53 22.11C1099.81 28.97 1105.48 37.02 1109.54 46.26C1113.6 55.36 1115.63 65.44 1115.63 76.5C1115.63 87.42 1113.6 97.57 1109.54 106.95C1105.48 116.19 1099.81 124.24 1092.53 131.1C1085.39 137.82 1076.92 143.07 1067.12 146.85C1057.46 150.63 1046.89 152.52 1035.41 152.52ZM1035.2 123.54C1041.78 123.54 1047.8 122.42 1053.26 120.18C1058.86 117.94 1063.76 114.72 1067.96 110.52C1072.16 106.32 1075.38 101.35 1077.62 95.61C1080 89.87 1081.19 83.5 1081.19 76.5C1081.19 69.5 1080 63.13 1077.62 57.39C1075.38 51.65 1072.16 46.68 1067.96 42.48C1063.9 38.28 1059.07 35.06 1053.47 32.82C1047.87 30.58 1041.78 29.46 1035.2 29.46C1028.62 29.46 1022.53 30.58 1016.93 32.82C1011.47 35.06 1006.64 38.28 1002.44 42.48C998.244 46.68 994.954 51.65 992.574 57.39C990.334 63.13 989.214 69.5 989.214 76.5C989.214 83.36 990.334 89.73 992.574 95.61C994.954 101.35 998.174 106.32 1002.23 110.52C1006.43 114.72 1011.33 117.94 1016.93 120.18C1022.53 122.42 1028.62 123.54 1035.2 123.54ZM1122.41 152.31C1119.89 152.31 1117.23 152.1 1114.43 151.68C1111.77 151.26 1108.83 150.7 1105.61 150L1107.71 121.23C1109.67 121.79 1111.7 122.07 1113.8 122.07C1119.54 122.07 1124.02 119.76 1127.24 115.14C1130.46 110.38 1132.77 103.59 1134.17 94.77C1135.57 85.95 1136.48 75.24 1136.9 62.64L1139 2.99999H1251.98V150H1218.38V22.95L1226.15 30.72H1161.26L1168.19 22.53L1166.93 61.38C1166.51 75.8 1165.53 88.61 1163.99 99.81C1162.45 111.01 1160.07 120.53 1156.85 128.37C1153.63 136.21 1149.22 142.16 1143.62 146.22C1138.02 150.28 1130.95 152.31 1122.41 152.31ZM1255.3 150L1320.82 2.99999H1354.42L1420.15 150H1384.45L1330.69 20.22H1344.13L1290.16 150H1255.3ZM1288.06 118.5L1297.09 92.67H1372.69L1381.93 118.5H1288.06Z" fill="url(#paint0_linear_306_4957)"/>
<defs>
<linearGradient id="paint0_linear_306_4957" x1="702" y1="-68" x2="702" y2="217" gradientUnits="userSpaceOnUse">
<stop stop-color="white"/>
<stop offset="0.880208" stop-color="white" stop-opacity="0"/>
</linearGradient>
</defs>
</svg>
