<?xml version="1.0" encoding="UTF-8" standalone="no"?>
<!DOCTYPE svg PUBLIC "-//W3C//DTD SVG 1.1//EN" "http://www.w3.org/Graphics/SVG/1.1/DTD/svg11.dtd">
<svg xmlns="http://www.w3.org/2000/svg" version="1.1" viewBox="0.00 0.00 500.00 500.00">
<g stroke-width="2.00" fill="none" stroke-linecap="butt">
<path stroke="#999999" vector-effect="non-scaling-stroke" d="
  M 227.49 115.99
  Q 232.79 119.78 234.63 126.01
  Q 234.74 126.38 235.12 126.32
  L 247.42 124.54
  Q 247.79 124.49 247.78 124.12
  L 247.73 112.48
  Q 247.73 111.97 247.22 112.00
  Q 237.13 112.58 227.53 115.73
  A 0.15 0.15 0.0 0 0 227.49 115.99"
/>
<path stroke="#999999" vector-effect="non-scaling-stroke" d="
  M 252.79 111.98
  Q 252.27 111.95 252.27 112.47
  L 252.22 124.12
  Q 252.21 124.50 252.59 124.55
  L 264.68 126.28
  Q 265.20 126.35 265.36 125.85
  Q 267.23 119.97 272.14 116.24
  Q 272.69 115.82 272.03 115.61
  Q 262.65 112.56 252.79 111.98"
/>
<path stroke="#999999" vector-effect="non-scaling-stroke" d="
  M 230.18 127.23
  C 229.20 124.19 224.41 116.84 220.31 118.89
  Q 195.55 131.24 185.68 157.23
  Q 185.43 157.87 185.91 157.38
  Q 204.77 138.12 229.80 128.02
  A 0.64 0.64 0.0 0 0 230.18 127.23"
/>
<path stroke="#999999" vector-effect="non-scaling-stroke" d="
  M 277.63 118.31
  C 274.20 119.97 270.81 123.44 269.86 127.25
  Q 269.71 127.83 270.26 128.05
  Q 295.06 138.12 313.86 157.11
  Q 314.24 157.49 314.05 156.99
  Q 303.95 130.58 278.52 118.31
  Q 278.08 118.09 277.63 118.31"
/>
<path stroke="#808080" vector-effect="non-scaling-stroke" d="
  M 202.28 210.17
  C 200.41 221.47 208.13 233.82 216.94 239.34
  C 226.14 245.11 235.59 247.49 247.20 248.29
  Q 247.80 248.33 247.80 247.72
  L 247.75 235.86"
/>
<path stroke="#999999" vector-effect="non-scaling-stroke" d="
  M 247.75 235.86
  L 247.75 129.68
  A 0.57 0.57 0.0 0 0 247.10 129.11
  L 235.78 130.74
  Q 235.09 130.84 235.05 131.53
  C 233.71 152.79 218.87 173.59 208.47 191.48
  Q 203.67 199.73 202.28 210.17"
/>
<path stroke="#1a1a19" vector-effect="non-scaling-stroke" d="
  M 247.75 235.86
  Q 220.35 231.80 202.28 210.17"
/>
<path stroke="#808080" vector-effect="non-scaling-stroke" d="
  M 252.25 236.34
  L 252.26 247.77
  Q 252.26 248.31 252.80 248.30
  C 269.65 247.72 286.98 241.32 295.15 225.44"
/>
<path stroke="#999999" vector-effect="non-scaling-stroke" d="
  M 295.15 225.44
  C 300.67 213.31 296.82 200.04 289.96 188.76
  C 279.74 171.94 266.15 151.59 264.98 131.44
  A 0.67 0.66 -87.9 0 0 264.42 130.83
  L 253.09 129.14
  Q 252.38 129.03 252.38 129.75
  L 252.25 236.34"
/>
<path stroke="#1a1a19" vector-effect="non-scaling-stroke" d="
  M 295.15 225.44
  Q 275.20 237.58 252.25 236.34"
/>
<path stroke="#808080" vector-effect="non-scaling-stroke" d="
  M 186.86 162.74
  C 184.67 165.04 182.78 166.88 182.39 170.20
  Q 178.55 202.44 199.80 226.60
  Q 200.21 227.07 200.01 226.47
  Q 196.11 214.89 198.48 204.35"
/>
<path stroke="#999999" vector-effect="non-scaling-stroke" d="
  M 198.48 204.35
  C 206.38 179.05 226.75 160.15 230.41 132.99
  Q 230.49 132.40 229.94 132.63
  Q 204.93 143.22 186.86 162.74"
/>
<path stroke="#1a1a19" vector-effect="non-scaling-stroke" d="
  M 198.48 204.35
  Q 185.72 185.74 186.86 162.74"
/>
<path stroke="#808080" vector-effect="non-scaling-stroke" d="
  M 302.12 219.69
  L 300.10 225.94
  Q 299.85 226.69 300.41 226.12
  Q 305.46 220.92 309.07 214.08"
/>
<path stroke="#999999" vector-effect="non-scaling-stroke" d="
  M 309.07 214.08
  Q 320.90 193.39 317.21 169.25
  C 316.84 166.80 315.84 165.77 314.24 164.02
  Q 295.35 143.35 270.07 132.64
  Q 269.57 132.43 269.63 132.97
  C 271.55 152.12 284.88 171.17 294.58 187.67
  Q 301.17 198.89 302.38 211.76
  C 302.60 214.18 302.00 216.88 302.12 219.69"
/>
<path stroke="#1a1a19" vector-effect="non-scaling-stroke" d="
  M 309.07 214.08
  L 302.12 219.69"
/>
<path stroke="#999999" vector-effect="non-scaling-stroke" d="
  M 82.23 346.68
  C 84.88 354.65 90.96 362.05 99.44 364.28
  Q 161.50 380.58 223.57 396.78
  C 236.46 400.15 245.99 401.59 258.12 400.47
  Q 264.70 399.86 277.67 396.48
  Q 339.06 380.48 400.37 364.18
  C 409.91 361.64 416.53 353.01 418.62 343.77
  Q 419.44 340.15 419.48 325.64
  Q 419.65 256.62 419.44 238.07
  C 419.30 226.15 412.66 213.02 400.27 209.79
  Q 365.99 200.86 331.71 191.87
  Q 331.21 191.74 331.11 192.24
  L 329.51 200.21
  Q 329.42 200.64 329.85 200.75
  Q 359.58 208.29 389.41 215.60
  Q 395.34 217.05 398.55 219.15
  C 408.11 225.39 411.47 235.30 410.93 246.69
  Q 410.68 251.95 410.70 254.83
  Q 410.97 292.91 410.75 331.00
  C 410.67 344.74 402.64 355.03 389.51 358.30
  Q 331.50 372.76 273.49 387.24
  C 256.24 391.54 243.32 391.36 225.29 386.88
  Q 169.27 372.96 113.26 358.96
  Q 105.60 357.04 101.83 354.71
  Q 89.28 346.95 89.26 330.99
  Q 89.21 287.21 89.28 243.42
  C 89.30 230.78 95.72 219.43 108.61 216.11
  Q 139.29 208.23 170.24 200.65
  A 0.33 0.31 -13.4 0 0 170.48 200.28
  L 168.83 192.20
  Q 168.75 191.77 168.32 191.88
  Q 134.69 200.67 101.06 209.48
  C 91.44 212.00 85.13 218.49 82.14 227.80
  Q 80.76 232.09 80.76 240.85
  Q 80.72 286.94 80.78 333.02
  Q 80.79 342.32 82.23 346.68"
/>
<path stroke="#999999" vector-effect="non-scaling-stroke" d="
  M 328.54 203.68
  C 302.84 280.92 196.70 281.70 171.52 203.74
  A 0.39 0.39 0.0 0 0 171.05 203.48
  Q 142.06 210.63 113.14 217.90
  Q 105.70 219.77 102.75 221.65
  C 95.41 226.32 91.79 235.07 91.78 243.75
  Q 91.70 285.20 91.78 326.63
  Q 91.80 336.06 93.27 340.30
  C 96.70 350.13 103.32 353.87 113.51 356.40
  Q 169.70 370.41 225.88 384.47
  C 243.11 388.78 256.28 388.77 274.21 384.37
  Q 330.53 370.56 386.81 356.54
  C 405.92 351.78 408.95 339.74 408.49 321.66
  C 407.87 297.23 408.26 272.71 408.22 248.27
  Q 408.20 238.39 406.85 234.27
  C 404.14 226.04 398.58 221.08 390.12 218.68
  C 370.04 212.99 349.51 208.34 329.20 203.32
  Q 328.70 203.19 328.54 203.68"
/>
<path stroke="#999999" vector-effect="non-scaling-stroke" d="
  M 189.47 296.19
  L 188.98 294.69
  Q 188.82 294.20 188.30 294.20
  L 178.48 294.27
  Q 177.98 294.27 178.01 294.78
  C 178.78 307.33 197.74 310.16 203.16 300.28
  C 208.94 289.75 197.44 286.23 190.18 283.30
  A 1.44 1.44 0.0 0 1 190.38 280.57
  Q 191.23 280.36 192.01 280.97
  A 2.07 2.04 9.2 0 1 192.65 281.84
  L 193.04 282.84
  Q 193.21 283.27 193.67 283.27
  L 203.75 283.25
  Q 204.23 283.24 204.20 282.76
  C 202.97 267.61 177.63 268.19 178.33 282.98
  C 178.69 290.54 186.94 292.51 192.59 294.44
  A 1.43 1.42 -57.2 0 1 193.10 296.83
  Q 191.74 298.12 190.03 296.95
  A 1.51 1.46 9.5 0 1 189.47 296.19"
/>
<path stroke="#999999" vector-effect="non-scaling-stroke" d="
  M 250.69 293.02
  L 260.08 292.99
  Q 260.58 292.99 260.57 292.49
  L 260.47 284.98
  Q 260.46 284.50 259.98 284.50
  L 251.20 284.50
  Q 250.63 284.50 250.56 283.94
  L 250.24 281.57
  A 0.50 0.50 0.0 0 1 250.74 281.01
  L 261.25 281.00
  Q 261.75 281.00 261.75 280.50
  L 261.75 272.88
  Q 261.75 272.27 261.13 272.27
  L 240.27 272.22
  Q 239.75 272.22 239.75 272.73
  L 239.75 305.13
  Q 239.75 305.75 240.38 305.75
  L 261.25 305.75
  Q 261.75 305.75 261.75 305.25
  L 261.75 297.50
  Q 261.75 297.00 261.25 297.00
  L 250.97 297.00
  Q 249.98 297.00 250.30 296.06
  Q 250.68 294.93 250.19 293.80
  A 0.56 0.55 77.7 0 1 250.69 293.02"
/>
<path stroke="#999999" vector-effect="non-scaling-stroke" d="
  M 316.09 288.10
  Q 319.73 284.75 319.24 280.33
  C 318.05 269.46 299.75 272.23 292.54 272.23
  Q 292.00 272.23 292.00 272.77
  L 292.00 305.23
  Q 292.00 305.70 292.47 305.70
  Q 303.72 305.87 309.71 305.69
  C 319.36 305.39 323.83 295.73 316.09 288.84
  Q 315.69 288.47 316.09 288.10"
/>
<path stroke="#999999" vector-effect="non-scaling-stroke" d="
  M 138.32 288.11
  Q 141.93 284.83 141.52 280.48
  C 140.47 269.47 121.91 272.15 114.72 272.29
  Q 114.25 272.29 114.25 272.77
  L 114.25 305.24
  Q 114.25 305.72 114.73 305.72
  Q 123.33 305.84 131.95 305.63
  C 141.54 305.40 146.29 295.41 138.34 288.90
  Q 137.87 288.52 138.32 288.11"
/>
<path stroke="#999999" vector-effect="non-scaling-stroke" d="
  M 164.79 300.50
  A 0.39 0.39 0.0 0 1 165.16 300.77
  L 166.70 305.48
  A 0.39 0.39 0.0 0 0 167.07 305.75
  L 177.42 305.75
  A 0.39 0.39 0.0 0 0 177.79 305.23
  L 165.91 272.51
  A 0.39 0.39 0.0 0 0 165.55 272.25
  L 154.69 272.25
  A 0.39 0.39 0.0 0 0 154.33 272.51
  L 142.41 305.23
  A 0.39 0.39 0.0 0 0 142.78 305.75
  L 153.11 305.75
  A 0.39 0.39 0.0 0 0 153.49 305.48
  L 154.98 300.77
  A 0.39 0.39 0.0 0 1 155.36 300.50
  L 164.79 300.50"
/>
<path stroke="#999999" vector-effect="non-scaling-stroke" d="
  M 217.20 305.75
  A 0.30 0.30 0.0 0 0 217.50 305.45
  L 217.50 294.56
  A 0.30 0.30 0.0 0 1 218.04 294.38
  L 226.08 305.62
  A 0.30 0.30 0.0 0 0 226.32 305.75
  L 238.37 305.75
  A 0.30 0.30 0.0 0 0 238.61 305.27
  L 226.30 288.77
  A 0.30 0.30 0.0 0 1 226.31 288.41
  L 238.10 272.73
  A 0.30 0.30 0.0 0 0 237.86 272.25
  L 226.28 272.25
  A 0.30 0.30 0.0 0 0 226.04 272.38
  L 218.04 283.52
  A 0.30 0.30 0.0 0 1 217.50 283.35
  L 217.50 272.55
  A 0.30 0.30 0.0 0 0 217.20 272.25
  L 207.30 272.25
  A 0.30 0.30 0.0 0 0 207.00 272.55
  L 207.00 305.45
  A 0.30 0.30 0.0 0 0 207.30 305.75
  L 217.20 305.75"
/>
<path stroke="#999999" vector-effect="non-scaling-stroke" d="
  M 271.11 281.00
  A 0.39 0.39 0.0 0 1 271.50 281.39
  L 271.50 305.36
  A 0.39 0.39 0.0 0 0 271.89 305.75
  L 281.41 305.75
  A 0.39 0.39 0.0 0 0 281.80 305.36
  L 281.75 281.39
  A 0.39 0.39 0.0 0 1 282.14 281.00
  L 290.03 281.00
  A 0.39 0.39 0.0 0 0 290.42 280.60
  L 290.32 272.63
  A 0.39 0.39 0.0 0 0 289.93 272.25
  L 263.39 272.25
  A 0.39 0.39 0.0 0 0 263.00 272.64
  L 263.00 280.61
  A 0.39 0.39 0.0 0 0 263.39 281.00
  L 271.11 281.00"
/>
<path stroke="#999999" vector-effect="non-scaling-stroke" d="
  M 342.53 300.50
  A 0.37 0.37 0.0 0 1 342.88 300.75
  L 344.48 305.50
  A 0.37 0.37 0.0 0 0 344.83 305.75
  L 355.18 305.76
  A 0.37 0.37 0.0 0 0 355.53 305.26
  L 343.68 272.49
  A 0.37 0.37 0.0 0 0 343.33 272.25
  L 332.44 272.25
  A 0.37 0.37 0.0 0 0 332.09 272.49
  L 320.16 305.25
  A 0.37 0.37 0.0 0 0 320.51 305.75
  L 330.79 305.75
  A 0.37 0.37 0.0 0 0 331.14 305.50
  L 332.77 300.75
  A 0.37 0.37 0.0 0 1 333.12 300.50
  L 342.53 300.50"
/>
<path stroke="#999999" vector-effect="non-scaling-stroke" d="
  M 367.75 297.50
  A 0.50 0.50 0.0 0 1 367.25 297.00
  L 367.25 272.75
  A 0.50 0.50 0.0 0 0 366.75 272.25
  L 357.25 272.25
  A 0.50 0.50 0.0 0 0 356.75 272.75
  L 356.75 305.25
  A 0.50 0.50 0.0 0 0 357.25 305.75
  L 376.52 305.75
  A 0.50 0.50 0.0 0 0 377.02 305.25
  L 376.97 297.99
  A 0.50 0.50 0.0 0 0 376.47 297.49
  L 367.75 297.50"
/>
<path stroke="#999999" vector-effect="non-scaling-stroke" d="
  M 389.88 297.50
  A 0.38 0.38 0.0 0 1 389.50 297.12
  L 389.50 272.63
  A 0.38 0.38 0.0 0 0 389.12 272.25
  L 379.38 272.25
  A 0.38 0.38 0.0 0 0 379.00 272.63
  L 379.00 305.37
  A 0.38 0.38 0.0 0 0 379.38 305.75
  L 398.87 305.75
  A 0.38 0.38 0.0 0 0 399.25 305.37
  L 399.25 297.88
  A 0.38 0.38 0.0 0 0 398.87 297.50
  L 389.88 297.50"
/>
<path stroke="#999999" vector-effect="non-scaling-stroke" d="
  M 212.83 330.58
  L 210.36 324.54
  Q 210.16 324.03 209.76 323.64
  L 209.43 323.31
  A 0.43 0.43 0.0 0 0 208.73 323.77
  L 212.15 332.32
  A 1.05 1.05 0.0 0 0 214.10 332.33
  L 217.52 324.00
  A 0.41 0.41 0.0 0 0 217.43 323.56
  L 217.19 323.31
  A 0.51 0.50 -56.4 0 0 216.37 323.48
  L 213.52 330.58
  Q 213.17 331.44 212.83 330.58"
/>
<path stroke="#999999" vector-effect="non-scaling-stroke" d="
  M 221.7644 324.0427
  A 0.71 0.71 0.0 0 0 221.0569 323.3302
  L 220.9369 323.3298
  A 0.71 0.71 0.0 0 0 220.2244 324.0373
  L 220.1956 332.2773
  A 0.71 0.71 0.0 0 0 220.9031 332.9898
  L 221.0231 332.9902
  A 0.71 0.71 0.0 0 0 221.7356 332.2827
  L 221.7644 324.0427"
/>
<path stroke="#999999" vector-effect="non-scaling-stroke" d="
  M 231.29 330.67
  L 226.83 323.61
  A 0.89 0.89 0.0 0 0 225.19 324.06
  L 224.93 332.41
  A 0.60 0.59 2.5 0 0 225.50 333.02
  C 226.81 333.07 226.35 326.65 226.34 325.65
  A 0.20 0.20 0.0 0 1 226.71 325.54
  L 231.08 332.62
  A 1.03 1.03 0.0 0 0 232.99 332.09
  C 233.01 331.05 233.35 323.81 232.43 323.33
  A 0.47 0.46 13.5 0 0 231.75 323.74
  L 231.75 330.53
  A 0.25 0.25 0.0 0 1 231.29 330.67"
/>
<path stroke="#999999" vector-effect="non-scaling-stroke" d="
  M 237.55 326.28
  A 0.34 0.34 0.0 0 1 238.17 326.06
  L 242.51 332.75
  A 0.95 0.95 0.0 0 0 244.25 332.23
  L 244.24 323.58
  A 0.39 0.39 0.0 0 0 243.57 323.30
  L 243.29 323.58
  Q 243.01 323.87 243.00 324.28
  L 242.99 330.22
  A 0.36 0.36 0.0 0 1 242.32 330.41
  L 238.01 323.42
  A 0.95 0.95 0.0 0 0 236.26 323.92
  L 236.25 332.28
  A 0.69 0.69 0.0 0 0 236.90 332.97
  C 238.43 333.07 237.65 327.21 237.55 326.28"
/>
<path stroke="#999999" vector-effect="non-scaling-stroke" d="
  M 250.83 327.19
  C 250.15 326.41 248.54 323.33 247.64 323.30
  Q 246.91 323.27 247.24 323.93
  C 248.95 327.29 250.81 328.27 250.51 332.48
  Q 250.48 332.91 250.91 332.96
  L 251.20 333.00
  Q 251.75 333.08 251.75 332.52
  Q 251.69 327.64 255.18 324.16
  C 255.21 324.14 255.25 323.47 255.17 323.37
  A 0.61 0.61 0.0 0 0 254.21 323.40
  L 251.55 327.15
  Q 251.22 327.63 250.83 327.19"
/>
<path stroke="#999999" vector-effect="non-scaling-stroke" d="
  M 260.50 325.03
  L 260.50 332.44
  Q 260.50 332.94 261.00 332.97
  L 261.35 333.00
  Q 262.00 333.05 262.00 332.40
  L 262.00 325.02
  A 0.57 0.57 0.0 0 1 262.68 324.46
  Q 264.19 324.76 265.53 324.10
  A 0.36 0.36 0.0 0 0 265.38 323.41
  Q 261.11 323.27 256.82 323.51
  A 0.34 0.34 0.0 0 0 256.73 324.17
  Q 258.26 324.68 259.86 324.47
  A 0.57 0.56 86.0 0 1 260.50 325.03"
/>
<path stroke="#999999" vector-effect="non-scaling-stroke" d="
  M 268.14 324.76
  C 266.87 328.11 271.10 328.66 273.08 329.25
  A 1.29 1.29 0.0 0 1 273.19 331.68
  Q 270.24 332.88 268.40 330.38
  A 0.37 0.37 0.0 0 0 267.77 330.44
  L 267.60 330.80
  A 0.69 0.68 33.8 0 0 267.77 331.62
  C 270.18 333.74 277.44 333.44 275.13 329.20
  C 274.05 327.23 269.65 327.64 269.28 326.03
  A 1.13 1.07 70.4 0 1 269.82 324.80
  Q 272.28 323.49 273.97 325.63
  A 0.50 0.49 -41.4 0 0 274.71 325.67
  L 274.94 325.44
  A 0.53 0.53 0.0 0 0 274.92 324.68
  Q 272.12 322.12 268.79 324.00
  A 1.49 1.46 86.1 0 0 268.14 324.76"
/>
<path stroke="#999999" vector-effect="non-scaling-stroke" d="
  M 279.8844 323.9590
  A 0.68 0.68 0.0 0 0 279.1938 323.2898
  L 279.0938 323.2914
  A 0.68 0.68 0.0 0 0 278.4246 323.9820
  L 278.5556 332.3210
  A 0.68 0.68 0.0 0 0 279.2462 332.9902
  L 279.3462 332.9886
  A 0.68 0.68 0.0 0 0 280.0154 332.2980
  L 279.8844 323.9590"
/>
<path stroke="#999999" vector-effect="non-scaling-stroke" d="
  M 289.33 330.91
  Q 289.57 332.28 290.65 333.06
  A 0.49 0.48 -83.4 0 0 291.38 332.48
  L 287.83 323.77
  A 0.96 0.96 0.0 0 0 286.05 323.76
  L 282.49 332.28
  A 0.58 0.58 0.0 0 0 283.41 332.93
  Q 284.35 332.09 284.44 330.77
  A 0.55 0.55 0.0 0 1 284.99 330.25
  L 288.55 330.25
  A 0.79 0.79 0.0 0 1 289.33 330.91"
/>
<path stroke="#999999" vector-effect="non-scaling-stroke" d="
  M 203.8216 328.8185
  A 2.01 1.88 12.6 0 0 202.2701 326.5453
  A 2.01 1.88 12.6 0 0 199.8984 327.9415
  A 2.01 1.88 12.6 0 0 201.4499 330.2147
  A 2.01 1.88 12.6 0 0 203.8216 328.8185"
/>
<path stroke="#999999" vector-effect="non-scaling-stroke" d="
  M 298.2531 327.7990
  A 1.92 1.85 -17.3 0 0 295.8699 326.6037
  A 1.92 1.85 -17.3 0 0 294.5869 328.9410
  A 1.92 1.85 -17.3 0 0 296.9701 330.1363
  A 1.92 1.85 -17.3 0 0 298.2531 327.7990"
/>
<path stroke="#999999" vector-effect="non-scaling-stroke" d="
  M 207.80 346.67
  C 201.18 355.23 213.90 364.62 220.19 355.15
  A 0.43 0.43 0.0 0 0 219.99 354.51
  Q 217.31 353.41 216.09 355.50
  Q 215.81 355.99 215.26 356.14
  C 209.58 357.66 207.22 350.76 210.54 347.84
  C 214.47 344.39 216.02 349.58 219.83 348.67
  Q 220.32 348.55 220.12 348.10
  C 217.93 343.21 210.74 342.86 207.80 346.67"
/>
<path stroke="#999999" vector-effect="non-scaling-stroke" d="
  M 242.02 344.48
  L 241.98 358.70
  A 0.30 0.30 0.0 0 0 242.27 359.00
  L 247.34 359.02
  A 7.39 6.75 0.2 0 0 254.76 352.29
  L 254.76 350.97
  A 7.39 6.75 0.2 0 0 247.40 344.20
  L 242.33 344.18
  A 0.30 0.30 0.0 0 0 242.02 344.48"
/>
<path stroke="#999999" vector-effect="non-scaling-stroke" d="
  M 193.57 356.25
  L 198.61 356.25
  Q 199.22 356.25 199.34 356.85
  L 199.61 358.24
  Q 199.74 358.93 200.44 358.95
  L 202.44 359.00
  Q 203.17 359.02 202.93 358.33
  L 198.38 345.58
  A 2.41 2.41 0.0 0 0 193.84 345.58
  L 189.29 358.29
  Q 189.04 358.99 189.78 358.99
  L 191.79 358.99
  A 0.61 0.60 -80.5 0 0 192.36 358.57
  L 192.99 356.67
  Q 193.13 356.25 193.57 356.25"
/>
<path stroke="#999999" vector-effect="non-scaling-stroke" d="
  M 228.47 356.25
  L 233.61 356.25
  A 0.74 0.73 84.2 0 1 234.33 356.84
  L 234.66 358.43
  A 0.72 0.71 84.0 0 0 235.36 359.00
  L 237.47 359.00
  Q 238.21 359.00 237.96 358.30
  L 233.36 345.59
  A 2.39 2.39 0.0 0 0 228.87 345.59
  L 224.23 358.40
  Q 224.02 359.00 224.65 359.00
  L 226.63 359.00
  A 0.86 0.86 0.0 0 0 227.46 358.36
  L 227.89 356.70
  Q 228.00 356.25 228.47 356.25"
/>
<path stroke="#999999" vector-effect="non-scaling-stroke" d="
  M 262.37 356.50
  A 0.37 0.37 0.0 0 1 262.00 356.13
  L 262.00 353.07
  A 0.37 0.37 0.0 0 1 262.38 352.70
  L 266.59 352.78
  A 0.37 0.37 0.0 0 0 266.97 352.42
  L 267.01 350.63
  A 0.37 0.37 0.0 0 0 266.64 350.25
  L 262.37 350.25
  A 0.37 0.37 0.0 0 1 262.00 349.88
  L 262.00 346.98
  A 0.37 0.37 0.0 0 1 262.39 346.61
  L 267.11 346.82
  A 0.37 0.37 0.0 0 0 267.50 346.45
  L 267.50 344.62
  A 0.37 0.37 0.0 0 0 267.13 344.25
  L 259.37 344.25
  A 0.37 0.37 0.0 0 0 259.00 344.62
  L 259.00 358.63
  A 0.37 0.37 0.0 0 0 259.37 359.00
  L 267.13 359.00
  A 0.37 0.37 0.0 0 0 267.50 358.63
  L 267.50 356.87
  A 0.37 0.37 0.0 0 0 267.13 356.50
  L 262.37 356.50"
/>
<path stroke="#999999" vector-effect="non-scaling-stroke" d="
  M 275.41 350.48
  L 278.52 358.04
  A 1.66 1.66 0.0 0 0 281.59 358.03
  L 284.57 350.61
  A 0.31 0.31 0.0 0 1 285.17 350.72
  L 285.26 358.42
  Q 285.26 359.00 285.85 359.00
  L 287.47 359.00
  A 0.72 0.71 -0.4 0 0 288.19 358.28
  L 287.97 345.77
  A 1.88 1.88 0.0 0 0 284.36 345.07
  L 280.41 354.36
  Q 280.06 355.18 279.71 354.36
  L 275.63 344.91
  Q 275.35 344.25 274.62 344.25
  L 272.50 344.25
  Q 272.00 344.25 272.00 344.75
  L 272.00 358.37
  Q 272.00 359.00 272.63 359.00
  L 274.38 359.00
  Q 275.00 359.00 275.00 358.37
  L 275.00 350.56
  Q 275.00 349.49 275.41 350.48"
/>
<path stroke="#999999" vector-effect="non-scaling-stroke" d="
  M 297.73 350.19
  Q 296.34 347.58 295.16 344.85
  Q 294.90 344.25 294.24 344.25
  L 292.26 344.25
  Q 291.48 344.25 291.85 344.94
  Q 293.84 348.72 295.78 352.52
  C 296.79 354.51 296.54 356.27 296.49 358.42
  A 0.57 0.57 0.0 0 0 297.06 359.00
  L 298.94 359.00
  Q 299.51 359.00 299.51 358.42
  C 299.48 356.27 299.18 354.49 300.22 352.49
  Q 302.17 348.73 304.16 344.93
  Q 304.51 344.25 303.74 344.25
  L 301.65 344.25
  Q 301.15 344.25 300.93 344.70
  L 298.35 350.17
  Q 298.06 350.80 297.73 350.19"
/>
<path stroke="#f7b382" vector-effect="non-scaling-stroke" d="
  M 192.24 292.59
  C 199.48 295.28 191.01 303.44 187.51 296.23
  Q 187.27 295.73 186.72 295.74
  L 180.31 295.78
  Q 179.80 295.78 179.88 296.29
  C 181.13 304.64 192.65 305.99 198.71 302.49
  C 203.15 299.92 204.32 293.75 200.46 290.10
  C 197.70 287.47 192.32 286.49 189.32 284.69
  C 185.17 282.19 189.03 276.45 193.51 279.86
  Q 193.89 280.16 194.02 280.63
  C 194.49 282.38 200.10 281.76 201.49 281.74
  Q 202.54 281.72 202.24 280.71
  C 198.72 269.09 176.53 272.32 180.10 284.61
  C 181.41 289.12 187.16 290.70 192.24 292.59"
/>
<path stroke="#f7b382" vector-effect="non-scaling-stroke" d="
  M 249.22 298.75
  A 0.49 0.49 0.0 0 1 248.73 298.26
  L 248.68 291.74
  A 0.49 0.49 0.0 0 1 249.17 291.25
  L 258.16 291.25
  A 0.49 0.49 0.0 0 0 258.65 290.76
  L 258.65 286.85
  A 0.49 0.49 0.0 0 0 258.16 286.36
  L 249.20 286.35
  A 0.49 0.49 0.0 0 1 248.71 285.86
  L 248.71 279.99
  A 0.49 0.49 0.0 0 1 249.20 279.50
  L 259.60 279.50
  A 0.49 0.49 0.0 0 0 260.09 279.02
  L 260.17 274.25
  A 0.49 0.49 0.0 0 0 259.68 273.75
  L 242.03 273.75
  A 0.49 0.49 0.0 0 0 241.54 274.24
  L 241.25 303.84
  A 0.49 0.49 0.0 0 0 241.75 304.34
  L 259.62 304.21
  A 0.49 0.49 0.0 0 0 260.11 303.72
  L 260.10 299.24
  A 0.49 0.49 0.0 0 0 259.61 298.75
  L 249.22 298.75"
/>
<path stroke="#f7b382" vector-effect="non-scaling-stroke" d="
  M 313.72 287.31
  C 316.37 286.52 317.57 283.97 317.54 281.30
  C 317.43 271.57 300.13 273.42 293.84 273.92
  Q 293.50 273.94 293.50 274.28
  L 293.50 303.50
  A 0.63 0.62 -88.6 0 0 294.09 304.13
  C 299.16 304.42 310.94 305.27 315.20 302.41
  C 319.62 299.44 319.45 291.35 313.75 289.78
  A 1.29 1.28 44.4 0 1 313.72 287.31"
/>
<path stroke="#f7b382" vector-effect="non-scaling-stroke" d="
  M 135.26 288.04
  L 138.12 285.97
  Q 138.51 285.69 138.74 285.28
  C 141.28 280.78 139.47 276.45 134.66 274.75
  C 129.63 272.97 121.78 273.70 116.49 273.79
  A 0.76 0.76 0.0 0 0 115.75 274.55
  L 115.75 303.02
  A 0.85 0.85 0.0 0 0 116.56 303.87
  C 121.76 304.16 135.06 305.37 138.50 301.59
  C 142.37 297.33 140.73 291.60 135.42 289.42
  A 0.80 0.79 -51.8 0 1 135.26 288.04"
/>
<path stroke="#f7b382" vector-effect="non-scaling-stroke" d="
  M 153.65 299.41
  A 0.59 0.59 0.0 0 1 154.21 299.00
  L 166.00 299.00
  A 0.59 0.59 0.0 0 1 166.56 299.41
  L 167.97 303.85
  A 0.59 0.59 0.0 0 0 168.53 304.26
  L 174.82 304.24
  A 0.59 0.59 0.0 0 0 175.37 303.45
  L 164.73 274.12
  A 0.59 0.59 0.0 0 0 164.17 273.73
  L 156.02 273.78
  A 0.59 0.59 0.0 0 0 155.47 274.17
  L 144.83 303.41
  A 0.59 0.59 0.0 0 0 145.38 304.21
  L 151.68 304.25
  A 0.59 0.59 0.0 0 0 152.24 303.84
  L 153.65 299.41"
/>
<path stroke="#f7b382" vector-effect="non-scaling-stroke" d="
  M 216.02 274.49
  A 0.73 0.73 0.0 0 0 215.29 273.76
  L 209.23 273.76
  A 0.73 0.73 0.0 0 0 208.50 274.49
  L 208.50 303.51
  A 0.73 0.73 0.0 0 0 209.23 304.24
  L 215.29 304.24
  A 0.73 0.73 0.0 0 0 216.02 303.51
  L 216.02 274.49"
/>
<path stroke="#f7b382" vector-effect="non-scaling-stroke" d="
  M 227.86 304.25
  L 234.93 304.25
  A 0.43 0.42 71.7 0 0 235.27 303.57
  L 224.50 289.24
  Q 224.02 288.60 224.50 287.96
  L 234.74 274.44
  A 0.43 0.43 0.0 0 0 234.40 273.76
  L 228.05 273.75
  A 1.82 1.80 -71.8 0 0 226.56 274.51
  L 216.85 288.04
  A 1.52 1.50 -45.2 0 0 216.85 289.81
  L 226.82 303.72
  Q 227.20 304.25 227.86 304.25"
/>
<path stroke="#f7b382" vector-effect="non-scaling-stroke" d="
  M 280.31 279.89
  A 0.65 0.65 0.0 0 1 280.96 279.25
  L 287.98 279.25
  A 0.65 0.65 0.0 0 0 288.63 278.58
  L 288.53 274.38
  A 0.65 0.65 0.0 0 0 287.88 273.75
  L 265.13 273.75
  A 0.65 0.65 0.0 0 0 264.48 274.42
  L 264.57 278.62
  A 0.65 0.65 0.0 0 0 265.22 279.25
  L 272.35 279.25
  A 0.65 0.65 0.0 0 1 273.00 279.90
  L 273.00 303.59
  A 0.65 0.65 0.0 0 0 273.65 304.24
  L 279.38 304.26
  A 0.65 0.65 0.0 0 0 280.03 303.62
  L 280.31 279.89"
/>
<path stroke="#f7b382" vector-effect="non-scaling-stroke" d="
  M 324.67 304.19
  Q 327.00 304.46 329.39 304.15
  Q 329.95 304.08 330.09 303.54
  Q 330.64 301.51 331.41 299.52
  Q 331.61 299.01 332.17 299.01
  L 343.57 299.00
  Q 344.21 299.00 344.38 299.61
  Q 344.96 301.61 345.66 303.59
  A 0.98 0.97 80.3 0 0 346.58 304.25
  L 352.64 304.25
  A 0.54 0.53 80.0 0 0 353.14 303.53
  L 342.56 274.25
  Q 342.37 273.74 341.82 273.74
  L 333.82 273.78
  A 0.67 0.67 0.0 0 0 333.19 274.22
  L 322.55 303.43
  Q 322.30 304.10 323.01 304.24
  Q 323.33 304.30 323.71 304.22
  A 3.16 3.06 -45.9 0 1 324.67 304.19"
/>
<path stroke="#f7b382" vector-effect="non-scaling-stroke" d="
  M 366.57 299.00
  A 0.78 0.78 0.0 0 1 365.79 298.22
  L 365.64 274.52
  A 0.78 0.78 0.0 0 0 364.86 273.74
  L 359.03 273.76
  A 0.78 0.78 0.0 0 0 358.25 274.54
  L 358.25 303.47
  A 0.78 0.78 0.0 0 0 359.03 304.25
  L 374.68 304.25
  A 0.78 0.78 0.0 0 0 375.46 303.48
  L 375.52 299.79
  A 0.78 0.78 0.0 0 0 374.74 299.00
  L 366.57 299.00"
/>
<path stroke="#f7b382" vector-effect="non-scaling-stroke" d="
  M 380.50 303.56
  A 0.70 0.70 0.0 0 0 381.20 304.26
  L 396.90 304.19
  A 0.70 0.70 0.0 0 0 397.60 303.51
  L 397.69 299.72
  A 0.70 0.70 0.0 0 0 396.99 299.00
  L 388.70 299.00
  A 0.70 0.70 0.0 0 1 388.00 298.30
  L 388.00 274.45
  A 0.70 0.70 0.0 0 0 387.30 273.75
  L 381.20 273.75
  A 0.70 0.70 0.0 0 0 380.50 274.45
  L 380.50 303.56"
/>
<path stroke="#f7b382" vector-effect="non-scaling-stroke" d="
  M 123.24 279.57
  L 123.26 286.25
  A 0.28 0.28 0.0 0 0 123.54 286.53
  L 128.94 286.51
  A 3.58 3.36 -0.2 0 0 132.51 283.13
  L 132.51 282.61
  A 3.58 3.36 -0.2 0 0 128.92 279.27
  L 123.52 279.29
  A 0.28 0.28 0.0 0 0 123.24 279.57"
/>
<path stroke="#f7b382" vector-effect="non-scaling-stroke" d="
  M 123.24 291.78
  L 123.26 298.06
  A 0.48 0.48 0.0 0 0 123.74 298.54
  L 129.77 298.53
  A 3.47 3.43 -0.1 0 0 133.23 295.09
  L 133.23 294.71
  A 3.47 3.43 -0.1 0 0 129.75 291.29
  L 123.72 291.30
  A 0.48 0.48 0.0 0 0 123.24 291.78"
/>
<path stroke="#f7b382" vector-effect="non-scaling-stroke" d="
  M 155.70 293.33
  A 0.33 0.33 0.0 0 0 156.02 293.76
  L 164.24 293.74
  A 0.33 0.33 0.0 0 0 164.55 293.30
  L 160.39 280.76
  A 0.33 0.33 0.0 0 0 159.77 280.76
  L 155.70 293.33"
/>
<path stroke="#f7b382" vector-effect="non-scaling-stroke" d="
  M 300.99 279.78
  L 301.01 286.06
  A 0.48 0.48 0.0 0 0 301.49 286.53
  L 306.71 286.52
  A 3.54 3.42 -0.2 0 0 310.24 283.08
  L 310.24 282.68
  A 3.54 3.42 -0.2 0 0 306.69 279.28
  L 301.47 279.29
  A 0.48 0.48 0.0 0 0 300.99 279.78"
/>
<path stroke="#f7b382" vector-effect="non-scaling-stroke" d="
  M 301.01 291.73
  L 300.99 298.03
  A 0.48 0.48 0.0 0 0 301.47 298.51
  L 307.58 298.54
  A 3.48 3.39 -89.8 0 0 310.98 295.07
  L 310.98 294.77
  A 3.48 3.39 -89.8 0 0 307.60 291.28
  L 301.49 291.25
  A 0.48 0.48 0.0 0 0 301.01 291.73"
/>
<path stroke="#f7b382" vector-effect="non-scaling-stroke" d="
  M 333.49 293.35
  A 0.34 0.34 0.0 0 0 333.82 293.79
  L 341.96 293.72
  A 0.34 0.34 0.0 0 0 342.28 293.27
  L 338.10 280.81
  A 0.34 0.34 0.0 0 0 337.45 280.82
  L 333.49 293.35"
/>
<path stroke="#999999" vector-effect="non-scaling-stroke" d="
  M 124.74 281.71
  L 124.74 284.27
  A 0.73 0.73 0.0 0 0 125.46 285.00
  L 128.11 285.01
  A 2.64 1.72 0.2 0 0 130.76 283.30
  L 130.76 282.72
  A 2.64 1.72 0.2 0 0 128.13 280.99
  L 125.48 280.98
  A 0.73 0.73 0.0 0 0 124.74 281.71"
/>
<path stroke="#999999" vector-effect="non-scaling-stroke" d="
  M 302.46 281.84
  L 302.58 284.36
  A 0.72 0.72 0.0 0 0 303.34 285.04
  L 306.36 284.90
  A 2.23 1.84 -2.7 0 0 308.50 282.96
  L 308.49 282.68
  A 2.23 1.84 -2.7 0 0 306.18 280.95
  L 303.15 281.09
  A 0.72 0.72 0.0 0 0 302.46 281.84"
/>
<path stroke="#999999" vector-effect="non-scaling-stroke" d="
  M 160.40 286.11
  A 0.31 0.31 0.0 0 0 159.81 286.11
  L 157.93 291.85
  A 0.31 0.31 0.0 0 0 158.23 292.26
  L 161.90 292.23
  A 0.31 0.31 0.0 0 0 162.19 291.83
  L 160.40 286.11"
/>
<path stroke="#999999" vector-effect="non-scaling-stroke" d="
  M 335.71 291.84
  A 0.31 0.31 0.0 0 0 336.00 292.25
  L 339.68 292.25
  A 0.31 0.31 0.0 0 0 339.97 291.84
  L 338.14 286.10
  A 0.31 0.31 0.0 0 0 337.54 286.10
  L 335.71 291.84"
/>
<path stroke="#999999" vector-effect="non-scaling-stroke" d="
  M 124.75 293.31
  L 124.73 296.41
  A 0.59 0.59 0.0 0 0 125.32 297.00
  L 128.15 297.01
  A 3.34 1.96 0.2 0 0 131.50 295.06
  L 131.50 294.70
  A 3.34 1.96 0.2 0 0 128.17 292.73
  L 125.34 292.72
  A 0.59 0.59 0.0 0 0 124.75 293.31"
/>
<path stroke="#999999" vector-effect="non-scaling-stroke" d="
  M 302.53 293.50
  L 302.51 296.22
  A 0.77 0.77 0.0 0 0 303.28 296.99
  L 306.07 297.01
  A 3.18 1.89 0.4 0 0 309.26 295.14
  L 309.26 294.66
  A 3.18 1.89 0.4 0 0 306.09 292.75
  L 303.30 292.73
  A 0.77 0.77 0.0 0 0 302.53 293.50"
/>
<path stroke="#999999" vector-effect="non-scaling-stroke" d="
  M 285.34 328.52
  A 0.35 0.35 0.0 0 0 285.67 329.00
  L 288.11 329.00
  A 0.35 0.35 0.0 0 0 288.44 328.52
  L 287.21 325.55
  A 0.35 0.35 0.0 0 0 286.57 325.55
  L 285.34 328.52"
/>
<path stroke="#999999" vector-effect="non-scaling-stroke" d="
  M 244.97 347.38
  L 244.99 355.82
  A 0.64 0.64 0.0 0 0 245.63 356.45
  L 247.17 356.45
  A 4.60 4.54 -0.1 0 0 251.76 351.90
  L 251.76 351.26
  A 4.60 4.54 -0.1 0 0 247.15 346.73
  L 245.61 346.73
  A 0.64 0.64 0.0 0 0 244.97 347.38"
/>
<path stroke="#999999" vector-effect="non-scaling-stroke" d="
  M 195.88 348.29
  L 194.24 353.16
  A 0.45 0.45 0.0 0 0 194.67 353.75
  L 197.56 353.75
  Q 198.14 353.75 197.96 353.20
  L 196.27 348.29
  Q 196.07 347.72 195.88 348.29"
/>
<path stroke="#999999" vector-effect="non-scaling-stroke" d="
  M 230.82 348.67
  L 229.26 353.02
  Q 229.00 353.75 229.77 353.75
  L 232.46 353.75
  Q 233.18 353.75 232.94 353.06
  L 231.41 348.68
  Q 231.12 347.83 230.82 348.67"
/>
</g>
<path fill="#ffffff" d="
  M 0.00 0.00
  L 500.00 0.00
  L 500.00 500.00
  L 0.00 500.00
  L 0.00 0.00
  Z
  M 227.49 115.99
  Q 232.79 119.78 234.63 126.01
  Q 234.74 126.38 235.12 126.32
  L 247.42 124.54
  Q 247.79 124.49 247.78 124.12
  L 247.73 112.48
  Q 247.73 111.97 247.22 112.00
  Q 237.13 112.58 227.53 115.73
  A 0.15 0.15 0.0 0 0 227.49 115.99
  Z
  M 252.79 111.98
  Q 252.27 111.95 252.27 112.47
  L 252.22 124.12
  Q 252.21 124.50 252.59 124.55
  L 264.68 126.28
  Q 265.20 126.35 265.36 125.85
  Q 267.23 119.97 272.14 116.24
  Q 272.69 115.82 272.03 115.61
  Q 262.65 112.56 252.79 111.98
  Z
  M 230.18 127.23
  C 229.20 124.19 224.41 116.84 220.31 118.89
  Q 195.55 131.24 185.68 157.23
  Q 185.43 157.87 185.91 157.38
  Q 204.77 138.12 229.80 128.02
  A 0.64 0.64 0.0 0 0 230.18 127.23
  Z
  M 277.63 118.31
  C 274.20 119.97 270.81 123.44 269.86 127.25
  Q 269.71 127.83 270.26 128.05
  Q 295.06 138.12 313.86 157.11
  Q 314.24 157.49 314.05 156.99
  Q 303.95 130.58 278.52 118.31
  Q 278.08 118.09 277.63 118.31
  Z
  M 202.28 210.17
  C 200.41 221.47 208.13 233.82 216.94 239.34
  C 226.14 245.11 235.59 247.49 247.20 248.29
  Q 247.80 248.33 247.80 247.72
  L 247.75 235.86
  L 247.75 129.68
  A 0.57 0.57 0.0 0 0 247.10 129.11
  L 235.78 130.74
  Q 235.09 130.84 235.05 131.53
  C 233.71 152.79 218.87 173.59 208.47 191.48
  Q 203.67 199.73 202.28 210.17
  Z
  M 252.25 236.34
  L 252.26 247.77
  Q 252.26 248.31 252.80 248.30
  C 269.65 247.72 286.98 241.32 295.15 225.44
  C 300.67 213.31 296.82 200.04 289.96 188.76
  C 279.74 171.94 266.15 151.59 264.98 131.44
  A 0.67 0.66 -87.9 0 0 264.42 130.83
  L 253.09 129.14
  Q 252.38 129.03 252.38 129.75
  L 252.25 236.34
  Z
  M 186.86 162.74
  C 184.67 165.04 182.78 166.88 182.39 170.20
  Q 178.55 202.44 199.80 226.60
  Q 200.21 227.07 200.01 226.47
  Q 196.11 214.89 198.48 204.35
  C 206.38 179.05 226.75 160.15 230.41 132.99
  Q 230.49 132.40 229.94 132.63
  Q 204.93 143.22 186.86 162.74
  Z
  M 302.12 219.69
  L 300.10 225.94
  Q 299.85 226.69 300.41 226.12
  Q 305.46 220.92 309.07 214.08
  Q 320.90 193.39 317.21 169.25
  C 316.84 166.80 315.84 165.77 314.24 164.02
  Q 295.35 143.35 270.07 132.64
  Q 269.57 132.43 269.63 132.97
  C 271.55 152.12 284.88 171.17 294.58 187.67
  Q 301.17 198.89 302.38 211.76
  C 302.60 214.18 302.00 216.88 302.12 219.69
  Z
  M 82.23 346.68
  C 84.88 354.65 90.96 362.05 99.44 364.28
  Q 161.50 380.58 223.57 396.78
  C 236.46 400.15 245.99 401.59 258.12 400.47
  Q 264.70 399.86 277.67 396.48
  Q 339.06 380.48 400.37 364.18
  C 409.91 361.64 416.53 353.01 418.62 343.77
  Q 419.44 340.15 419.48 325.64
  Q 419.65 256.62 419.44 238.07
  C 419.30 226.15 412.66 213.02 400.27 209.79
  Q 365.99 200.86 331.71 191.87
  Q 331.21 191.74 331.11 192.24
  L 329.51 200.21
  Q 329.42 200.64 329.85 200.75
  Q 359.58 208.29 389.41 215.60
  Q 395.34 217.05 398.55 219.15
  C 408.11 225.39 411.47 235.30 410.93 246.69
  Q 410.68 251.95 410.70 254.83
  Q 410.97 292.91 410.75 331.00
  C 410.67 344.74 402.64 355.03 389.51 358.30
  Q 331.50 372.76 273.49 387.24
  C 256.24 391.54 243.32 391.36 225.29 386.88
  Q 169.27 372.96 113.26 358.96
  Q 105.60 357.04 101.83 354.71
  Q 89.28 346.95 89.26 330.99
  Q 89.21 287.21 89.28 243.42
  C 89.30 230.78 95.72 219.43 108.61 216.11
  Q 139.29 208.23 170.24 200.65
  A 0.33 0.31 -13.4 0 0 170.48 200.28
  L 168.83 192.20
  Q 168.75 191.77 168.32 191.88
  Q 134.69 200.67 101.06 209.48
  C 91.44 212.00 85.13 218.49 82.14 227.80
  Q 80.76 232.09 80.76 240.85
  Q 80.72 286.94 80.78 333.02
  Q 80.79 342.32 82.23 346.68
  Z
  M 328.54 203.68
  C 302.84 280.92 196.70 281.70 171.52 203.74
  A 0.39 0.39 0.0 0 0 171.05 203.48
  Q 142.06 210.63 113.14 217.90
  Q 105.70 219.77 102.75 221.65
  C 95.41 226.32 91.79 235.07 91.78 243.75
  Q 91.70 285.20 91.78 326.63
  Q 91.80 336.06 93.27 340.30
  C 96.70 350.13 103.32 353.87 113.51 356.40
  Q 169.70 370.41 225.88 384.47
  C 243.11 388.78 256.28 388.77 274.21 384.37
  Q 330.53 370.56 386.81 356.54
  C 405.92 351.78 408.95 339.74 408.49 321.66
  C 407.87 297.23 408.26 272.71 408.22 248.27
  Q 408.20 238.39 406.85 234.27
  C 404.14 226.04 398.58 221.08 390.12 218.68
  C 370.04 212.99 349.51 208.34 329.20 203.32
  Q 328.70 203.19 328.54 203.68
  Z"
/>
<path fill="#333332" d="
  M 227.49 115.99
  A 0.15 0.15 0.0 0 1 227.53 115.73
  Q 237.13 112.58 247.22 112.00
  Q 247.73 111.97 247.73 112.48
  L 247.78 124.12
  Q 247.79 124.49 247.42 124.54
  L 235.12 126.32
  Q 234.74 126.38 234.63 126.01
  Q 232.79 119.78 227.49 115.99
  Z"
/>
<path fill="#333332" d="
  M 252.79 111.98
  Q 262.65 112.56 272.03 115.61
  Q 272.69 115.82 272.14 116.24
  Q 267.23 119.97 265.36 125.85
  Q 265.20 126.35 264.68 126.28
  L 252.59 124.55
  Q 252.21 124.50 252.22 124.12
  L 252.27 112.47
  Q 252.27 111.95 252.79 111.98
  Z"
/>
<path fill="#333332" d="
  M 220.31 118.89
  C 224.41 116.84 229.20 124.19 230.18 127.23
  A 0.64 0.64 0.0 0 1 229.80 128.02
  Q 204.77 138.12 185.91 157.38
  Q 185.43 157.87 185.68 157.23
  Q 195.55 131.24 220.31 118.89
  Z"
/>
<path fill="#333332" d="
  M 269.86 127.25
  C 270.81 123.44 274.20 119.97 277.63 118.31
  Q 278.08 118.09 278.52 118.31
  Q 303.95 130.58 314.05 156.99
  Q 314.24 157.49 313.86 157.11
  Q 295.06 138.12 270.26 128.05
  Q 269.71 127.83 269.86 127.25
  Z"
/>
<path fill="#333332" d="
  M 247.75 235.86
  Q 220.35 231.80 202.28 210.17
  Q 203.67 199.73 208.47 191.48
  C 218.87 173.59 233.71 152.79 235.05 131.53
  Q 235.09 130.84 235.78 130.74
  L 247.10 129.11
  A 0.57 0.57 0.0 0 1 247.75 129.68
  L 247.75 235.86
  Z"
/>
<path fill="#333332" d="
  M 295.15 225.44
  Q 275.20 237.58 252.25 236.34
  L 252.38 129.75
  Q 252.38 129.03 253.09 129.14
  L 264.42 130.83
  A 0.67 0.66 -87.9 0 1 264.98 131.44
  C 266.15 151.59 279.74 171.94 289.96 188.76
  C 296.82 200.04 300.67 213.31 295.15 225.44
  Z"
/>
<path fill="#333332" d="
  M 198.48 204.35
  Q 185.72 185.74 186.86 162.74
  Q 204.93 143.22 229.94 132.63
  Q 230.49 132.40 230.41 132.99
  C 226.75 160.15 206.38 179.05 198.48 204.35
  Z"
/>
<path fill="#333332" d="
  M 309.07 214.08
  L 302.12 219.69
  C 302.00 216.88 302.60 214.18 302.38 211.76
  Q 301.17 198.89 294.58 187.67
  C 284.88 171.17 271.55 152.12 269.63 132.97
  Q 269.57 132.43 270.07 132.64
  Q 295.35 143.35 314.24 164.02
  C 315.84 165.77 316.84 166.80 317.21 169.25
  Q 320.90 193.39 309.07 214.08
  Z"
/>
<path fill="#000000" d="
  M 186.86 162.74
  Q 185.72 185.74 198.48 204.35
  Q 196.11 214.89 200.01 226.47
  Q 200.21 227.07 199.80 226.60
  Q 178.55 202.44 182.39 170.20
  C 182.78 166.88 184.67 165.04 186.86 162.74
  Z"
/>
<path fill="#333332" d="
  M 99.44 364.28
  C 90.96 362.05 84.88 354.65 82.23 346.68
  Q 80.79 342.32 80.78 333.02
  Q 80.72 286.94 80.76 240.85
  Q 80.76 232.09 82.14 227.80
  C 85.13 218.49 91.44 212.00 101.06 209.48
  Q 134.69 200.67 168.32 191.88
  Q 168.75 191.77 168.83 192.20
  L 170.48 200.28
  A 0.33 0.31 -13.4 0 1 170.24 200.65
  Q 139.29 208.23 108.61 216.11
  C 95.72 219.43 89.30 230.78 89.28 243.42
  Q 89.21 287.21 89.26 330.99
  Q 89.28 346.95 101.83 354.71
  Q 105.60 357.04 113.26 358.96
  Q 169.27 372.96 225.29 386.88
  C 243.32 391.36 256.24 391.54 273.49 387.24
  Q 331.50 372.76 389.51 358.30
  C 402.64 355.03 410.67 344.74 410.75 331.00
  Q 410.97 292.91 410.70 254.83
  Q 410.68 251.95 410.93 246.69
  C 411.47 235.30 408.11 225.39 398.55 219.15
  Q 395.34 217.05 389.41 215.60
  Q 359.58 208.29 329.85 200.75
  Q 329.42 200.64 329.51 200.21
  L 331.11 192.24
  Q 331.21 191.74 331.71 191.87
  Q 365.99 200.86 400.27 209.79
  C 412.66 213.02 419.30 226.15 419.44 238.07
  Q 419.65 256.62 419.48 325.64
  Q 419.44 340.15 418.62 343.77
  C 416.53 353.01 409.91 361.64 400.37 364.18
  Q 339.06 380.48 277.67 396.48
  Q 264.70 399.86 258.12 400.47
  C 245.99 401.59 236.46 400.15 223.57 396.78
  Q 161.50 380.58 99.44 364.28
  Z"
/>
<path fill="#333332" d="
  M 171.52 203.74
  C 196.70 281.70 302.84 280.92 328.54 203.68
  Q 328.70 203.19 329.20 203.32
  C 349.51 208.34 370.04 212.99 390.12 218.68
  C 398.58 221.08 404.14 226.04 406.85 234.27
  Q 408.20 238.39 408.22 248.27
  C 408.26 272.71 407.87 297.23 408.49 321.66
  C 408.95 339.74 405.92 351.78 386.81 356.54
  Q 330.53 370.56 274.21 384.37
  C 256.28 388.77 243.11 388.78 225.88 384.47
  Q 169.70 370.41 113.51 356.40
  C 103.32 353.87 96.70 350.13 93.27 340.30
  Q 91.80 336.06 91.78 326.63
  Q 91.70 285.20 91.78 243.75
  C 91.79 235.07 95.41 226.32 102.75 221.65
  Q 105.70 219.77 113.14 217.90
  Q 142.06 210.63 171.05 203.48
  A 0.39 0.39 0.0 0 1 171.52 203.74
  Z
  M 189.47 296.19
  L 188.98 294.69
  Q 188.82 294.20 188.30 294.20
  L 178.48 294.27
  Q 177.98 294.27 178.01 294.78
  C 178.78 307.33 197.74 310.16 203.16 300.28
  C 208.94 289.75 197.44 286.23 190.18 283.30
  A 1.44 1.44 0.0 0 1 190.38 280.57
  Q 191.23 280.36 192.01 280.97
  A 2.07 2.04 9.2 0 1 192.65 281.84
  L 193.04 282.84
  Q 193.21 283.27 193.67 283.27
  L 203.75 283.25
  Q 204.23 283.24 204.20 282.76
  C 202.97 267.61 177.63 268.19 178.33 282.98
  C 178.69 290.54 186.94 292.51 192.59 294.44
  A 1.43 1.42 -57.2 0 1 193.10 296.83
  Q 191.74 298.12 190.03 296.95
  A 1.51 1.46 9.5 0 1 189.47 296.19
  Z
  M 250.69 293.02
  L 260.08 292.99
  Q 260.58 292.99 260.57 292.49
  L 260.47 284.98
  Q 260.46 284.50 259.98 284.50
  L 251.20 284.50
  Q 250.63 284.50 250.56 283.94
  L 250.24 281.57
  A 0.50 0.50 0.0 0 1 250.74 281.01
  L 261.25 281.00
  Q 261.75 281.00 261.75 280.50
  L 261.75 272.88
  Q 261.75 272.27 261.13 272.27
  L 240.27 272.22
  Q 239.75 272.22 239.75 272.73
  L 239.75 305.13
  Q 239.75 305.75 240.38 305.75
  L 261.25 305.75
  Q 261.75 305.75 261.75 305.25
  L 261.75 297.50
  Q 261.75 297.00 261.25 297.00
  L 250.97 297.00
  Q 249.98 297.00 250.30 296.06
  Q 250.68 294.93 250.19 293.80
  A 0.56 0.55 77.7 0 1 250.69 293.02
  Z
  M 316.09 288.10
  Q 319.73 284.75 319.24 280.33
  C 318.05 269.46 299.75 272.23 292.54 272.23
  Q 292.00 272.23 292.00 272.77
  L 292.00 305.23
  Q 292.00 305.70 292.47 305.70
  Q 303.72 305.87 309.71 305.69
  C 319.36 305.39 323.83 295.73 316.09 288.84
  Q 315.69 288.47 316.09 288.10
  Z
  M 138.32 288.11
  Q 141.93 284.83 141.52 280.48
  C 140.47 269.47 121.91 272.15 114.72 272.29
  Q 114.25 272.29 114.25 272.77
  L 114.25 305.24
  Q 114.25 305.72 114.73 305.72
  Q 123.33 305.84 131.95 305.63
  C 141.54 305.40 146.29 295.41 138.34 288.90
  Q 137.87 288.52 138.32 288.11
  Z
  M 164.79 300.50
  A 0.39 0.39 0.0 0 1 165.16 300.77
  L 166.70 305.48
  A 0.39 0.39 0.0 0 0 167.07 305.75
  L 177.42 305.75
  A 0.39 0.39 0.0 0 0 177.79 305.23
  L 165.91 272.51
  A 0.39 0.39 0.0 0 0 165.55 272.25
  L 154.69 272.25
  A 0.39 0.39 0.0 0 0 154.33 272.51
  L 142.41 305.23
  A 0.39 0.39 0.0 0 0 142.78 305.75
  L 153.11 305.75
  A 0.39 0.39 0.0 0 0 153.49 305.48
  L 154.98 300.77
  A 0.39 0.39 0.0 0 1 155.36 300.50
  L 164.79 300.50
  Z
  M 217.20 305.75
  A 0.30 0.30 0.0 0 0 217.50 305.45
  L 217.50 294.56
  A 0.30 0.30 0.0 0 1 218.04 294.38
  L 226.08 305.62
  A 0.30 0.30 0.0 0 0 226.32 305.75
  L 238.37 305.75
  A 0.30 0.30 0.0 0 0 238.61 305.27
  L 226.30 288.77
  A 0.30 0.30 0.0 0 1 226.31 288.41
  L 238.10 272.73
  A 0.30 0.30 0.0 0 0 237.86 272.25
  L 226.28 272.25
  A 0.30 0.30 0.0 0 0 226.04 272.38
  L 218.04 283.52
  A 0.30 0.30 0.0 0 1 217.50 283.35
  L 217.50 272.55
  A 0.30 0.30 0.0 0 0 217.20 272.25
  L 207.30 272.25
  A 0.30 0.30 0.0 0 0 207.00 272.55
  L 207.00 305.45
  A 0.30 0.30 0.0 0 0 207.30 305.75
  L 217.20 305.75
  Z
  M 271.11 281.00
  A 0.39 0.39 0.0 0 1 271.50 281.39
  L 271.50 305.36
  A 0.39 0.39 0.0 0 0 271.89 305.75
  L 281.41 305.75
  A 0.39 0.39 0.0 0 0 281.80 305.36
  L 281.75 281.39
  A 0.39 0.39 0.0 0 1 282.14 281.00
  L 290.03 281.00
  A 0.39 0.39 0.0 0 0 290.42 280.60
  L 290.32 272.63
  A 0.39 0.39 0.0 0 0 289.93 272.25
  L 263.39 272.25
  A 0.39 0.39 0.0 0 0 263.00 272.64
  L 263.00 280.61
  A 0.39 0.39 0.0 0 0 263.39 281.00
  L 271.11 281.00
  Z
  M 342.53 300.50
  A 0.37 0.37 0.0 0 1 342.88 300.75
  L 344.48 305.50
  A 0.37 0.37 0.0 0 0 344.83 305.75
  L 355.18 305.76
  A 0.37 0.37 0.0 0 0 355.53 305.26
  L 343.68 272.49
  A 0.37 0.37 0.0 0 0 343.33 272.25
  L 332.44 272.25
  A 0.37 0.37 0.0 0 0 332.09 272.49
  L 320.16 305.25
  A 0.37 0.37 0.0 0 0 320.51 305.75
  L 330.79 305.75
  A 0.37 0.37 0.0 0 0 331.14 305.50
  L 332.77 300.75
  A 0.37 0.37 0.0 0 1 333.12 300.50
  L 342.53 300.50
  Z
  M 367.75 297.50
  A 0.50 0.50 0.0 0 1 367.25 297.00
  L 367.25 272.75
  A 0.50 0.50 0.0 0 0 366.75 272.25
  L 357.25 272.25
  A 0.50 0.50 0.0 0 0 356.75 272.75
  L 356.75 305.25
  A 0.50 0.50 0.0 0 0 357.25 305.75
  L 376.52 305.75
  A 0.50 0.50 0.0 0 0 377.02 305.25
  L 376.97 297.99
  A 0.50 0.50 0.0 0 0 376.47 297.49
  L 367.75 297.50
  Z
  M 389.88 297.50
  A 0.38 0.38 0.0 0 1 389.50 297.12
  L 389.50 272.63
  A 0.38 0.38 0.0 0 0 389.12 272.25
  L 379.38 272.25
  A 0.38 0.38 0.0 0 0 379.00 272.63
  L 379.00 305.37
  A 0.38 0.38 0.0 0 0 379.38 305.75
  L 398.87 305.75
  A 0.38 0.38 0.0 0 0 399.25 305.37
  L 399.25 297.88
  A 0.38 0.38 0.0 0 0 398.87 297.50
  L 389.88 297.50
  Z
  M 212.83 330.58
  L 210.36 324.54
  Q 210.16 324.03 209.76 323.64
  L 209.43 323.31
  A 0.43 0.43 0.0 0 0 208.73 323.77
  L 212.15 332.32
  A 1.05 1.05 0.0 0 0 214.10 332.33
  L 217.52 324.00
  A 0.41 0.41 0.0 0 0 217.43 323.56
  L 217.19 323.31
  A 0.51 0.50 -56.4 0 0 216.37 323.48
  L 213.52 330.58
  Q 213.17 331.44 212.83 330.58
  Z
  M 221.7644 324.0427
  A 0.71 0.71 0.0 0 0 221.0569 323.3302
  L 220.9369 323.3298
  A 0.71 0.71 0.0 0 0 220.2244 324.0373
  L 220.1956 332.2773
  A 0.71 0.71 0.0 0 0 220.9031 332.9898
  L 221.0231 332.9902
  A 0.71 0.71 0.0 0 0 221.7356 332.2827
  L 221.7644 324.0427
  Z
  M 231.29 330.67
  L 226.83 323.61
  A 0.89 0.89 0.0 0 0 225.19 324.06
  L 224.93 332.41
  A 0.60 0.59 2.5 0 0 225.50 333.02
  C 226.81 333.07 226.35 326.65 226.34 325.65
  A 0.20 0.20 0.0 0 1 226.71 325.54
  L 231.08 332.62
  A 1.03 1.03 0.0 0 0 232.99 332.09
  C 233.01 331.05 233.35 323.81 232.43 323.33
  A 0.47 0.46 13.5 0 0 231.75 323.74
  L 231.75 330.53
  A 0.25 0.25 0.0 0 1 231.29 330.67
  Z
  M 237.55 326.28
  A 0.34 0.34 0.0 0 1 238.17 326.06
  L 242.51 332.75
  A 0.95 0.95 0.0 0 0 244.25 332.23
  L 244.24 323.58
  A 0.39 0.39 0.0 0 0 243.57 323.30
  L 243.29 323.58
  Q 243.01 323.87 243.00 324.28
  L 242.99 330.22
  A 0.36 0.36 0.0 0 1 242.32 330.41
  L 238.01 323.42
  A 0.95 0.95 0.0 0 0 236.26 323.92
  L 236.25 332.28
  A 0.69 0.69 0.0 0 0 236.90 332.97
  C 238.43 333.07 237.65 327.21 237.55 326.28
  Z
  M 250.83 327.19
  C 250.15 326.41 248.54 323.33 247.64 323.30
  Q 246.91 323.27 247.24 323.93
  C 248.95 327.29 250.81 328.27 250.51 332.48
  Q 250.48 332.91 250.91 332.96
  L 251.20 333.00
  Q 251.75 333.08 251.75 332.52
  Q 251.69 327.64 255.18 324.16
  C 255.21 324.14 255.25 323.47 255.17 323.37
  A 0.61 0.61 0.0 0 0 254.21 323.40
  L 251.55 327.15
  Q 251.22 327.63 250.83 327.19
  Z
  M 260.50 325.03
  L 260.50 332.44
  Q 260.50 332.94 261.00 332.97
  L 261.35 333.00
  Q 262.00 333.05 262.00 332.40
  L 262.00 325.02
  A 0.57 0.57 0.0 0 1 262.68 324.46
  Q 264.19 324.76 265.53 324.10
  A 0.36 0.36 0.0 0 0 265.38 323.41
  Q 261.11 323.27 256.82 323.51
  A 0.34 0.34 0.0 0 0 256.73 324.17
  Q 258.26 324.68 259.86 324.47
  A 0.57 0.56 86.0 0 1 260.50 325.03
  Z
  M 268.14 324.76
  C 266.87 328.11 271.10 328.66 273.08 329.25
  A 1.29 1.29 0.0 0 1 273.19 331.68
  Q 270.24 332.88 268.40 330.38
  A 0.37 0.37 0.0 0 0 267.77 330.44
  L 267.60 330.80
  A 0.69 0.68 33.8 0 0 267.77 331.62
  C 270.18 333.74 277.44 333.44 275.13 329.20
  C 274.05 327.23 269.65 327.64 269.28 326.03
  A 1.13 1.07 70.4 0 1 269.82 324.80
  Q 272.28 323.49 273.97 325.63
  A 0.50 0.49 -41.4 0 0 274.71 325.67
  L 274.94 325.44
  A 0.53 0.53 0.0 0 0 274.92 324.68
  Q 272.12 322.12 268.79 324.00
  A 1.49 1.46 86.1 0 0 268.14 324.76
  Z
  M 279.8844 323.9590
  A 0.68 0.68 0.0 0 0 279.1938 323.2898
  L 279.0938 323.2914
  A 0.68 0.68 0.0 0 0 278.4246 323.9820
  L 278.5556 332.3210
  A 0.68 0.68 0.0 0 0 279.2462 332.9902
  L 279.3462 332.9886
  A 0.68 0.68 0.0 0 0 280.0154 332.2980
  L 279.8844 323.9590
  Z
  M 289.33 330.91
  Q 289.57 332.28 290.65 333.06
  A 0.49 0.48 -83.4 0 0 291.38 332.48
  L 287.83 323.77
  A 0.96 0.96 0.0 0 0 286.05 323.76
  L 282.49 332.28
  A 0.58 0.58 0.0 0 0 283.41 332.93
  Q 284.35 332.09 284.44 330.77
  A 0.55 0.55 0.0 0 1 284.99 330.25
  L 288.55 330.25
  A 0.79 0.79 0.0 0 1 289.33 330.91
  Z
  M 203.8216 328.8185
  A 2.01 1.88 12.6 0 0 202.2701 326.5453
  A 2.01 1.88 12.6 0 0 199.8984 327.9415
  A 2.01 1.88 12.6 0 0 201.4499 330.2147
  A 2.01 1.88 12.6 0 0 203.8216 328.8185
  Z
  M 298.2531 327.7990
  A 1.92 1.85 -17.3 0 0 295.8699 326.6037
  A 1.92 1.85 -17.3 0 0 294.5869 328.9410
  A 1.92 1.85 -17.3 0 0 296.9701 330.1363
  A 1.92 1.85 -17.3 0 0 298.2531 327.7990
  Z
  M 207.80 346.67
  C 201.18 355.23 213.90 364.62 220.19 355.15
  A 0.43 0.43 0.0 0 0 219.99 354.51
  Q 217.31 353.41 216.09 355.50
  Q 215.81 355.99 215.26 356.14
  C 209.58 357.66 207.22 350.76 210.54 347.84
  C 214.47 344.39 216.02 349.58 219.83 348.67
  Q 220.32 348.55 220.12 348.10
  C 217.93 343.21 210.74 342.86 207.80 346.67
  Z
  M 242.02 344.48
  L 241.98 358.70
  A 0.30 0.30 0.0 0 0 242.27 359.00
  L 247.34 359.02
  A 7.39 6.75 0.2 0 0 254.76 352.29
  L 254.76 350.97
  A 7.39 6.75 0.2 0 0 247.40 344.20
  L 242.33 344.18
  A 0.30 0.30 0.0 0 0 242.02 344.48
  Z
  M 193.57 356.25
  L 198.61 356.25
  Q 199.22 356.25 199.34 356.85
  L 199.61 358.24
  Q 199.74 358.93 200.44 358.95
  L 202.44 359.00
  Q 203.17 359.02 202.93 358.33
  L 198.38 345.58
  A 2.41 2.41 0.0 0 0 193.84 345.58
  L 189.29 358.29
  Q 189.04 358.99 189.78 358.99
  L 191.79 358.99
  A 0.61 0.60 -80.5 0 0 192.36 358.57
  L 192.99 356.67
  Q 193.13 356.25 193.57 356.25
  Z
  M 228.47 356.25
  L 233.61 356.25
  A 0.74 0.73 84.2 0 1 234.33 356.84
  L 234.66 358.43
  A 0.72 0.71 84.0 0 0 235.36 359.00
  L 237.47 359.00
  Q 238.21 359.00 237.96 358.30
  L 233.36 345.59
  A 2.39 2.39 0.0 0 0 228.87 345.59
  L 224.23 358.40
  Q 224.02 359.00 224.65 359.00
  L 226.63 359.00
  A 0.86 0.86 0.0 0 0 227.46 358.36
  L 227.89 356.70
  Q 228.00 356.25 228.47 356.25
  Z
  M 262.37 356.50
  A 0.37 0.37 0.0 0 1 262.00 356.13
  L 262.00 353.07
  A 0.37 0.37 0.0 0 1 262.38 352.70
  L 266.59 352.78
  A 0.37 0.37 0.0 0 0 266.97 352.42
  L 267.01 350.63
  A 0.37 0.37 0.0 0 0 266.64 350.25
  L 262.37 350.25
  A 0.37 0.37 0.0 0 1 262.00 349.88
  L 262.00 346.98
  A 0.37 0.37 0.0 0 1 262.39 346.61
  L 267.11 346.82
  A 0.37 0.37 0.0 0 0 267.50 346.45
  L 267.50 344.62
  A 0.37 0.37 0.0 0 0 267.13 344.25
  L 259.37 344.25
  A 0.37 0.37 0.0 0 0 259.00 344.62
  L 259.00 358.63
  A 0.37 0.37 0.0 0 0 259.37 359.00
  L 267.13 359.00
  A 0.37 0.37 0.0 0 0 267.50 358.63
  L 267.50 356.87
  A 0.37 0.37 0.0 0 0 267.13 356.50
  L 262.37 356.50
  Z
  M 275.41 350.48
  L 278.52 358.04
  A 1.66 1.66 0.0 0 0 281.59 358.03
  L 284.57 350.61
  A 0.31 0.31 0.0 0 1 285.17 350.72
  L 285.26 358.42
  Q 285.26 359.00 285.85 359.00
  L 287.47 359.00
  A 0.72 0.71 -0.4 0 0 288.19 358.28
  L 287.97 345.77
  A 1.88 1.88 0.0 0 0 284.36 345.07
  L 280.41 354.36
  Q 280.06 355.18 279.71 354.36
  L 275.63 344.91
  Q 275.35 344.25 274.62 344.25
  L 272.50 344.25
  Q 272.00 344.25 272.00 344.75
  L 272.00 358.37
  Q 272.00 359.00 272.63 359.00
  L 274.38 359.00
  Q 275.00 359.00 275.00 358.37
  L 275.00 350.56
  Q 275.00 349.49 275.41 350.48
  Z
  M 297.73 350.19
  Q 296.34 347.58 295.16 344.85
  Q 294.90 344.25 294.24 344.25
  L 292.26 344.25
  Q 291.48 344.25 291.85 344.94
  Q 293.84 348.72 295.78 352.52
  C 296.79 354.51 296.54 356.27 296.49 358.42
  A 0.57 0.57 0.0 0 0 297.06 359.00
  L 298.94 359.00
  Q 299.51 359.00 299.51 358.42
  C 299.48 356.27 299.18 354.49 300.22 352.49
  Q 302.17 348.73 304.16 344.93
  Q 304.51 344.25 303.74 344.25
  L 301.65 344.25
  Q 301.15 344.25 300.93 344.70
  L 298.35 350.17
  Q 298.06 350.80 297.73 350.19
  Z"
/>
<path fill="#000000" d="
  M 202.28 210.17
  Q 220.35 231.80 247.75 235.86
  L 247.80 247.72
  Q 247.80 248.33 247.20 248.29
  C 235.59 247.49 226.14 245.11 216.94 239.34
  C 208.13 233.82 200.41 221.47 202.28 210.17
  Z"
/>
<path fill="#000000" d="
  M 309.07 214.08
  Q 305.46 220.92 300.41 226.12
  Q 299.85 226.69 300.10 225.94
  L 302.12 219.69
  L 309.07 214.08
  Z"
/>
<path fill="#000000" d="
  M 295.15 225.44
  C 286.98 241.32 269.65 247.72 252.80 248.30
  Q 252.26 248.31 252.26 247.77
  L 252.25 236.34
  Q 275.20 237.58 295.15 225.44
  Z"
/>
<path fill="#ffffff" d="
  M 190.03 296.95
  Q 191.74 298.12 193.10 296.83
  A 1.43 1.42 -57.2 0 0 192.59 294.44
  C 186.94 292.51 178.69 290.54 178.33 282.98
  C 177.63 268.19 202.97 267.61 204.20 282.76
  Q 204.23 283.24 203.75 283.25
  L 193.67 283.27
  Q 193.21 283.27 193.04 282.84
  L 192.65 281.84
  A 2.07 2.04 9.2 0 0 192.01 280.97
  Q 191.23 280.36 190.38 280.57
  A 1.44 1.44 0.0 0 0 190.18 283.30
  C 197.44 286.23 208.94 289.75 203.16 300.28
  C 197.74 310.16 178.78 307.33 178.01 294.78
  Q 177.98 294.27 178.48 294.27
  L 188.30 294.20
  Q 188.82 294.20 188.98 294.69
  L 189.47 296.19
  A 1.51 1.46 9.5 0 0 190.03 296.95
  Z
  M 192.24 292.59
  C 199.48 295.28 191.01 303.44 187.51 296.23
  Q 187.27 295.73 186.72 295.74
  L 180.31 295.78
  Q 179.80 295.78 179.88 296.29
  C 181.13 304.64 192.65 305.99 198.71 302.49
  C 203.15 299.92 204.32 293.75 200.46 290.10
  C 197.70 287.47 192.32 286.49 189.32 284.69
  C 185.17 282.19 189.03 276.45 193.51 279.86
  Q 193.89 280.16 194.02 280.63
  C 194.49 282.38 200.10 281.76 201.49 281.74
  Q 202.54 281.72 202.24 280.71
  C 198.72 269.09 176.53 272.32 180.10 284.61
  C 181.41 289.12 187.16 290.70 192.24 292.59
  Z"
/>
<path fill="#ffffff" d="
  M 250.19 293.80
  Q 250.68 294.93 250.30 296.06
  Q 249.98 297.00 250.97 297.00
  L 261.25 297.00
  Q 261.75 297.00 261.75 297.50
  L 261.75 305.25
  Q 261.75 305.75 261.25 305.75
  L 240.38 305.75
  Q 239.75 305.75 239.75 305.13
  L 239.75 272.73
  Q 239.75 272.22 240.27 272.22
  L 261.13 272.27
  Q 261.75 272.27 261.75 272.88
  L 261.75 280.50
  Q 261.75 281.00 261.25 281.00
  L 250.74 281.01
  A 0.50 0.50 0.0 0 0 250.24 281.57
  L 250.56 283.94
  Q 250.63 284.50 251.20 284.50
  L 259.98 284.50
  Q 260.46 284.50 260.47 284.98
  L 260.57 292.49
  Q 260.58 292.99 260.08 292.99
  L 250.69 293.02
  A 0.56 0.55 77.7 0 0 250.19 293.80
  Z
  M 249.22 298.75
  A 0.49 0.49 0.0 0 1 248.73 298.26
  L 248.68 291.74
  A 0.49 0.49 0.0 0 1 249.17 291.25
  L 258.16 291.25
  A 0.49 0.49 0.0 0 0 258.65 290.76
  L 258.65 286.85
  A 0.49 0.49 0.0 0 0 258.16 286.36
  L 249.20 286.35
  A 0.49 0.49 0.0 0 1 248.71 285.86
  L 248.71 279.99
  A 0.49 0.49 0.0 0 1 249.20 279.50
  L 259.60 279.50
  A 0.49 0.49 0.0 0 0 260.09 279.02
  L 260.17 274.25
  A 0.49 0.49 0.0 0 0 259.68 273.75
  L 242.03 273.75
  A 0.49 0.49 0.0 0 0 241.54 274.24
  L 241.25 303.84
  A 0.49 0.49 0.0 0 0 241.75 304.34
  L 259.62 304.21
  A 0.49 0.49 0.0 0 0 260.11 303.72
  L 260.10 299.24
  A 0.49 0.49 0.0 0 0 259.61 298.75
  L 249.22 298.75
  Z"
/>
<path fill="#ffffff" d="
  M 316.09 288.84
  C 323.83 295.73 319.36 305.39 309.71 305.69
  Q 303.72 305.87 292.47 305.70
  Q 292.00 305.70 292.00 305.23
  L 292.00 272.77
  Q 292.00 272.23 292.54 272.23
  C 299.75 272.23 318.05 269.46 319.24 280.33
  Q 319.73 284.75 316.09 288.10
  Q 315.69 288.47 316.09 288.84
  Z
  M 313.72 287.31
  C 316.37 286.52 317.57 283.97 317.54 281.30
  C 317.43 271.57 300.13 273.42 293.84 273.92
  Q 293.50 273.94 293.50 274.28
  L 293.50 303.50
  A 0.63 0.62 -88.6 0 0 294.09 304.13
  C 299.16 304.42 310.94 305.27 315.20 302.41
  C 319.62 299.44 319.45 291.35 313.75 289.78
  A 1.29 1.28 44.4 0 1 313.72 287.31
  Z"
/>
<path fill="#ffffff" d="
  M 138.34 288.90
  C 146.29 295.41 141.54 305.40 131.95 305.63
  Q 123.33 305.84 114.73 305.72
  Q 114.25 305.72 114.25 305.24
  L 114.25 272.77
  Q 114.25 272.29 114.72 272.29
  C 121.91 272.15 140.47 269.47 141.52 280.48
  Q 141.93 284.83 138.32 288.11
  Q 137.87 288.52 138.34 288.90
  Z
  M 135.26 288.04
  L 138.12 285.97
  Q 138.51 285.69 138.74 285.28
  C 141.28 280.78 139.47 276.45 134.66 274.75
  C 129.63 272.97 121.78 273.70 116.49 273.79
  A 0.76 0.76 0.0 0 0 115.75 274.55
  L 115.75 303.02
  A 0.85 0.85 0.0 0 0 116.56 303.87
  C 121.76 304.16 135.06 305.37 138.50 301.59
  C 142.37 297.33 140.73 291.60 135.42 289.42
  A 0.80 0.79 -51.8 0 1 135.26 288.04
  Z"
/>
<path fill="#ffffff" d="
  M 164.79 300.50
  L 155.36 300.50
  A 0.39 0.39 0.0 0 0 154.98 300.77
  L 153.49 305.48
  A 0.39 0.39 0.0 0 1 153.11 305.75
  L 142.78 305.75
  A 0.39 0.39 0.0 0 1 142.41 305.23
  L 154.33 272.51
  A 0.39 0.39 0.0 0 1 154.69 272.25
  L 165.55 272.25
  A 0.39 0.39 0.0 0 1 165.91 272.51
  L 177.79 305.23
  A 0.39 0.39 0.0 0 1 177.42 305.75
  L 167.07 305.75
  A 0.39 0.39 0.0 0 1 166.70 305.48
  L 165.16 300.77
  A 0.39 0.39 0.0 0 0 164.79 300.50
  Z
  M 153.65 299.41
  A 0.59 0.59 0.0 0 1 154.21 299.00
  L 166.00 299.00
  A 0.59 0.59 0.0 0 1 166.56 299.41
  L 167.97 303.85
  A 0.59 0.59 0.0 0 0 168.53 304.26
  L 174.82 304.24
  A 0.59 0.59 0.0 0 0 175.37 303.45
  L 164.73 274.12
  A 0.59 0.59 0.0 0 0 164.17 273.73
  L 156.02 273.78
  A 0.59 0.59 0.0 0 0 155.47 274.17
  L 144.83 303.41
  A 0.59 0.59 0.0 0 0 145.38 304.21
  L 151.68 304.25
  A 0.59 0.59 0.0 0 0 152.24 303.84
  L 153.65 299.41
  Z"
/>
<path fill="#ffffff" d="
  M 217.20 305.75
  L 207.30 305.75
  A 0.30 0.30 0.0 0 1 207.00 305.45
  L 207.00 272.55
  A 0.30 0.30 0.0 0 1 207.30 272.25
  L 217.20 272.25
  A 0.30 0.30 0.0 0 1 217.50 272.55
  L 217.50 283.35
  A 0.30 0.30 0.0 0 0 218.04 283.52
  L 226.04 272.38
  A 0.30 0.30 0.0 0 1 226.28 272.25
  L 237.86 272.25
  A 0.30 0.30 0.0 0 1 238.10 272.73
  L 226.31 288.41
  A 0.30 0.30 0.0 0 0 226.30 288.77
  L 238.61 305.27
  A 0.30 0.30 0.0 0 1 238.37 305.75
  L 226.32 305.75
  A 0.30 0.30 0.0 0 1 226.08 305.62
  L 218.04 294.38
  A 0.30 0.30 0.0 0 0 217.50 294.56
  L 217.50 305.45
  A 0.30 0.30 0.0 0 1 217.20 305.75
  Z
  M 216.02 274.49
  A 0.73 0.73 0.0 0 0 215.29 273.76
  L 209.23 273.76
  A 0.73 0.73 0.0 0 0 208.50 274.49
  L 208.50 303.51
  A 0.73 0.73 0.0 0 0 209.23 304.24
  L 215.29 304.24
  A 0.73 0.73 0.0 0 0 216.02 303.51
  L 216.02 274.49
  Z
  M 227.86 304.25
  L 234.93 304.25
  A 0.43 0.42 71.7 0 0 235.27 303.57
  L 224.50 289.24
  Q 224.02 288.60 224.50 287.96
  L 234.74 274.44
  A 0.43 0.43 0.0 0 0 234.40 273.76
  L 228.05 273.75
  A 1.82 1.80 -71.8 0 0 226.56 274.51
  L 216.85 288.04
  A 1.52 1.50 -45.2 0 0 216.85 289.81
  L 226.82 303.72
  Q 227.20 304.25 227.86 304.25
  Z"
/>
<path fill="#ffffff" d="
  M 271.11 281.00
  L 263.39 281.00
  A 0.39 0.39 0.0 0 1 263.00 280.61
  L 263.00 272.64
  A 0.39 0.39 0.0 0 1 263.39 272.25
  L 289.93 272.25
  A 0.39 0.39 0.0 0 1 290.32 272.63
  L 290.42 280.60
  A 0.39 0.39 0.0 0 1 290.03 281.00
  L 282.14 281.00
  A 0.39 0.39 0.0 0 0 281.75 281.39
  L 281.80 305.36
  A 0.39 0.39 0.0 0 1 281.41 305.75
  L 271.89 305.75
  A 0.39 0.39 0.0 0 1 271.50 305.36
  L 271.50 281.39
  A 0.39 0.39 0.0 0 0 271.11 281.00
  Z
  M 280.31 279.89
  A 0.65 0.65 0.0 0 1 280.96 279.25
  L 287.98 279.25
  A 0.65 0.65 0.0 0 0 288.63 278.58
  L 288.53 274.38
  A 0.65 0.65 0.0 0 0 287.88 273.75
  L 265.13 273.75
  A 0.65 0.65 0.0 0 0 264.48 274.42
  L 264.57 278.62
  A 0.65 0.65 0.0 0 0 265.22 279.25
  L 272.35 279.25
  A 0.65 0.65 0.0 0 1 273.00 279.90
  L 273.00 303.59
  A 0.65 0.65 0.0 0 0 273.65 304.24
  L 279.38 304.26
  A 0.65 0.65 0.0 0 0 280.03 303.62
  L 280.31 279.89
  Z"
/>
<path fill="#ffffff" d="
  M 342.53 300.50
  L 333.12 300.50
  A 0.37 0.37 0.0 0 0 332.77 300.75
  L 331.14 305.50
  A 0.37 0.37 0.0 0 1 330.79 305.75
  L 320.51 305.75
  A 0.37 0.37 0.0 0 1 320.16 305.25
  L 332.09 272.49
  A 0.37 0.37 0.0 0 1 332.44 272.25
  L 343.33 272.25
  A 0.37 0.37 0.0 0 1 343.68 272.49
  L 355.53 305.26
  A 0.37 0.37 0.0 0 1 355.18 305.76
  L 344.83 305.75
  A 0.37 0.37 0.0 0 1 344.48 305.50
  L 342.88 300.75
  A 0.37 0.37 0.0 0 0 342.53 300.50
  Z
  M 324.67 304.19
  Q 327.00 304.46 329.39 304.15
  Q 329.95 304.08 330.09 303.54
  Q 330.64 301.51 331.41 299.52
  Q 331.61 299.01 332.17 299.01
  L 343.57 299.00
  Q 344.21 299.00 344.38 299.61
  Q 344.96 301.61 345.66 303.59
  A 0.98 0.97 80.3 0 0 346.58 304.25
  L 352.64 304.25
  A 0.54 0.53 80.0 0 0 353.14 303.53
  L 342.56 274.25
  Q 342.37 273.74 341.82 273.74
  L 333.82 273.78
  A 0.67 0.67 0.0 0 0 333.19 274.22
  L 322.55 303.43
  Q 322.30 304.10 323.01 304.24
  Q 323.33 304.30 323.71 304.22
  A 3.16 3.06 -45.9 0 1 324.67 304.19
  Z"
/>
<path fill="#ffffff" d="
  M 367.75 297.50
  L 376.47 297.49
  A 0.50 0.50 0.0 0 1 376.97 297.99
  L 377.02 305.25
  A 0.50 0.50 0.0 0 1 376.52 305.75
  L 357.25 305.75
  A 0.50 0.50 0.0 0 1 356.75 305.25
  L 356.75 272.75
  A 0.50 0.50 0.0 0 1 357.25 272.25
  L 366.75 272.25
  A 0.50 0.50 0.0 0 1 367.25 272.75
  L 367.25 297.00
  A 0.50 0.50 0.0 0 0 367.75 297.50
  Z
  M 366.57 299.00
  A 0.78 0.78 0.0 0 1 365.79 298.22
  L 365.64 274.52
  A 0.78 0.78 0.0 0 0 364.86 273.74
  L 359.03 273.76
  A 0.78 0.78 0.0 0 0 358.25 274.54
  L 358.25 303.47
  A 0.78 0.78 0.0 0 0 359.03 304.25
  L 374.68 304.25
  A 0.78 0.78 0.0 0 0 375.46 303.48
  L 375.52 299.79
  A 0.78 0.78 0.0 0 0 374.74 299.00
  L 366.57 299.00
  Z"
/>
<path fill="#ffffff" d="
  M 389.88 297.50
  L 398.87 297.50
  A 0.38 0.38 0.0 0 1 399.25 297.88
  L 399.25 305.37
  A 0.38 0.38 0.0 0 1 398.87 305.75
  L 379.38 305.75
  A 0.38 0.38 0.0 0 1 379.00 305.37
  L 379.00 272.63
  A 0.38 0.38 0.0 0 1 379.38 272.25
  L 389.12 272.25
  A 0.38 0.38 0.0 0 1 389.50 272.63
  L 389.50 297.12
  A 0.38 0.38 0.0 0 0 389.88 297.50
  Z
  M 380.50 303.56
  A 0.70 0.70 0.0 0 0 381.20 304.26
  L 396.90 304.19
  A 0.70 0.70 0.0 0 0 397.60 303.51
  L 397.69 299.72
  A 0.70 0.70 0.0 0 0 396.99 299.00
  L 388.70 299.00
  A 0.70 0.70 0.0 0 1 388.00 298.30
  L 388.00 274.45
  A 0.70 0.70 0.0 0 0 387.30 273.75
  L 381.20 273.75
  A 0.70 0.70 0.0 0 0 380.50 274.45
  L 380.50 303.56
  Z"
/>
<path fill="#ef6705" d="
  M 187.51 296.23
  C 191.01 303.44 199.48 295.28 192.24 292.59
  C 187.16 290.70 181.41 289.12 180.10 284.61
  C 176.53 272.32 198.72 269.09 202.24 280.71
  Q 202.54 281.72 201.49 281.74
  C 200.10 281.76 194.49 282.38 194.02 280.63
  Q 193.89 280.16 193.51 279.86
  C 189.03 276.45 185.17 282.19 189.32 284.69
  C 192.32 286.49 197.70 287.47 200.46 290.10
  C 204.32 293.75 203.15 299.92 198.71 302.49
  C 192.65 305.99 181.13 304.64 179.88 296.29
  Q 179.80 295.78 180.31 295.78
  L 186.72 295.74
  Q 187.27 295.73 187.51 296.23
  Z"
/>
<path fill="#ef6705" d="
  M 135.26 288.04
  A 0.80 0.79 -51.8 0 0 135.42 289.42
  C 140.73 291.60 142.37 297.33 138.50 301.59
  C 135.06 305.37 121.76 304.16 116.56 303.87
  A 0.85 0.85 0.0 0 1 115.75 303.02
  L 115.75 274.55
  A 0.76 0.76 0.0 0 1 116.49 273.79
  C 121.78 273.70 129.63 272.97 134.66 274.75
  C 139.47 276.45 141.28 280.78 138.74 285.28
  Q 138.51 285.69 138.12 285.97
  L 135.26 288.04
  Z
  M 123.24 279.57
  L 123.26 286.25
  A 0.28 0.28 0.0 0 0 123.54 286.53
  L 128.94 286.51
  A 3.58 3.36 -0.2 0 0 132.51 283.13
  L 132.51 282.61
  A 3.58 3.36 -0.2 0 0 128.92 279.27
  L 123.52 279.29
  A 0.28 0.28 0.0 0 0 123.24 279.57
  Z
  M 123.24 291.78
  L 123.26 298.06
  A 0.48 0.48 0.0 0 0 123.74 298.54
  L 129.77 298.53
  A 3.47 3.43 -0.1 0 0 133.23 295.09
  L 133.23 294.71
  A 3.47 3.43 -0.1 0 0 129.75 291.29
  L 123.72 291.30
  A 0.48 0.48 0.0 0 0 123.24 291.78
  Z"
/>
<path fill="#ef6705" d="
  M 153.65 299.41
  L 152.24 303.84
  A 0.59 0.59 0.0 0 1 151.68 304.25
  L 145.38 304.21
  A 0.59 0.59 0.0 0 1 144.83 303.41
  L 155.47 274.17
  A 0.59 0.59 0.0 0 1 156.02 273.78
  L 164.17 273.73
  A 0.59 0.59 0.0 0 1 164.73 274.12
  L 175.37 303.45
  A 0.59 0.59 0.0 0 1 174.82 304.24
  L 168.53 304.26
  A 0.59 0.59 0.0 0 1 167.97 303.85
  L 166.56 299.41
  A 0.59 0.59 0.0 0 0 166.00 299.00
  L 154.21 299.00
  A 0.59 0.59 0.0 0 0 153.65 299.41
  Z
  M 155.70 293.33
  A 0.33 0.33 0.0 0 0 156.02 293.76
  L 164.24 293.74
  A 0.33 0.33 0.0 0 0 164.55 293.30
  L 160.39 280.76
  A 0.33 0.33 0.0 0 0 159.77 280.76
  L 155.70 293.33
  Z"
/>
<rect fill="#ef6705" x="208.50" y="273.76" width="7.52" height="30.48" rx="0.73"/>
<path fill="#ef6705" d="
  M 226.82 303.72
  L 216.85 289.81
  A 1.52 1.50 -45.2 0 1 216.85 288.04
  L 226.56 274.51
  A 1.82 1.80 -71.8 0 1 228.05 273.75
  L 234.40 273.76
  A 0.43 0.43 0.0 0 1 234.74 274.44
  L 224.50 287.96
  Q 224.02 288.60 224.50 289.24
  L 235.27 303.57
  A 0.43 0.42 71.7 0 1 234.93 304.25
  L 227.86 304.25
  Q 227.20 304.25 226.82 303.72
  Z"
/>
<path fill="#ef6705" d="
  M 249.22 298.75
  L 259.61 298.75
  A 0.49 0.49 0.0 0 1 260.10 299.24
  L 260.11 303.72
  A 0.49 0.49 0.0 0 1 259.62 304.21
  L 241.75 304.34
  A 0.49 0.49 0.0 0 1 241.25 303.84
  L 241.54 274.24
  A 0.49 0.49 0.0 0 1 242.03 273.75
  L 259.68 273.75
  A 0.49 0.49 0.0 0 1 260.17 274.25
  L 260.09 279.02
  A 0.49 0.49 0.0 0 1 259.60 279.50
  L 249.20 279.50
  A 0.49 0.49 0.0 0 0 248.71 279.99
  L 248.71 285.86
  A 0.49 0.49 0.0 0 0 249.20 286.35
  L 258.16 286.36
  A 0.49 0.49 0.0 0 1 258.65 286.85
  L 258.65 290.76
  A 0.49 0.49 0.0 0 1 258.16 291.25
  L 249.17 291.25
  A 0.49 0.49 0.0 0 0 248.68 291.74
  L 248.73 298.26
  A 0.49 0.49 0.0 0 0 249.22 298.75
  Z"
/>
<path fill="#ef6705" d="
  M 280.31 279.89
  L 280.03 303.62
  A 0.65 0.65 0.0 0 1 279.38 304.26
  L 273.65 304.24
  A 0.65 0.65 0.0 0 1 273.00 303.59
  L 273.00 279.90
  A 0.65 0.65 0.0 0 0 272.35 279.25
  L 265.22 279.25
  A 0.65 0.65 0.0 0 1 264.57 278.62
  L 264.48 274.42
  A 0.65 0.65 0.0 0 1 265.13 273.75
  L 287.88 273.75
  A 0.65 0.65 0.0 0 1 288.53 274.38
  L 288.63 278.58
  A 0.65 0.65 0.0 0 1 287.98 279.25
  L 280.96 279.25
  A 0.65 0.65 0.0 0 0 280.31 279.89
  Z"
/>
<path fill="#ef6705" d="
  M 313.72 287.31
  A 1.29 1.28 44.4 0 0 313.75 289.78
  C 319.45 291.35 319.62 299.44 315.20 302.41
  C 310.94 305.27 299.16 304.42 294.09 304.13
  A 0.63 0.62 -88.6 0 1 293.50 303.50
  L 293.50 274.28
  Q 293.50 273.94 293.84 273.92
  C 300.13 273.42 317.43 271.57 317.54 281.30
  C 317.57 283.97 316.37 286.52 313.72 287.31
  Z
  M 300.99 279.78
  L 301.01 286.06
  A 0.48 0.48 0.0 0 0 301.49 286.53
  L 306.71 286.52
  A 3.54 3.42 -0.2 0 0 310.24 283.08
  L 310.24 282.68
  A 3.54 3.42 -0.2 0 0 306.69 279.28
  L 301.47 279.29
  A 0.48 0.48 0.0 0 0 300.99 279.78
  Z
  M 301.01 291.73
  L 300.99 298.03
  A 0.48 0.48 0.0 0 0 301.47 298.51
  L 307.58 298.54
  A 3.48 3.39 -89.8 0 0 310.98 295.07
  L 310.98 294.77
  A 3.48 3.39 -89.8 0 0 307.60 291.28
  L 301.49 291.25
  A 0.48 0.48 0.0 0 0 301.01 291.73
  Z"
/>
<path fill="#ef6705" d="
  M 323.71 304.22
  Q 323.33 304.30 323.01 304.24
  Q 322.30 304.10 322.55 303.43
  L 333.19 274.22
  A 0.67 0.67 0.0 0 1 333.82 273.78
  L 341.82 273.74
  Q 342.37 273.74 342.56 274.25
  L 353.14 303.53
  A 0.54 0.53 80.0 0 1 352.64 304.25
  L 346.58 304.25
  A 0.98 0.97 80.3 0 1 345.66 303.59
  Q 344.96 301.61 344.38 299.61
  Q 344.21 299.00 343.57 299.00
  L 332.17 299.01
  Q 331.61 299.01 331.41 299.52
  Q 330.64 301.51 330.09 303.54
  Q 329.95 304.08 329.39 304.15
  Q 327.00 304.46 324.67 304.19
  A 3.16 3.06 -45.9 0 0 323.71 304.22
  Z
  M 333.49 293.35
  A 0.34 0.34 0.0 0 0 333.82 293.79
  L 341.96 293.72
  A 0.34 0.34 0.0 0 0 342.28 293.27
  L 338.10 280.81
  A 0.34 0.34 0.0 0 0 337.45 280.82
  L 333.49 293.35
  Z"
/>
<path fill="#ef6705" d="
  M 366.57 299.00
  L 374.74 299.00
  A 0.78 0.78 0.0 0 1 375.52 299.79
  L 375.46 303.48
  A 0.78 0.78 0.0 0 1 374.68 304.25
  L 359.03 304.25
  A 0.78 0.78 0.0 0 1 358.25 303.47
  L 358.25 274.54
  A 0.78 0.78 0.0 0 1 359.03 273.76
  L 364.86 273.74
  A 0.78 0.78 0.0 0 1 365.64 274.52
  L 365.79 298.22
  A 0.78 0.78 0.0 0 0 366.57 299.00
  Z"
/>
<path fill="#ef6705" d="
  M 380.50 303.56
  L 380.50 274.45
  A 0.70 0.70 0.0 0 1 381.20 273.75
  L 387.30 273.75
  A 0.70 0.70 0.0 0 1 388.00 274.45
  L 388.00 298.30
  A 0.70 0.70 0.0 0 0 388.70 299.00
  L 396.99 299.00
  A 0.70 0.70 0.0 0 1 397.69 299.72
  L 397.60 303.51
  A 0.70 0.70 0.0 0 1 396.90 304.19
  L 381.20 304.26
  A 0.70 0.70 0.0 0 1 380.50 303.56
  Z"
/>
<path fill="#ffffff" d="
  M 123.24 279.57
  A 0.28 0.28 0.0 0 1 123.52 279.29
  L 128.92 279.27
  A 3.58 3.36 -0.2 0 1 132.51 282.61
  L 132.51 283.13
  A 3.58 3.36 -0.2 0 1 128.94 286.51
  L 123.54 286.53
  A 0.28 0.28 0.0 0 1 123.26 286.25
  L 123.24 279.57
  Z
  M 124.74 281.71
  L 124.74 284.27
  A 0.73 0.73 0.0 0 0 125.46 285.00
  L 128.11 285.01
  A 2.64 1.72 0.2 0 0 130.76 283.30
  L 130.76 282.72
  A 2.64 1.72 0.2 0 0 128.13 280.99
  L 125.48 280.98
  A 0.73 0.73 0.0 0 0 124.74 281.71
  Z"
/>
<path fill="#ffffff" d="
  M 300.99 279.78
  A 0.48 0.48 0.0 0 1 301.47 279.29
  L 306.69 279.28
  A 3.54 3.42 -0.2 0 1 310.24 282.68
  L 310.24 283.08
  A 3.54 3.42 -0.2 0 1 306.71 286.52
  L 301.49 286.53
  A 0.48 0.48 0.0 0 1 301.01 286.06
  L 300.99 279.78
  Z
  M 302.46 281.84
  L 302.58 284.36
  A 0.72 0.72 0.0 0 0 303.34 285.04
  L 306.36 284.90
  A 2.23 1.84 -2.7 0 0 308.50 282.96
  L 308.49 282.68
  A 2.23 1.84 -2.7 0 0 306.18 280.95
  L 303.15 281.09
  A 0.72 0.72 0.0 0 0 302.46 281.84
  Z"
/>
<path fill="#ffffff" d="
  M 155.70 293.33
  L 159.77 280.76
  A 0.33 0.33 0.0 0 1 160.39 280.76
  L 164.55 293.30
  A 0.33 0.33 0.0 0 1 164.24 293.74
  L 156.02 293.76
  A 0.33 0.33 0.0 0 1 155.70 293.33
  Z
  M 160.40 286.11
  A 0.31 0.31 0.0 0 0 159.81 286.11
  L 157.93 291.85
  A 0.31 0.31 0.0 0 0 158.23 292.26
  L 161.90 292.23
  A 0.31 0.31 0.0 0 0 162.19 291.83
  L 160.40 286.11
  Z"
/>
<path fill="#ffffff" d="
  M 333.49 293.35
  L 337.45 280.82
  A 0.34 0.34 0.0 0 1 338.10 280.81
  L 342.28 293.27
  A 0.34 0.34 0.0 0 1 341.96 293.72
  L 333.82 293.79
  A 0.34 0.34 0.0 0 1 333.49 293.35
  Z
  M 335.71 291.84
  A 0.31 0.31 0.0 0 0 336.00 292.25
  L 339.68 292.25
  A 0.31 0.31 0.0 0 0 339.97 291.84
  L 338.14 286.10
  A 0.31 0.31 0.0 0 0 337.54 286.10
  L 335.71 291.84
  Z"
/>
<path fill="#333332" d="
  M 124.74 281.71
  A 0.73 0.73 0.0 0 1 125.48 280.98
  L 128.13 280.99
  A 2.64 1.72 0.2 0 1 130.76 282.72
  L 130.76 283.30
  A 2.64 1.72 0.2 0 1 128.11 285.01
  L 125.46 285.00
  A 0.73 0.73 0.0 0 1 124.74 284.27
  L 124.74 281.71
  Z"
/>
<path fill="#333332" d="
  M 302.46 281.84
  A 0.72 0.72 0.0 0 1 303.15 281.09
  L 306.18 280.95
  A 2.23 1.84 -2.7 0 1 308.49 282.68
  L 308.50 282.96
  A 2.23 1.84 -2.7 0 1 306.36 284.90
  L 303.34 285.04
  A 0.72 0.72 0.0 0 1 302.58 284.36
  L 302.46 281.84
  Z"
/>
<path fill="#333332" d="
  M 160.40 286.11
  L 162.19 291.83
  A 0.31 0.31 0.0 0 1 161.90 292.23
  L 158.23 292.26
  A 0.31 0.31 0.0 0 1 157.93 291.85
  L 159.81 286.11
  A 0.31 0.31 0.0 0 1 160.40 286.11
  Z"
/>
<path fill="#333332" d="
  M 335.71 291.84
  L 337.54 286.10
  A 0.31 0.31 0.0 0 1 338.14 286.10
  L 339.97 291.84
  A 0.31 0.31 0.0 0 1 339.68 292.25
  L 336.00 292.25
  A 0.31 0.31 0.0 0 1 335.71 291.84
  Z"
/>
<path fill="#ffffff" d="
  M 123.24 291.78
  A 0.48 0.48 0.0 0 1 123.72 291.30
  L 129.75 291.29
  A 3.47 3.43 -0.1 0 1 133.23 294.71
  L 133.23 295.09
  A 3.47 3.43 -0.1 0 1 129.77 298.53
  L 123.74 298.54
  A 0.48 0.48 0.0 0 1 123.26 298.06
  L 123.24 291.78
  Z
  M 124.75 293.31
  L 124.73 296.41
  A 0.59 0.59 0.0 0 0 125.32 297.00
  L 128.15 297.01
  A 3.34 1.96 0.2 0 0 131.50 295.06
  L 131.50 294.70
  A 3.34 1.96 0.2 0 0 128.17 292.73
  L 125.34 292.72
  A 0.59 0.59 0.0 0 0 124.75 293.31
  Z"
/>
<path fill="#ffffff" d="
  M 301.01 291.73
  A 0.48 0.48 0.0 0 1 301.49 291.25
  L 307.60 291.28
  A 3.48 3.39 -89.8 0 1 310.98 294.77
  L 310.98 295.07
  A 3.48 3.39 -89.8 0 1 307.58 298.54
  L 301.47 298.51
  A 0.48 0.48 0.0 0 1 300.99 298.03
  L 301.01 291.73
  Z
  M 302.53 293.50
  L 302.51 296.22
  A 0.77 0.77 0.0 0 0 303.28 296.99
  L 306.07 297.01
  A 3.18 1.89 0.4 0 0 309.26 295.14
  L 309.26 294.66
  A 3.18 1.89 0.4 0 0 306.09 292.75
  L 303.30 292.73
  A 0.77 0.77 0.0 0 0 302.53 293.50
  Z"
/>
<path fill="#333332" d="
  M 124.75 293.31
  A 0.59 0.59 0.0 0 1 125.34 292.72
  L 128.17 292.73
  A 3.34 1.96 0.2 0 1 131.50 294.70
  L 131.50 295.06
  A 3.34 1.96 0.2 0 1 128.15 297.01
  L 125.32 297.00
  A 0.59 0.59 0.0 0 1 124.73 296.41
  L 124.75 293.31
  Z"
/>
<path fill="#333332" d="
  M 302.53 293.50
  A 0.77 0.77 0.0 0 1 303.30 292.73
  L 306.09 292.75
  A 3.18 1.89 0.4 0 1 309.26 294.66
  L 309.26 295.14
  A 3.18 1.89 0.4 0 1 306.07 297.01
  L 303.28 296.99
  A 0.77 0.77 0.0 0 1 302.51 296.22
  L 302.53 293.50
  Z"
/>
<path fill="#ffffff" d="
  M 213.52 330.58
  L 216.37 323.48
  A 0.51 0.50 -56.4 0 1 217.19 323.31
  L 217.43 323.56
  A 0.41 0.41 0.0 0 1 217.52 324.00
  L 214.10 332.33
  A 1.05 1.05 0.0 0 1 212.15 332.32
  L 208.73 323.77
  A 0.43 0.43 0.0 0 1 209.43 323.31
  L 209.76 323.64
  Q 210.16 324.03 210.36 324.54
  L 212.83 330.58
  Q 213.17 331.44 213.52 330.58
  Z"
/>
<rect fill="#ffffff" x="-0.77" y="-4.83" transform="translate(220.98,328.16) rotate(0.2)" width="1.54" height="9.66" rx="0.71"/>
<path fill="#ffffff" d="
  M 231.29 330.67
  A 0.25 0.25 0.0 0 0 231.75 330.53
  L 231.75 323.74
  A 0.47 0.46 13.5 0 1 232.43 323.33
  C 233.35 323.81 233.01 331.05 232.99 332.09
  A 1.03 1.03 0.0 0 1 231.08 332.62
  L 226.71 325.54
  A 0.20 0.20 0.0 0 0 226.34 325.65
  C 226.35 326.65 226.81 333.07 225.50 333.02
  A 0.60 0.59 2.5 0 1 224.93 332.41
  L 225.19 324.06
  A 0.89 0.89 0.0 0 1 226.83 323.61
  L 231.29 330.67
  Z"
/>
<path fill="#ffffff" d="
  M 237.55 326.28
  C 237.65 327.21 238.43 333.07 236.90 332.97
  A 0.69 0.69 0.0 0 1 236.25 332.28
  L 236.26 323.92
  A 0.95 0.95 0.0 0 1 238.01 323.42
  L 242.32 330.41
  A 0.36 0.36 0.0 0 0 242.99 330.22
  L 243.00 324.28
  Q 243.01 323.87 243.29 323.58
  L 243.57 323.30
  A 0.39 0.39 0.0 0 1 244.24 323.58
  L 244.25 332.23
  A 0.95 0.95 0.0 0 1 242.51 332.75
  L 238.17 326.06
  A 0.34 0.34 0.0 0 0 237.55 326.28
  Z"
/>
<path fill="#ffffff" d="
  M 251.55 327.15
  L 254.21 323.40
  A 0.61 0.61 0.0 0 1 255.17 323.37
  C 255.25 323.47 255.21 324.14 255.18 324.16
  Q 251.69 327.64 251.75 332.52
  Q 251.75 333.08 251.20 333.00
  L 250.91 332.96
  Q 250.48 332.91 250.51 332.48
  C 250.81 328.27 248.95 327.29 247.24 323.93
  Q 246.91 323.27 247.64 323.30
  C 248.54 323.33 250.15 326.41 250.83 327.19
  Q 251.22 327.63 251.55 327.15
  Z"
/>
<path fill="#ffffff" d="
  M 259.86 324.47
  Q 258.26 324.68 256.73 324.17
  A 0.34 0.34 0.0 0 1 256.82 323.51
  Q 261.11 323.27 265.38 323.41
  A 0.36 0.36 0.0 0 1 265.53 324.10
  Q 264.19 324.76 262.68 324.46
  A 0.57 0.57 0.0 0 0 262.00 325.02
  L 262.00 332.40
  Q 262.00 333.05 261.35 333.00
  L 261.00 332.97
  Q 260.50 332.94 260.50 332.44
  L 260.50 325.03
  A 0.57 0.56 86.0 0 0 259.86 324.47
  Z"
/>
<path fill="#ffffff" d="
  M 273.08 329.25
  C 271.10 328.66 266.87 328.11 268.14 324.76
  A 1.49 1.46 86.1 0 1 268.79 324.00
  Q 272.12 322.12 274.92 324.68
  A 0.53 0.53 0.0 0 1 274.94 325.44
  L 274.71 325.67
  A 0.50 0.49 -41.4 0 1 273.97 325.63
  Q 272.28 323.49 269.82 324.80
  A 1.13 1.07 70.4 0 0 269.28 326.03
  C 269.65 327.64 274.05 327.23 275.13 329.20
  C 277.44 333.44 270.18 333.74 267.77 331.62
  A 0.69 0.68 33.8 0 1 267.60 330.80
  L 267.77 330.44
  A 0.37 0.37 0.0 0 1 268.40 330.38
  Q 270.24 332.88 273.19 331.68
  A 1.29 1.29 0.0 0 0 273.08 329.25
  Z"
/>
<rect fill="#ffffff" x="-0.73" y="-4.85" transform="translate(279.22,328.14) rotate(-0.9)" width="1.46" height="9.70" rx="0.68"/>
<path fill="#ffffff" d="
  M 288.55 330.25
  L 284.99 330.25
  A 0.55 0.55 0.0 0 0 284.44 330.77
  Q 284.35 332.09 283.41 332.93
  A 0.58 0.58 0.0 0 1 282.49 332.28
  L 286.05 323.76
  A 0.96 0.96 0.0 0 1 287.83 323.77
  L 291.38 332.48
  A 0.49 0.48 -83.4 0 1 290.65 333.06
  Q 289.57 332.28 289.33 330.91
  A 0.79 0.79 0.0 0 0 288.55 330.25
  Z
  M 285.34 328.52
  A 0.35 0.35 0.0 0 0 285.67 329.00
  L 288.11 329.00
  A 0.35 0.35 0.0 0 0 288.44 328.52
  L 287.21 325.55
  A 0.35 0.35 0.0 0 0 286.57 325.55
  L 285.34 328.52
  Z"
/>
<path fill="#333332" d="
  M 285.34 328.52
  L 286.57 325.55
  A 0.35 0.35 0.0 0 1 287.21 325.55
  L 288.44 328.52
  A 0.35 0.35 0.0 0 1 288.11 329.00
  L 285.67 329.00
  A 0.35 0.35 0.0 0 1 285.34 328.52
  Z"
/>
<ellipse fill="#ffffff" cx="0.00" cy="0.00" transform="translate(201.86,328.38) rotate(12.6)" rx="2.01" ry="1.88"/>
<ellipse fill="#ffffff" cx="0.00" cy="0.00" transform="translate(296.42,328.37) rotate(-17.3)" rx="1.92" ry="1.85"/>
<path fill="#ffffff" d="
  M 220.19 355.15
  C 213.90 364.62 201.18 355.23 207.80 346.67
  C 210.74 342.86 217.93 343.21 220.12 348.10
  Q 220.32 348.55 219.83 348.67
  C 216.02 349.58 214.47 344.39 210.54 347.84
  C 207.22 350.76 209.58 357.66 215.26 356.14
  Q 215.81 355.99 216.09 355.50
  Q 217.31 353.41 219.99 354.51
  A 0.43 0.43 0.0 0 1 220.19 355.15
  Z"
/>
<path fill="#ffffff" d="
  M 242.02 344.48
  A 0.30 0.30 0.0 0 1 242.33 344.18
  L 247.40 344.20
  A 7.39 6.75 0.2 0 1 254.76 350.97
  L 254.76 352.29
  A 7.39 6.75 0.2 0 1 247.34 359.02
  L 242.27 359.00
  A 0.30 0.30 0.0 0 1 241.98 358.70
  L 242.02 344.48
  Z
  M 244.97 347.38
  L 244.99 355.82
  A 0.64 0.64 0.0 0 0 245.63 356.45
  L 247.17 356.45
  A 4.60 4.54 -0.1 0 0 251.76 351.90
  L 251.76 351.26
  A 4.60 4.54 -0.1 0 0 247.15 346.73
  L 245.61 346.73
  A 0.64 0.64 0.0 0 0 244.97 347.38
  Z"
/>
<path fill="#ffffff" d="
  M 192.99 356.67
  L 192.36 358.57
  A 0.61 0.60 -80.5 0 1 191.79 358.99
  L 189.78 358.99
  Q 189.04 358.99 189.29 358.29
  L 193.84 345.58
  A 2.41 2.41 0.0 0 1 198.38 345.58
  L 202.93 358.33
  Q 203.17 359.02 202.44 359.00
  L 200.44 358.95
  Q 199.74 358.93 199.61 358.24
  L 199.34 356.85
  Q 199.22 356.25 198.61 356.25
  L 193.57 356.25
  Q 193.13 356.25 192.99 356.67
  Z
  M 195.88 348.29
  L 194.24 353.16
  A 0.45 0.45 0.0 0 0 194.67 353.75
  L 197.56 353.75
  Q 198.14 353.75 197.96 353.20
  L 196.27 348.29
  Q 196.07 347.72 195.88 348.29
  Z"
/>
<path fill="#ffffff" d="
  M 227.89 356.70
  L 227.46 358.36
  A 0.86 0.86 0.0 0 1 226.63 359.00
  L 224.65 359.00
  Q 224.02 359.00 224.23 358.40
  L 228.87 345.59
  A 2.39 2.39 0.0 0 1 233.36 345.59
  L 237.96 358.30
  Q 238.21 359.00 237.47 359.00
  L 235.36 359.00
  A 0.72 0.71 84.0 0 1 234.66 358.43
  L 234.33 356.84
  A 0.74 0.73 84.2 0 0 233.61 356.25
  L 228.47 356.25
  Q 228.00 356.25 227.89 356.70
  Z
  M 230.82 348.67
  L 229.26 353.02
  Q 229.00 353.75 229.77 353.75
  L 232.46 353.75
  Q 233.18 353.75 232.94 353.06
  L 231.41 348.68
  Q 231.12 347.83 230.82 348.67
  Z"
/>
<path fill="#ffffff" d="
  M 262.37 356.50
  L 267.13 356.50
  A 0.37 0.37 0.0 0 1 267.50 356.87
  L 267.50 358.63
  A 0.37 0.37 0.0 0 1 267.13 359.00
  L 259.37 359.00
  A 0.37 0.37 0.0 0 1 259.00 358.63
  L 259.00 344.62
  A 0.37 0.37 0.0 0 1 259.37 344.25
  L 267.13 344.25
  A 0.37 0.37 0.0 0 1 267.50 344.62
  L 267.50 346.45
  A 0.37 0.37 0.0 0 1 267.11 346.82
  L 262.39 346.61
  A 0.37 0.37 0.0 0 0 262.00 346.98
  L 262.00 349.88
  A 0.37 0.37 0.0 0 0 262.37 350.25
  L 266.64 350.25
  A 0.37 0.37 0.0 0 1 267.01 350.63
  L 266.97 352.42
  A 0.37 0.37 0.0 0 1 266.59 352.78
  L 262.38 352.70
  A 0.37 0.37 0.0 0 0 262.00 353.07
  L 262.00 356.13
  A 0.37 0.37 0.0 0 0 262.37 356.50
  Z"
/>
<path fill="#ffffff" d="
  M 275.00 350.56
  L 275.00 358.37
  Q 275.00 359.00 274.38 359.00
  L 272.63 359.00
  Q 272.00 359.00 272.00 358.37
  L 272.00 344.75
  Q 272.00 344.25 272.50 344.25
  L 274.62 344.25
  Q 275.35 344.25 275.63 344.91
  L 279.71 354.36
  Q 280.06 355.18 280.41 354.36
  L 284.36 345.07
  A 1.88 1.88 0.0 0 1 287.97 345.77
  L 288.19 358.28
  A 0.72 0.71 -0.4 0 1 287.47 359.00
  L 285.85 359.00
  Q 285.26 359.00 285.26 358.42
  L 285.17 350.72
  A 0.31 0.31 0.0 0 0 284.57 350.61
  L 281.59 358.03
  A 1.66 1.66 0.0 0 1 278.52 358.04
  L 275.41 350.48
  Q 275.00 349.49 275.00 350.56
  Z"
/>
<path fill="#ffffff" d="
  M 298.35 350.17
  L 300.93 344.70
  Q 301.15 344.25 301.65 344.25
  L 303.74 344.25
  Q 304.51 344.25 304.16 344.93
  Q 302.17 348.73 300.22 352.49
  C 299.18 354.49 299.48 356.27 299.51 358.42
  Q 299.51 359.00 298.94 359.00
  L 297.06 359.00
  A 0.57 0.57 0.0 0 1 296.49 358.42
  C 296.54 356.27 296.79 354.51 295.78 352.52
  Q 293.84 348.72 291.85 344.94
  Q 291.48 344.25 292.26 344.25
  L 294.24 344.25
  Q 294.90 344.25 295.16 344.85
  Q 296.34 347.58 297.73 350.19
  Q 298.06 350.80 298.35 350.17
  Z"
/>
<path fill="#333332" d="
  M 244.97 347.38
  A 0.64 0.64 0.0 0 1 245.61 346.73
  L 247.15 346.73
  A 4.60 4.54 -0.1 0 1 251.76 351.26
  L 251.76 351.90
  A 4.60 4.54 -0.1 0 1 247.17 356.45
  L 245.63 356.45
  A 0.64 0.64 0.0 0 1 244.99 355.82
  L 244.97 347.38
  Z"
/>
<path fill="#333332" d="
  M 195.88 348.29
  Q 196.07 347.72 196.27 348.29
  L 197.96 353.20
  Q 198.14 353.75 197.56 353.75
  L 194.67 353.75
  A 0.45 0.45 0.0 0 1 194.24 353.16
  L 195.88 348.29
  Z"
/>
<path fill="#333332" d="
  M 230.82 348.67
  Q 231.12 347.83 231.41 348.68
  L 232.94 353.06
  Q 233.18 353.75 232.46 353.75
  L 229.77 353.75
  Q 229.00 353.75 229.26 353.02
  L 230.82 348.67
  Z"
/>
</svg>
