<svg width="231" height="35" viewBox="0 0 231 35" fill="none" xmlns="http://www.w3.org/2000/svg">
<path d="M116.51 19.68L118.92 9.09001L113.12 7.33001L111.13 16.06H113.3L112.48 19.68H103.65L107.88 1.10001L123 5.87001L140.26 1.10001L136.03 19.68H127.2L128.02 16.06H130.19L132.18 7.33001L125.58 9.09001L123.17 19.68H116.51Z" fill="white"/>
<path d="M148.79 10.78L150.01 5.44001H163.2L162.08 10.35L168.79 10.13L170.68 1.82001H144.17L142.08 11L148.79 10.78Z" fill="white"/>
<path d="M161.73 11.91L160.78 16.06H147.59L148.63 11.47L142.03 11.25L140.11 19.68H166.62L168.34 12.13L161.73 11.91Z" fill="white"/>
<path d="M179.07 5.44001H183.36L182.39 9.68001L189.1 9.46001L190.02 5.44001H194.3L193.49 9.01001L200.2 8.81001L201.79 1.82001H173.23L171.41 9.82001L178.17 9.56001L179.07 5.44001Z" fill="white"/>
<path d="M181.73 12.57L180.12 19.68H186.78L188.34 12.79L181.73 12.57Z" fill="white"/>
<path d="M209.41 8.80001L210.17 5.44001H223.37L222.7 8.36001L229.41 8.15001L230.85 1.82001H204.34L202.7 9.02001L209.41 8.80001Z" fill="white"/>
<path d="M221.441 13.9L220.951 16.06H207.761L208.351 13.46L201.741 13.24L200.271 19.68H226.791L228.051 14.12L221.441 13.9Z" fill="white"/>
<path d="M54.9001 0.76001L51.0001 17.55L37.0201 20.04L48.7801 34.93H32.7601L23.0001 22.53L15.0001 23.95L12.4501 34.93H0.870117L8.81012 0.770012H54.9101L54.9001 0.76001ZM41.7101 7.69001H18.7701L16.7701 16.28L40.7001 12.03L41.7101 7.69001Z" fill="#C00D0D"/>
<path d="M59.8299 0.759998H105.44L102.68 12.62L91.5499 10.67L92.2399 7.69H69.7899L68.7099 12.33L101.37 18.24L97.4899 34.93H51.8799L54.4899 23.7L65.6399 25.55L65.0699 27.99H87.5199L88.6299 23.21L55.9699 17.3L59.8199 0.75L59.8299 0.759998Z" fill="#C00D0D"/>
<path d="M102.6 24.49H121.06L120.11 28.11L115.58 27.51L115.82 26.6H106.73L106.36 28.02L119.66 29.82L118.32 34.92H99.8604L100.76 31.49L105.3 32.06L105.1 32.81H114.19L114.57 31.35L101.27 29.55L102.6 24.5V24.49Z" fill="white"/>
<path d="M140.49 31.08L139.48 34.92H120.82L123.56 24.49H142.22L141.21 28.33L136.66 27.79L136.97 26.6H127.69L126.06 32.8H135.34L135.65 31.61L140.48 31.07L140.49 31.08Z" fill="white"/>
<path d="M160.63 34.92H155.94L157.04 30.73H147.77L146.67 34.92H141.98L144.72 24.49H149.41L148.32 28.62H157.59L158.68 24.49H163.37L160.63 34.92Z" fill="white"/>
<path d="M182.16 34.92H163.5L166.24 24.49H184.9L182.16 34.92ZM179.66 26.6H170.38L168.75 32.8H178.03L179.66 26.6Z" fill="white"/>
<path d="M203.69 34.92H185.03L187.77 24.49H206.43L203.69 34.92ZM201.19 26.6H191.91L190.28 32.8H199.56L201.19 26.6Z" fill="white"/>
<path d="M224.47 31.01L223.44 34.93H206.56L209.3 24.5H213.99L211.8 32.82H219.31L219.64 31.55L224.47 31.01Z" fill="white"/>
</svg>
