<?xml version="1.0" encoding="utf-8"?>
<!-- Generator: Adobe Illustrator 25.2.0, SVG Export Plug-In . SVG Version: 6.00 Build 0)  -->
<svg version="1.1" id="Слой_1" xmlns="http://www.w3.org/2000/svg" xmlns:xlink="http://www.w3.org/1999/xlink" x="0px" y="0px"
	 viewBox="0 0 24 24" style="enable-background:new 0 0 24 24;" xml:space="preserve">
<style type="text/css">
	.st0{fill-rule:evenodd;clip-rule:evenodd;fill:#1F2025;}
</style>
<path class="st0" d="M8,5C6.3,5,5,6.3,5,8v8c0,1.7,1.3,3,3,3h8c1.7,0,3-1.3,3-3V8c0-1.7-1.3-3-3-3H8z M3,8c0-2.8,2.2-5,5-5h8
	c2.8,0,5,2.2,5,5v8c0,2.8-2.2,5-5,5H8c-2.8,0-5-2.2-5-5V8z M12,10c-1.1,0-2,0.9-2,2s0.9,2,2,2s2-0.9,2-2S13.1,10,12,10z M8,12
	c0-2.2,1.8-4,4-4c2.2,0,4,1.8,4,4c0,2.2-1.8,4-4,4C9.8,16,8,14.2,8,12z"/>
</svg>
