<?xml version="1.0" encoding="utf-8"?>
<!-- Generator: Adobe Illustrator 25.2.0, SVG Export Plug-In . SVG Version: 6.00 Build 0)  -->
<svg version="1.1" id="Слой_1" xmlns="http://www.w3.org/2000/svg" xmlns:xlink="http://www.w3.org/1999/xlink" x="0px" y="0px"
	 viewBox="0 0 20 20" style="enable-background:new 0 0 20 20;" xml:space="preserve">
<style type="text/css">
	.st0{fill-rule:evenodd;clip-rule:evenodd;fill:#205BF1;}
</style>
<path class="st0" d="M4.2,5.8c-0.5,0-0.8,0.4-0.8,0.8v6.7c0,0.5,0.4,0.8,0.8,0.8h6.7c0.5,0,0.8-0.4,0.8-0.8V6.7
	c0-0.5-0.4-0.8-0.8-0.8H4.2z M13.3,7V6.7c0-1.4-1.1-2.5-2.5-2.5H4.2c-1.4,0-2.5,1.1-2.5,2.5v6.7c0,1.4,1.1,2.5,2.5,2.5h6.7
	c1.4,0,2.5-1.1,2.5-2.5V13l2.6,1.3c0.3,0.1,0.5,0.2,0.8,0.2c0.3,0,0.6-0.1,0.8-0.2c0.2-0.1,0.4-0.4,0.6-0.6c0.1-0.2,0.2-0.5,0.2-0.8
	V7.2c0-0.3-0.1-0.6-0.2-0.8c-0.1-0.2-0.3-0.5-0.6-0.6S17,5.5,16.7,5.5c-0.3,0-0.6,0-0.8,0.2L13.3,7z M13.3,8.8v2.3l3.3,1.7V7.2
	L13.3,8.8z"/>
</svg>
